{
.appVersion = "3202";
DisplayStrings = (
"/lambe-teng/alda-teng/lambe-teng.big/alda-teng.big",
"/tinco-teng/parma-teng/calma-teng/quesse-teng/ando-teng/umbar-teng/anga-teng/ungwe-teng/thuule-teng/formen-teng/harma-teng/hwesta-teng \012/anto-teng/ampa-teng/anca-teng/unque-teng/nuumen-teng/malta-teng/noldo-teng/nwalme-teng/oore-teng/vala-teng/vala_dotinside-teng \012/anna-teng/vilya-teng/vilya_dotinside-teng/tincoascent-teng/parmaascent-teng/calmaascent-teng/quesseascent-teng/andoascent-teng/umbarascent-teng/angaascent-teng/ungweascent-teng/roomen-teng/arda-teng \012/lambe-teng/alda-teng/silme-teng/silmeturned-teng/aare-teng/aareturned-teng/hyarmen-teng/hwestasindar-teng/yanta-teng/uure-teng/carrierlong-teng/halla-teng/carriershort-teng/ossereversed-teng/wbombadil-teng/osse-teng/carrierschwa-teng/annaopen-teng/quchris-teng \012/hwbombadil-teng/mh-teng/mhbelerian-teng/hwlowdham-teng/vaiya-teng/sarincefina-teng/uureslash-teng/uureslashAlt-teng/carrierlongAlt-teng/lambe-teng.big/alda-teng.big/roomen-teng.bottom/arda-teng.bottom",

glyphs = (
{
color = 10;
glyphname = A;
lastChange = "2022-01-06 02:32:25 +0000";
layers = (
{
layerId = "4397B867-53E7-4964-BB9B-A578920F109C";
paths = (
{
closed = 1;
nodes = (
"195 0 LINE",
"195 34 LINE",
"177 34 LINE SMOOTH",
"141 34 OFFCURVE",
"124 46 OFFCURVE",
"124 73 CURVE SMOOTH",
"124 82 OFFCURVE",
"126 94 OFFCURVE",
"131 107 CURVE SMOOTH",
"162 191 LINE",
"372 191 LINE",
"404 102 LINE SMOOTH",
"408 90 OFFCURVE",
"410 81 OFFCURVE",
"410 72 CURVE SMOOTH",
"410 46 OFFCURVE",
"394 34 OFFCURVE",
"362 34 CURVE SMOOTH",
"344 34 LINE",
"344 0 LINE",
"564 0 LINE",
"564 34 LINE",
"554 34 LINE SMOOTH",
"522 34 OFFCURVE",
"510 43 OFFCURVE",
"497 76 CURVE SMOOTH",
"316 571 LINE",
"254 571 LINE",
"76 96 LINE SMOOTH",
"56 44 OFFCURVE",
"46 34 OFFCURVE",
"15 34 CURVE SMOOTH",
"0 34 LINE",
"0 0 LINE"
);
},
{
closed = 1;
nodes = (
"231 378 LINE SMOOTH",
"249 426 OFFCURVE",
"261 460 OFFCURVE",
"268 498 CURVE",
"277 459 OFFCURVE",
"291 418 OFFCURVE",
"308 371 CURVE SMOOTH",
"358 231 LINE",
"177 231 LINE"
);
}
);
userData = {
assembly = "NPUSHB[ ]	/* 62 values pushed */
175 49 1 49 64 10 13 72 41 37 1 19 40 47 36 35 40 35 46 0 1 40 1 18 40 40 11 41 35 1 35 20 20 26 49 15 49 1 1 17 17 11 35 36 0 94 47 46 46 40 19 18 3 29 25 7 11 93 28 10 18 1 
SVTCA[0]	/* SetFreedomAndProjectionVectorToAxis */
MDAP[1]	/* MoveDirectAbsPt */
MIAP[1]	/* MoveIndirectAbsPt */
SHP[1]	/* ShiftPointByLastPoint */
MIRP[00001]	/* MoveIndirectRelPt */
SHP[0]	/* ShiftPointByLastPoint */
SHP[0]	/* ShiftPointByLastPoint */
SHP[0]	/* ShiftPointByLastPoint */
MIAP[1]	/* MoveIndirectAbsPt */
SHP[1]	/* ShiftPointByLastPoint */
SHP[1]	/* ShiftPointByLastPoint */
IP[ ]	/* InterpolatePts */
MDAP[1]	/* MoveDirectAbsPt */
SHP[1]	/* ShiftPointByLastPoint */
MIRP[00001]	/* MoveIndirectRelPt */
SHP[0]	/* ShiftPointByLastPoint */
MDAP[1]	/* MoveDirectAbsPt */
SVTCA[1]	/* SetFreedomAndProjectionVectorToAxis */
MDAP[1]	/* MoveDirectAbsPt */
SHP[1]	/* ShiftPointByLastPoint */
SRP1[ ]	/* SetRefPoint1 */
SHP[1]	/* ShiftPointByLastPoint */
DELTAP1[ ]	/* DeltaExceptionP1 */
SRP0[ ]	/* SetRefPoint0 */
MDRP[00100]	/* MoveDirectRelPt */
SHP[0]	/* ShiftPointByLastPoint */
SRP1[ ]	/* SetRefPoint1 */
SHP[1]	/* ShiftPointByLastPoint */
DELTAP1[ ]	/* DeltaExceptionP1 */
SRP1[ ]	/* SetRefPoint1 */
IP[ ]	/* InterpolatePts */
SRP1[ ]	/* SetRefPoint1 */
SHP[1]	/* ShiftPointByLastPoint */
SRP0[ ]	/* SetRefPoint0 */
SDPVTL[1]	/* SetDualPVectorToLine */
MDRP[00000]	/* MoveDirectRelPt */
MDRP[00000]	/* MoveDirectRelPt */
SRP0[ ]	/* SetRefPoint0 */
SDPVTL[1]	/* SetDualPVectorToLine */
MDRP[00000]	/* MoveDirectRelPt */
MDRP[00000]	/* MoveDirectRelPt */
SRP1[ ]	/* SetRefPoint1 */
SVTCA[1]	/* SetFreedomAndProjectionVectorToAxis */
SHP[1]	/* ShiftPointByLastPoint */
IUP[1]	/* InterpolateUntPts */
IUP[0]	/* InterpolateUntPts */
DELTAP1[ ]	/* DeltaExceptionP1 */
CALL[ ]	/* CallFunction */
DELTAP1[ ]	/* DeltaExceptionP1 */";
};
width = 564;
},
{
layerId = "0ED38B93-C2B0-4B4A-9C6D-D7838A33C317";
paths = (
{
closed = 1;
nodes = (
"211 0 LINE",
"211 42 LINE",
"178 42 LINE SMOOTH",
"159 42 OFFCURVE",
"142 53 OFFCURVE",
"142 74 CURVE SMOOTH",
"142 86 OFFCURVE",
"147 106 OFFCURVE",
"151 119 CURVE SMOOTH",
"174 188 LINE",
"369 188 LINE",
"397 108 LINE SMOOTH",
"400 99 OFFCURVE",
"404 86 OFFCURVE",
"404 74 CURVE SMOOTH",
"404 51 OFFCURVE",
"386 42 OFFCURVE",
"370 42 CURVE SMOOTH",
"338 42 LINE",
"338 0 LINE",
"602 0 LINE",
"602 42 LINE",
"588 42 LINE SMOOTH",
"562 42 OFFCURVE",
"542 56 OFFCURVE",
"527 100 CURVE SMOOTH",
"360 571 LINE",
"250 571 LINE",
"77 101 LINE SMOOTH",
"58 54 OFFCURVE",
"42 42 OFFCURVE",
"13 42 CURVE SMOOTH",
"3 42 LINE",
"3 0 LINE"
);
},
{
closed = 1;
nodes = (
"238 372 LINE SMOOTH",
"250 409 OFFCURVE",
"267 454 OFFCURVE",
"277 488 CURVE",
"286 450 OFFCURVE",
"299 404 OFFCURVE",
"310 368 CURVE SMOOTH",
"353 237 LINE",
"191 237 LINE"
);
}
);
userData = {
assembly = "NPUSHB[ ]	/* 93 values pushed */
41 54 47 37 47 53 0 4 47 4 117 21 1 21 20 47 47 19 37 28 182 22 1 169 22 1 116 22 1 102 22 1 64 22 80 22 2 4 22 52 22 2 22 22 56 4 13 118 19 166 19 182 19 3 105 19 1 4 19 52 19 2 19 41 0 0 54 96 53 1 53 53 20 4 37 22 19 4 21 13 21 47 20 3 9 27 31 3 13 13 30 12 18 
SVTCA[0]	/* SetFreedomAndProjectionVectorToAxis */
MIAP[1]	/* MoveIndirectAbsPt */
SHP[1]	/* ShiftPointByLastPoint */
SHP[1]	/* ShiftPointByLastPoint */
SRP1[ ]	/* SetRefPoint1 */
SLOOP[ ]	/* SetLoopVariable */
SHP[1]	/* ShiftPointByLastPoint */
MIAP[1]	/* MoveIndirectAbsPt */
SHP[1]	/* ShiftPointByLastPoint */
SHP[1]	/* ShiftPointByLastPoint */
SRP1[ ]	/* SetRefPoint1 */
SRP2[ ]	/* SetRefPoint2 */
SLOOP[ ]	/* SetLoopVariable */
IP[ ]	/* InterpolatePts */
SRP2[ ]	/* SetRefPoint2 */
IP[ ]	/* InterpolatePts */
MDAP[1]	/* MoveDirectAbsPt */
DELTAP1[ ]	/* DeltaExceptionP1 */
SHP[1]	/* ShiftPointByLastPoint */
SHP[1]	/* ShiftPointByLastPoint */
SRP1[ ]	/* SetRefPoint1 */
SHP[1]	/* ShiftPointByLastPoint */
SVTCA[1]	/* SetFreedomAndProjectionVectorToAxis */
MDAP[1]	/* MoveDirectAbsPt */
DELTAP1[ ]	/* DeltaExceptionP1 */
DELTAP1[ ]	/* DeltaExceptionP1 */
DELTAP1[ ]	/* DeltaExceptionP1 */
SHP[1]	/* ShiftPointByLastPoint */
SHP[1]	/* ShiftPointByLastPoint */
SRP1[ ]	/* SetRefPoint1 */
SHP[1]	/* ShiftPointByLastPoint */
MDAP[1]	/* MoveDirectAbsPt */
DELTAP1[ ]	/* DeltaExceptionP1 */
DELTAP1[ ]	/* DeltaExceptionP1 */
DELTAP1[ ]	/* DeltaExceptionP1 */
DELTAP1[ ]	/* DeltaExceptionP1 */
DELTAP1[ ]	/* DeltaExceptionP1 */
DELTAP1[ ]	/* DeltaExceptionP1 */
SHP[1]	/* ShiftPointByLastPoint */
SHP[1]	/* ShiftPointByLastPoint */
SRP2[ ]	/* SetRefPoint2 */
IP[ ]	/* InterpolatePts */
SRP1[ ]	/* SetRefPoint1 */
SHP[1]	/* ShiftPointByLastPoint */
SHP[1]	/* ShiftPointByLastPoint */
DELTAP1[ ]	/* DeltaExceptionP1 */
SRP0[ ]	/* SetRefPoint0 */
SDPVTL[1]	/* SetDualPVectorToLine */
MDRP[00000]	/* MoveDirectRelPt */
MDRP[00000]	/* MoveDirectRelPt */
SRP0[ ]	/* SetRefPoint0 */
SDPVTL[1]	/* SetDualPVectorToLine */
MDRP[00000]	/* MoveDirectRelPt */
MDRP[00000]	/* MoveDirectRelPt */
IUP[1]	/* InterpolateUntPts */
IUP[0]	/* InterpolateUntPts */";
};
width = 602;
}
);
note = uni0041;
unicode = 0041;
},
{
color = 10;
glyphname = B;
lastChange = "2022-01-06 02:32:25 +0000";
layers = (
{
layerId = "4397B867-53E7-4964-BB9B-A578920F109C";
paths = (
{
closed = 1;
nodes = (
"269 0 LINE SMOOTH",
"407 0 OFFCURVE",
"474 51 OFFCURVE",
"474 154 CURVE SMOOTH",
"474 239 OFFCURVE",
"424 286 OFFCURVE",
"351 299 CURVE",
"351 302 LINE",
"407 321 OFFCURVE",
"450 354 OFFCURVE",
"450 428 CURVE SMOOTH",
"450 526 OFFCURVE",
"383 571 OFFCURVE",
"245 571 CURVE SMOOTH",
"30 571 LINE",
"30 538 LINE",
"41 538 LINE SMOOTH",
"75 538 OFFCURVE",
"106 531 OFFCURVE",
"106 483 CURVE SMOOTH",
"106 91 LINE SMOOTH",
"106 42 OFFCURVE",
"78 34 OFFCURVE",
"41 34 CURVE SMOOTH",
"30 34 LINE",
"30 0 LINE"
);
},
{
closed = 1;
nodes = (
"187 279 LINE",
"266 279 LINE SMOOTH",
"361 279 OFFCURVE",
"389 239 OFFCURVE",
"389 157 CURVE SMOOTH",
"389 71 OFFCURVE",
"356 40 OFFCURVE",
"265 40 CURVE SMOOTH",
"187 40 LINE"
);
},
{
closed = 1;
nodes = (
"187 531 LINE",
"241 531 LINE SMOOTH",
"331 531 OFFCURVE",
"365 506 OFFCURVE",
"365 428 CURVE SMOOTH",
"365 351 OFFCURVE",
"336 319 OFFCURVE",
"242 319 CURVE SMOOTH",
"187 319 LINE"
);
}
);
userData = {
assembly = "NPUSHB[ ]	/* 47 values pushed */
5 47 11 53 91 112 0 1 0 40 91 11 103 61 127 61 1 64 61 1 47 34 90 22 100 60 5 46 94 47 47 1 47 47 16 59 94 29 93 30 3 16 93 34 94 15 18 
SVTCA[0]	/* SetFreedomAndProjectionVectorToAxis */
MIAP[1]	/* MoveIndirectAbsPt */
MIRP[00001]	/* MoveIndirectRelPt */
MIRP[00001]	/* MoveIndirectRelPt */
MIAP[1]	/* MoveIndirectAbsPt */
MIRP[00001]	/* MoveIndirectRelPt */
MIRP[00001]	/* MoveIndirectRelPt */
SRP2[ ]	/* SetRefPoint2 */
IP[ ]	/* InterpolatePts */
MDAP[1]	/* MoveDirectAbsPt */
DELTAP1[ ]	/* DeltaExceptionP1 */
MIRP[00001]	/* MoveIndirectRelPt */
IP[ ]	/* InterpolatePts */
SVTCA[1]	/* SetFreedomAndProjectionVectorToAxis */
SRP0[ ]	/* SetRefPoint0 */
MIRP[10100]	/* MoveIndirectRelPt */
MIRP[00001]	/* MoveIndirectRelPt */
SHP[0]	/* ShiftPointByLastPoint */
DELTAP1[ ]	/* DeltaExceptionP1 */
DELTAP1[ ]	/* DeltaExceptionP1 */
SRP0[ ]	/* SetRefPoint0 */
MIRP[10110]	/* MoveIndirectRelPt */
MIRP[00001]	/* MoveIndirectRelPt */
MDRP[10100]	/* MoveDirectRelPt */
DELTAP1[ ]	/* DeltaExceptionP1 */
MIRP[00001]	/* MoveIndirectRelPt */
SRP1[ ]	/* SetRefPoint1 */
SRP2[ ]	/* SetRefPoint2 */
IP[ ]	/* InterpolatePts */
IUP[1]	/* InterpolateUntPts */
IUP[0]	/* InterpolateUntPts */";
};
width = 523;
},
{
layerId = "0ED38B93-C2B0-4B4A-9C6D-D7838A33C317";
paths = (
{
closed = 1;
nodes = (
"280 0 LINE SMOOTH",
"432 0 OFFCURVE",
"509 51 OFFCURVE",
"509 157 CURVE SMOOTH",
"509 234 OFFCURVE",
"458 282 OFFCURVE",
"384 300 CURVE",
"384 304 LINE",
"445 323 OFFCURVE",
"485 356 OFFCURVE",
"485 426 CURVE SMOOTH",
"485 526 OFFCURVE",
"408 571 OFFCURVE",
"256 571 CURVE SMOOTH",
"22 571 LINE",
"22 529 LINE",
"55 529 LINE SMOOTH",
"79 529 OFFCURVE",
"97 519 OFFCURVE",
"97 478 CURVE SMOOTH",
"97 94 LINE SMOOTH",
"97 50 OFFCURVE",
"79 42 OFFCURVE",
"55 42 CURVE SMOOTH",
"22 42 LINE",
"22 0 LINE"
);
},
{
closed = 1;
nodes = (
"223 274 LINE",
"278 274 LINE SMOOTH",
"352 274 OFFCURVE",
"374 237 OFFCURVE",
"374 159 CURVE SMOOTH",
"374 78 OFFCURVE",
"347 49 OFFCURVE",
"276 49 CURVE SMOOTH",
"223 49 LINE"
);
},
{
closed = 1;
nodes = (
"223 522 LINE",
"252 522 LINE SMOOTH",
"324 522 OFFCURVE",
"350 498 OFFCURVE",
"350 426 CURVE SMOOTH",
"350 354 OFFCURVE",
"328 323 OFFCURVE",
"254 323 CURVE SMOOTH",
"223 323 LINE"
);
}
);
userData = {
assembly = "NPUSHB[ ]	/* 120 values pushed */
58 51 74 51 2 58 50 74 50 2 40 50 1 5 6 21 6 2 5 12 21 12 2 5 33 21 33 2 168 53 184 53 2 89 53 121 53 2 72 53 1 53 6 34 125 0 1 89 0 1 0 0 11 47 34 34 22 100 60 168 40 184 40 2 90 40 1 72 40 1 40 127 11 159 11 2 84 11 1 0 11 48 11 2 11 47 61 191 61 239 61 3 61 64 14 18 72 6 46 46 207 47 1 152 47 1 47 47 16 30 59 29 29 30 3 34 16 16 15 18 
SVTCA[0]	/* SetFreedomAndProjectionVectorToAxis */
MIAP[1]	/* MoveIndirectAbsPt */
SHP[1]	/* ShiftPointByLastPoint */
SRP1[ ]	/* SetRefPoint1 */
SHP[1]	/* ShiftPointByLastPoint */
MIAP[1]	/* MoveIndirectAbsPt */
SHP[1]	/* ShiftPointByLastPoint */
SRP0[ ]	/* SetRefPoint0 */
MDRP[00100]	/* MoveDirectRelPt */
SRP1[ ]	/* SetRefPoint1 */
SRP2[ ]	/* SetRefPoint2 */
IP[ ]	/* InterpolatePts */
MDAP[1]	/* MoveDirectAbsPt */
DELTAP1[ ]	/* DeltaExceptionP1 */
DELTAP1[ ]	/* DeltaExceptionP1 */
SHP[1]	/* ShiftPointByLastPoint */
SRP2[ ]	/* SetRefPoint2 */
IP[ ]	/* InterpolatePts */
SVTCA[1]	/* SetFreedomAndProjectionVectorToAxis */
CALL[ ]	/* CallFunction */
DELTAP1[ ]	/* DeltaExceptionP1 */
MDAP[1]	/* MoveDirectAbsPt */
DELTAP1[ ]	/* DeltaExceptionP1 */
DELTAP1[ ]	/* DeltaExceptionP1 */
DELTAP1[ ]	/* DeltaExceptionP1 */
SHP[1]	/* ShiftPointByLastPoint */
DELTAP1[ ]	/* DeltaExceptionP1 */
DELTAP1[ ]	/* DeltaExceptionP1 */
DELTAP1[ ]	/* DeltaExceptionP1 */
SRP0[ ]	/* SetRefPoint0 */
MIRP[00100]	/* MoveIndirectRelPt */
SHP[0]	/* ShiftPointByLastPoint */
SRP1[ ]	/* SetRefPoint1 */
SHP[1]	/* ShiftPointByLastPoint */
SRP2[ ]	/* SetRefPoint2 */
IP[ ]	/* InterpolatePts */
MDAP[1]	/* MoveDirectAbsPt */
DELTAP1[ ]	/* DeltaExceptionP1 */
DELTAP1[ ]	/* DeltaExceptionP1 */
SRP2[ ]	/* SetRefPoint2 */
IP[ ]	/* InterpolatePts */
SHP[1]	/* ShiftPointByLastPoint */
DELTAP1[ ]	/* DeltaExceptionP1 */
DELTAP1[ ]	/* DeltaExceptionP1 */
DELTAP1[ ]	/* DeltaExceptionP1 */
IUP[1]	/* InterpolateUntPts */
IUP[0]	/* InterpolateUntPts */
DELTAP1[ ]	/* DeltaExceptionP1 */
DELTAP1[ ]	/* DeltaExceptionP1 */
DELTAP1[ ]	/* DeltaExceptionP1 */
DELTAP1[ ]	/* DeltaExceptionP1 */
DELTAP1[ ]	/* DeltaExceptionP1 */
DELTAP1[ ]	/* DeltaExceptionP1 */";
};
width = 538;
}
);
note = uni0042;
unicode = 0042;
},
{
color = 10;
glyphname = C;
lastChange = "2022-01-06 02:32:25 +0000";
layers = (
{
layerId = "4397B867-53E7-4964-BB9B-A578920F109C";
paths = (
{
closed = 1;
nodes = (
"406 -8 OFFCURVE",
"461 41 OFFCURVE",
"461 82 CURVE SMOOTH",
"461 98 OFFCURVE",
"454 107 OFFCURVE",
"446 113 CURVE",
"408 64 OFFCURVE",
"362 45 OFFCURVE",
"301 45 CURVE SMOOTH",
"242 45 OFFCURVE",
"201 70 OFFCURVE",
"174 112 CURVE SMOOTH",
"146 154 OFFCURVE",
"134 215 OFFCURVE",
"134 286 CURVE SMOOTH",
"134 366 OFFCURVE",
"146 430 OFFCURVE",
"172 472 CURVE SMOOTH",
"199 514 OFFCURVE",
"240 537 OFFCURVE",
"301 537 CURVE SMOOTH",
"370 537 OFFCURVE",
"394 483 OFFCURVE",
"394 434 CURVE",
"434 434 OFFCURVE",
"464 455 OFFCURVE",
"464 490 CURVE SMOOTH",
"464 541 OFFCURVE",
"411 579 OFFCURVE",
"302 579 CURVE SMOOTH",
"134 579 OFFCURVE",
"46 460 OFFCURVE",
"46 286 CURVE SMOOTH",
"46 120 OFFCURVE",
"122 -8 OFFCURVE",
"289 -8 CURVE SMOOTH"
);
}
);
userData = {
assembly = "NPUSHB[ ]	/* 24 values pushed */
33 10 5 49 64 111 49 1 20 91 43 102 48 30 128 25 96 38 19 15 95 10 0 4 
SVTCA[0]	/* SetFreedomAndProjectionVectorToAxis */
MIAP[1]	/* MoveIndirectAbsPt */
MDRP[01100]	/* MoveDirectRelPt */
MIRP[00001]	/* MoveIndirectRelPt */
MIAP[1]	/* MoveIndirectAbsPt */
MIRP[00001]	/* MoveIndirectRelPt */
SMD[ ]	/* SetMinimumDistance */
MDRP[01100]	/* MoveDirectRelPt */
SVTCA[1]	/* SetFreedomAndProjectionVectorToAxis */
SRP0[ ]	/* SetRefPoint0 */
MIRP[10110]	/* MoveIndirectRelPt */
MIRP[00001]	/* MoveIndirectRelPt */
DELTAP1[ ]	/* DeltaExceptionP1 */
SMD[ ]	/* SetMinimumDistance */
SRP0[ ]	/* SetRefPoint0 */
MDRP[11110]	/* MoveDirectRelPt */
MDRP[00001]	/* MoveDirectRelPt */
MDRP[00100]	/* MoveDirectRelPt */
IUP[1]	/* InterpolateUntPts */
IUP[0]	/* InterpolateUntPts */";
};
width = 491;
},
{
background = {
paths = (
{
closed = 1;
nodes = (
"458 -8 OFFCURVE",
"502 53 OFFCURVE",
"502 98 CURVE SMOOTH",
"502 111 OFFCURVE",
"496 126 OFFCURVE",
"488 132 CURVE",
"459 94 OFFCURVE",
"416 56 OFFCURVE",
"340 56 CURVE SMOOTH",
"281 56 OFFCURVE",
"240 75 OFFCURVE",
"215 113 CURVE SMOOTH",
"190 151 OFFCURVE",
"178 210 OFFCURVE",
"178 286 CURVE SMOOTH",
"178 363 OFFCURVE",
"187 424 OFFCURVE",
"208 466 CURVE SMOOTH",
"230 506 OFFCURVE",
"264 528 OFFCURVE",
"314 528 CURVE SMOOTH",
"381 528 OFFCURVE",
"402 470 OFFCURVE",
"402 417 CURVE",
"468 417 OFFCURVE",
"502 447 OFFCURVE",
"502 486 CURVE SMOOTH",
"502 512 OFFCURVE",
"487 536 OFFCURVE",
"457 552 CURVE SMOOTH",
"427 569 OFFCURVE",
"382 579 OFFCURVE",
"320 579 CURVE SMOOTH",
"138 579 OFFCURVE",
"44 460 OFFCURVE",
"44 286 CURVE SMOOTH",
"44 112 OFFCURVE",
"133 -8 OFFCURVE",
"321 -8 CURVE SMOOTH"
);
}
);
};
layerId = "0ED38B93-C2B0-4B4A-9C6D-D7838A33C317";
paths = (
{
closed = 1;
nodes = (
"458 -8 OFFCURVE",
"502 53 OFFCURVE",
"502 98 CURVE SMOOTH",
"502 111 OFFCURVE",
"496 126 OFFCURVE",
"488 132 CURVE",
"459 94 OFFCURVE",
"416 56 OFFCURVE",
"340 56 CURVE SMOOTH",
"281 56 OFFCURVE",
"240 75 OFFCURVE",
"215 113 CURVE SMOOTH",
"190 151 OFFCURVE",
"178 210 OFFCURVE",
"178 286 CURVE SMOOTH",
"178 363 OFFCURVE",
"187 424 OFFCURVE",
"208 466 CURVE SMOOTH",
"230 506 OFFCURVE",
"264 528 OFFCURVE",
"314 528 CURVE SMOOTH",
"381 528 OFFCURVE",
"402 470 OFFCURVE",
"402 417 CURVE",
"468 417 OFFCURVE",
"502 447 OFFCURVE",
"502 486 CURVE SMOOTH",
"502 559 OFFCURVE",
"394 579 OFFCURVE",
"320 579 CURVE SMOOTH",
"138 579 OFFCURVE",
"44 460 OFFCURVE",
"44 286 CURVE SMOOTH",
"44 112 OFFCURVE",
"133 -8 OFFCURVE",
"321 -8 CURVE SMOOTH"
);
}
);
userData = {
assembly = "NPUSHB[ ]	/* 35 values pushed */
8 33 0 28 32 28 48 28 3 28 28 49 47 49 1 43 18 102 48 201 33 1 40 33 120 33 2 33 38 23 4 5 0 13 19 
SVTCA[0]	/* SetFreedomAndProjectionVectorToAxis */
MIAP[1]	/* MoveIndirectAbsPt */
SHP[1]	/* ShiftPointByLastPoint */
SHP[1]	/* ShiftPointByLastPoint */
MIAP[1]	/* MoveIndirectAbsPt */
SHP[1]	/* ShiftPointByLastPoint */
SHP[1]	/* ShiftPointByLastPoint */
DELTAP1[ ]	/* DeltaExceptionP1 */
DELTAP1[ ]	/* DeltaExceptionP1 */
SVTCA[1]	/* SetFreedomAndProjectionVectorToAxis */
SRP0[ ]	/* SetRefPoint0 */
MIRP[00110]	/* MoveIndirectRelPt */
SHP[0]	/* ShiftPointByLastPoint */
DELTAP1[ ]	/* DeltaExceptionP1 */
SRP1[ ]	/* SetRefPoint1 */
SHP[1]	/* ShiftPointByLastPoint */
MDAP[1]	/* MoveDirectAbsPt */
DELTAP1[ ]	/* DeltaExceptionP1 */
SHP[1]	/* ShiftPointByLastPoint */
SHP[1]	/* ShiftPointByLastPoint */
IUP[1]	/* InterpolateUntPts */
IUP[0]	/* InterpolateUntPts */";
};
width = 534;
}
);
note = uni0043;
unicode = 0043;
},
{
color = 10;
glyphname = D;
lastChange = "2022-01-06 02:32:25 +0000";
layers = (
{
layerId = "4397B867-53E7-4964-BB9B-A578920F109C";
paths = (
{
closed = 1;
nodes = (
"275 0 LINE SMOOTH",
"450 0 OFFCURVE",
"536 112 OFFCURVE",
"536 286 CURVE SMOOTH",
"536 468 OFFCURVE",
"440 571 OFFCURVE",
"275 571 CURVE SMOOTH",
"30 571 LINE",
"30 538 LINE",
"41 538 LINE SMOOTH",
"75 538 OFFCURVE",
"106 531 OFFCURVE",
"106 483 CURVE SMOOTH",
"106 91 LINE SMOOTH",
"106 42 OFFCURVE",
"78 34 OFFCURVE",
"41 34 CURVE SMOOTH",
"30 34 LINE",
"30 0 LINE"
);
},
{
closed = 1;
nodes = (
"187 531 LINE",
"258 531 LINE SMOOTH",
"384 531 OFFCURVE",
"447 445 OFFCURVE",
"447 286 CURVE SMOOTH",
"447 129 OFFCURVE",
"384 41 OFFCURVE",
"257 41 CURVE SMOOTH",
"187 41 LINE"
);
}
);
userData = {
assembly = "NPUSHB[ ]	/* 22 values pushed */
32 91 0 103 39 37 90 13 100 38 36 94 20 93 21 3 37 94 7 93 6 18 
SVTCA[0]	/* SetFreedomAndProjectionVectorToAxis */
MIAP[1]	/* MoveIndirectAbsPt */
MIRP[00001]	/* MoveIndirectRelPt */
MIRP[00001]	/* MoveIndirectRelPt */
MIAP[1]	/* MoveIndirectAbsPt */
MIRP[00001]	/* MoveIndirectRelPt */
MIRP[00001]	/* MoveIndirectRelPt */
SVTCA[1]	/* SetFreedomAndProjectionVectorToAxis */
SRP0[ ]	/* SetRefPoint0 */
MIRP[10100]	/* MoveIndirectRelPt */
MIRP[00001]	/* MoveIndirectRelPt */
SRP0[ ]	/* SetRefPoint0 */
MIRP[10110]	/* MoveIndirectRelPt */
MIRP[00001]	/* MoveIndirectRelPt */
IUP[1]	/* InterpolateUntPts */
IUP[0]	/* InterpolateUntPts */";
};
width = 582;
},
{
layerId = "0ED38B93-C2B0-4B4A-9C6D-D7838A33C317";
paths = (
{
closed = 1;
nodes = (
"286 0 LINE SMOOTH",
"474 0 OFFCURVE",
"570 122 OFFCURVE",
"570 296 CURVE SMOOTH",
"570 478 OFFCURVE",
"463 571 OFFCURVE",
"286 571 CURVE SMOOTH",
"22 571 LINE",
"22 529 LINE",
"56 529 LINE SMOOTH",
"80 529 OFFCURVE",
"97 521 OFFCURVE",
"97 480 CURVE SMOOTH",
"97 94 LINE SMOOTH",
"97 50 OFFCURVE",
"80 42 OFFCURVE",
"56 42 CURVE SMOOTH",
"22 42 LINE",
"22 0 LINE"
);
},
{
closed = 1;
nodes = (
"223 522 LINE",
"269 522 LINE SMOOTH",
"378 522 OFFCURVE",
"434 449 OFFCURVE",
"434 296 CURVE SMOOTH",
"434 170 OFFCURVE",
"394 50 OFFCURVE",
"268 50 CURVE SMOOTH",
"223 50 LINE"
);
}
);
userData = {
assembly = "NPUSHB[ ]	/* 28 values pushed */
72 27 1 27 0 103 39 47 39 127 39 191 39 3 32 13 100 38 31 20 20 21 3 32 7 7 6 18 
SVTCA[0]	/* SetFreedomAndProjectionVectorToAxis */
MIAP[1]	/* MoveIndirectAbsPt */
SHP[1]	/* ShiftPointByLastPoint */
SRP1[ ]	/* SetRefPoint1 */
SHP[1]	/* ShiftPointByLastPoint */
MIAP[1]	/* MoveIndirectAbsPt */
SHP[1]	/* ShiftPointByLastPoint */
SRP1[ ]	/* SetRefPoint1 */
SHP[1]	/* ShiftPointByLastPoint */
SVTCA[1]	/* SetFreedomAndProjectionVectorToAxis */
SRP0[ ]	/* SetRefPoint0 */
MIRP[00100]	/* MoveIndirectRelPt */
SHP[0]	/* ShiftPointByLastPoint */
DELTAP1[ ]	/* DeltaExceptionP1 */
SRP0[ ]	/* SetRefPoint0 */
MIRP[00110]	/* MoveIndirectRelPt */
SHP[0]	/* ShiftPointByLastPoint */
DELTAP1[ ]	/* DeltaExceptionP1 */
IUP[1]	/* InterpolateUntPts */
IUP[0]	/* InterpolateUntPts */";
};
width = 614;
}
);
note = uni0044;
unicode = 0044;
},
{
color = 10;
glyphname = E;
lastChange = "2022-01-06 02:32:25 +0000";
layers = (
{
layerId = "4397B867-53E7-4964-BB9B-A578920F109C";
paths = (
{
closed = 1;
nodes = (
"459 0 LINE",
"465 140 LINE",
"423 140 LINE",
"418 106 LINE SMOOTH",
"412 70 OFFCURVE",
"391 40 OFFCURVE",
"342 40 CURVE SMOOTH",
"187 40 LINE",
"187 279 LINE",
"380 279 LINE",
"380 318 LINE",
"187 318 LINE",
"187 531 LINE",
"322 531 LINE SMOOTH",
"370 531 OFFCURVE",
"388 501 OFFCURVE",
"392 466 CURVE SMOOTH",
"396 431 LINE",
"438 431 LINE",
"434 571 LINE",
"30 571 LINE",
"30 538 LINE",
"41 538 LINE SMOOTH",
"78 538 OFFCURVE",
"106 530 OFFCURVE",
"106 480 CURVE SMOOTH",
"106 87 LINE SMOOTH",
"106 40 OFFCURVE",
"77 34 OFFCURVE",
"41 34 CURVE SMOOTH",
"30 34 LINE",
"30 0 LINE"
);
}
);
userData = {
assembly = "NPUSHB[ ]	/* 49 values pushed */
38 38 17 8 28 250 111 27 1 27 7 250 8 41 36 0 90 17 100 40 39 94 36 249 36 1 47 36 1 7 36 28 28 36 7 3 11 35 94 24 93 25 3 11 93 0 94 10 18 
SVTCA[0]	/* SetFreedomAndProjectionVectorToAxis */
MIAP[1]	/* MoveIndirectAbsPt */
MIRP[00001]	/* MoveIndirectRelPt */
MIRP[00001]	/* MoveIndirectRelPt */
MIAP[1]	/* MoveIndirectAbsPt */
MIRP[00001]	/* MoveIndirectRelPt */
MIRP[00001]	/* MoveIndirectRelPt */
SRP2[ ]	/* SetRefPoint2 */
SLOOP[ ]	/* SetLoopVariable */
IP[ ]	/* InterpolatePts */
MDAP[1]	/* MoveDirectAbsPt */
MDAP[1]	/* MoveDirectAbsPt */
MDAP[1]	/* MoveDirectAbsPt */
DELTAP1[ ]	/* DeltaExceptionP1 */
DELTAP1[ ]	/* DeltaExceptionP1 */
SRP0[ ]	/* SetRefPoint0 */
MIRP[00001]	/* MoveIndirectRelPt */
SVTCA[1]	/* SetFreedomAndProjectionVectorToAxis */
SRP0[ ]	/* SetRefPoint0 */
MIRP[10100]	/* MoveIndirectRelPt */
MIRP[00001]	/* MoveIndirectRelPt */
SHP[0]	/* ShiftPointByLastPoint */
SRP0[ ]	/* SetRefPoint0 */
MDRP[11110]	/* MoveDirectRelPt */
MIRP[00001]	/* MoveIndirectRelPt */
MDRP[10110]	/* MoveDirectRelPt */
DELTAP1[ ]	/* DeltaExceptionP1 */
MIRP[00001]	/* MoveIndirectRelPt */
SRP1[ ]	/* SetRefPoint1 */
SRP2[ ]	/* SetRefPoint2 */
IP[ ]	/* InterpolatePts */
MDAP[1]	/* MoveDirectAbsPt */
IUP[1]	/* InterpolateUntPts */
IUP[0]	/* InterpolateUntPts */";
};
width = 498;
},
{
layerId = "0ED38B93-C2B0-4B4A-9C6D-D7838A33C317";
paths = (
{
closed = 1;
nodes = (
"491 0 LINE",
"497 147 LINE",
"442 147 LINE",
"435 110 LINE SMOOTH",
"430 74 OFFCURVE",
"416 49 OFFCURVE",
"384 49 CURVE SMOOTH",
"224 49 LINE",
"224 274 LINE",
"414 274 LINE",
"414 322 LINE",
"224 322 LINE",
"224 522 LINE",
"358 522 LINE SMOOTH",
"391 522 OFFCURVE",
"406 501 OFFCURVE",
"410 462 CURVE SMOOTH",
"414 424 LINE",
"470 424 LINE",
"466 571 LINE",
"22 571 LINE",
"22 529 LINE",
"56 529 LINE SMOOTH",
"80 529 OFFCURVE",
"97 521 OFFCURVE",
"97 477 CURVE SMOOTH",
"97 90 LINE SMOOTH",
"97 50 OFFCURVE",
"80 42 OFFCURVE",
"56 42 CURVE SMOOTH",
"22 42 LINE",
"22 0 LINE"
);
}
);
userData = {
assembly = "NPUSHB[ ]	/* 55 values pushed */
28 35 64 27 1 27 27 0 7 8 64 16 19 72 0 8 16 8 2 8 8 39 34 0 0 17 100 38 33 24 24 25 37 34 207 34 1 152 34 1 7 34 28 28 34 7 3 11 25 3 0 11 11 10 18 
SVTCA[0]	/* SetFreedomAndProjectionVectorToAxis */
MIAP[1]	/* MoveIndirectAbsPt */
SHP[1]	/* ShiftPointByLastPoint */
SRP1[ ]	/* SetRefPoint1 */
SHP[1]	/* ShiftPointByLastPoint */
MIAP[1]	/* MoveIndirectAbsPt */
SRP2[ ]	/* SetRefPoint2 */
SLOOP[ ]	/* SetLoopVariable */
IP[ ]	/* InterpolatePts */
MDAP[1]	/* MoveDirectAbsPt */
MDAP[1]	/* MoveDirectAbsPt */
MDAP[1]	/* MoveDirectAbsPt */
DELTAP1[ ]	/* DeltaExceptionP1 */
DELTAP1[ ]	/* DeltaExceptionP1 */
SRP1[ ]	/* SetRefPoint1 */
SHP[1]	/* ShiftPointByLastPoint */
SRP1[ ]	/* SetRefPoint1 */
SHP[1]	/* ShiftPointByLastPoint */
SRP1[ ]	/* SetRefPoint1 */
SHP[1]	/* ShiftPointByLastPoint */
SVTCA[1]	/* SetFreedomAndProjectionVectorToAxis */
SRP0[ ]	/* SetRefPoint0 */
MIRP[00100]	/* MoveIndirectRelPt */
SHP[0]	/* ShiftPointByLastPoint */
SRP1[ ]	/* SetRefPoint1 */
SHP[1]	/* ShiftPointByLastPoint */
SRP1[ ]	/* SetRefPoint1 */
SHP[1]	/* ShiftPointByLastPoint */
MDAP[1]	/* MoveDirectAbsPt */
DELTAP1[ ]	/* DeltaExceptionP1 */
CALL[ ]	/* CallFunction */
SHP[1]	/* ShiftPointByLastPoint */
SRP2[ ]	/* SetRefPoint2 */
IP[ ]	/* InterpolatePts */
MDAP[1]	/* MoveDirectAbsPt */
DELTAP1[ ]	/* DeltaExceptionP1 */
IP[ ]	/* InterpolatePts */
SHP[1]	/* ShiftPointByLastPoint */
IUP[1]	/* InterpolateUntPts */
IUP[0]	/* InterpolateUntPts */";
};
width = 522;
}
);
note = uni0045;
unicode = 0045;
},
{
color = 10;
glyphname = F;
lastChange = "2022-01-06 02:32:25 +0000";
layers = (
{
layerId = "4397B867-53E7-4964-BB9B-A578920F109C";
paths = (
{
closed = 1;
nodes = (
"279 0 LINE",
"279 34 LINE",
"253 34 LINE SMOOTH",
"218 34 OFFCURVE",
"187 41 OFFCURVE",
"187 91 CURVE SMOOTH",
"187 261 LINE",
"380 261 LINE",
"380 300 LINE",
"187 300 LINE",
"187 531 LINE",
"318 531 LINE SMOOTH",
"369 531 OFFCURVE",
"388 502 OFFCURVE",
"392 466 CURVE SMOOTH",
"396 431 LINE",
"438 431 LINE",
"434 571 LINE",
"30 571 LINE",
"30 538 LINE",
"41 538 LINE SMOOTH",
"75 538 OFFCURVE",
"106 531 OFFCURVE",
"106 483 CURVE SMOOTH",
"106 87 LINE SMOOTH",
"106 40 OFFCURVE",
"77 34 OFFCURVE",
"41 34 CURVE SMOOTH",
"30 34 LINE",
"30 0 LINE"
);
}
);
userData = {
assembly = "NPUSHB[ ]	/* 43 values pushed */
3 3 20 31 250 30 39 15 39 47 39 95 39 3 1 5 90 20 100 38 4 94 47 1 95 1 2 1 31 1 31 14 27 93 0 94 28 3 10 14 93 13 18 
SVTCA[0]	/* SetFreedomAndProjectionVectorToAxis */
MIAP[1]	/* MoveIndirectAbsPt */
MIRP[00001]	/* MoveIndirectRelPt */
SHP[0]	/* ShiftPointByLastPoint */
MIAP[1]	/* MoveIndirectAbsPt */
MIRP[00001]	/* MoveIndirectRelPt */
MIRP[00001]	/* MoveIndirectRelPt */
SRP2[ ]	/* SetRefPoint2 */
IP[ ]	/* InterpolatePts */
IP[ ]	/* InterpolatePts */
MDAP[1]	/* MoveDirectAbsPt */
MDAP[1]	/* MoveDirectAbsPt */
DELTAP1[ ]	/* DeltaExceptionP1 */
MIRP[00001]	/* MoveIndirectRelPt */
SVTCA[1]	/* SetFreedomAndProjectionVectorToAxis */
SRP0[ ]	/* SetRefPoint0 */
MIRP[10100]	/* MoveIndirectRelPt */
MIRP[00001]	/* MoveIndirectRelPt */
SHP[0]	/* ShiftPointByLastPoint */
DELTAP1[ ]	/* DeltaExceptionP1 */
SRP0[ ]	/* SetRefPoint0 */
MDRP[11110]	/* MoveDirectRelPt */
MIRP[00001]	/* MoveIndirectRelPt */
SRP2[ ]	/* SetRefPoint2 */
IP[ ]	/* InterpolatePts */
MDAP[1]	/* MoveDirectAbsPt */
IUP[1]	/* InterpolateUntPts */
IUP[0]	/* InterpolateUntPts */";
};
width = 472;
},
{
layerId = "0ED38B93-C2B0-4B4A-9C6D-D7838A33C317";
paths = (
{
closed = 1;
nodes = (
"314 0 LINE",
"314 42 LINE",
"265 42 LINE SMOOTH",
"241 42 OFFCURVE",
"223 50 OFFCURVE",
"223 94 CURVE SMOOTH",
"223 257 LINE",
"413 257 LINE",
"413 304 LINE",
"223 304 LINE",
"223 522 LINE",
"350 522 LINE SMOOTH",
"383 522 OFFCURVE",
"405 505 OFFCURVE",
"410 462 CURVE SMOOTH",
"414 424 LINE",
"470 424 LINE",
"466 571 LINE",
"22 571 LINE",
"22 529 LINE",
"56 529 LINE SMOOTH",
"80 529 OFFCURVE",
"97 521 OFFCURVE",
"97 480 CURVE SMOOTH",
"97 90 LINE SMOOTH",
"97 50 OFFCURVE",
"80 42 OFFCURVE",
"56 42 CURVE SMOOTH",
"22 42 LINE",
"22 0 LINE"
);
}
);
userData = {
assembly = "NPUSHB[ ]	/* 74 values pushed */
63 37 239 37 2 37 64 15 18 72 7 35 6 10 10 25 100 36 0 176 35 1 127 35 143 35 2 64 35 1 47 35 1 35 9 175 6 191 6 207 6 239 6 255 6 5 152 6 1 47 6 95 6 127 6 143 6 4 6 0 6 0 19 33 5 32 32 33 3 15 19 19 18 18 
SVTCA[0]	/* SetFreedomAndProjectionVectorToAxis */
MIAP[1]	/* MoveIndirectAbsPt */
SHP[1]	/* ShiftPointByLastPoint */
SRP1[ ]	/* SetRefPoint1 */
SHP[1]	/* ShiftPointByLastPoint */
MIAP[1]	/* MoveIndirectAbsPt */
SHP[1]	/* ShiftPointByLastPoint */
SRP1[ ]	/* SetRefPoint1 */
SHP[1]	/* ShiftPointByLastPoint */
SRP1[ ]	/* SetRefPoint1 */
SRP2[ ]	/* SetRefPoint2 */
IP[ ]	/* InterpolatePts */
IP[ ]	/* InterpolatePts */
MDAP[1]	/* MoveDirectAbsPt */
MDAP[1]	/* MoveDirectAbsPt */
DELTAP1[ ]	/* DeltaExceptionP1 */
DELTAP1[ ]	/* DeltaExceptionP1 */
DELTAP1[ ]	/* DeltaExceptionP1 */
SHP[1]	/* ShiftPointByLastPoint */
SVTCA[1]	/* SetFreedomAndProjectionVectorToAxis */
MDAP[1]	/* MoveDirectAbsPt */
DELTAP1[ ]	/* DeltaExceptionP1 */
DELTAP1[ ]	/* DeltaExceptionP1 */
DELTAP1[ ]	/* DeltaExceptionP1 */
DELTAP1[ ]	/* DeltaExceptionP1 */
SHP[1]	/* ShiftPointByLastPoint */
SRP0[ ]	/* SetRefPoint0 */
MIRP[00100]	/* MoveIndirectRelPt */
SHP[0]	/* ShiftPointByLastPoint */
SRP1[ ]	/* SetRefPoint1 */
SHP[1]	/* ShiftPointByLastPoint */
SRP2[ ]	/* SetRefPoint2 */
IP[ ]	/* InterpolatePts */
CALL[ ]	/* CallFunction */
DELTAP1[ ]	/* DeltaExceptionP1 */
IUP[1]	/* InterpolateUntPts */
IUP[0]	/* InterpolateUntPts */";
};
width = 497;
}
);
note = uni0046;
unicode = 0046;
},
{
color = 10;
glyphname = G;
lastChange = "2022-01-06 02:32:25 +0000";
layers = (
{
layerId = "4397B867-53E7-4964-BB9B-A578920F109C";
paths = (
{
closed = 1;
nodes = (
"390 -8 OFFCURVE",
"444 4 OFFCURVE",
"498 29 CURVE",
"498 173 LINE SMOOTH",
"498 222 OFFCURVE",
"522 230 OFFCURVE",
"553 230 CURVE SMOOTH",
"556 230 LINE",
"556 264 LINE",
"348 264 LINE",
"348 230 LINE",
"351 230 LINE SMOOTH",
"387 230 OFFCURVE",
"417 222 OFFCURVE",
"417 176 CURVE SMOOTH",
"417 47 LINE",
"394 41 OFFCURVE",
"364 38 OFFCURVE",
"334 38 CURVE SMOOTH",
"261 38 OFFCURVE",
"211 60 OFFCURVE",
"179 102 CURVE SMOOTH",
"147 144 OFFCURVE",
"134 206 OFFCURVE",
"134 286 CURVE SMOOTH",
"134 431 OFFCURVE",
"176 537 OFFCURVE",
"322 537 CURVE SMOOTH",
"401 537 OFFCURVE",
"428 483 OFFCURVE",
"428 434 CURVE",
"468 434 OFFCURVE",
"502 454 OFFCURVE",
"502 490 CURVE SMOOTH",
"502 540 OFFCURVE",
"445 579 OFFCURVE",
"326 579 CURVE SMOOTH",
"140 579 OFFCURVE",
"46 458 OFFCURVE",
"46 286 CURVE SMOOTH",
"46 110 OFFCURVE",
"134 -8 OFFCURVE",
"321 -8 CURVE SMOOTH"
);
}
);
userData = {
assembly = "PUSHB[ ]	/* 5 values pushed */
20 15 38 90 55 
PUSHW[ ]	/* 1 value pushed */
-64 
NPUSHB[ ]	/* 28 values pushed */
10 16 72 55 59 127 59 1 30 91 5 102 58 48 44 93 46 46 35 25 95 20 10 4 35 95 0 19 
SVTCA[0]	/* SetFreedomAndProjectionVectorToAxis */
MIAP[1]	/* MoveIndirectAbsPt */
MIRP[00001]	/* MoveIndirectRelPt */
MIAP[1]	/* MoveIndirectAbsPt */
MDRP[01100]	/* MoveDirectRelPt */
MIRP[00001]	/* MoveIndirectRelPt */
SRP2[ ]	/* SetRefPoint2 */
IP[ ]	/* InterpolatePts */
MDAP[1]	/* MoveDirectAbsPt */
MIRP[00001]	/* MoveIndirectRelPt */
SHP[0]	/* ShiftPointByLastPoint */
SVTCA[1]	/* SetFreedomAndProjectionVectorToAxis */
SRP0[ ]	/* SetRefPoint0 */
MIRP[10110]	/* MoveIndirectRelPt */
MIRP[00001]	/* MoveIndirectRelPt */
DELTAP1[ ]	/* DeltaExceptionP1 */
SRP0[ ]	/* SetRefPoint0 */
MDRP[11110]	/* MoveDirectRelPt */
CALL[ ]	/* CallFunction */
MIRP[00001]	/* MoveIndirectRelPt */
MDRP[10100]	/* MoveDirectRelPt */
MDRP[01001]	/* MoveDirectRelPt */
IUP[1]	/* InterpolateUntPts */
IUP[0]	/* InterpolateUntPts */";
};
width = 571;
},
{
layerId = "0ED38B93-C2B0-4B4A-9C6D-D7838A33C317";
paths = (
{
closed = 1;
nodes = (
"411 -8 OFFCURVE",
"473 6 OFFCURVE",
"535 35 CURVE",
"535 166 LINE SMOOTH",
"535 213 OFFCURVE",
"550 226 OFFCURVE",
"582 226 CURVE SMOOTH",
"593 226 LINE",
"593 269 LINE",
"342 269 LINE",
"342 226 LINE",
"352 226 LINE SMOOTH",
"390 226 OFFCURVE",
"409 212 OFFCURVE",
"409 170 CURVE SMOOTH",
"409 52 LINE",
"390 48 OFFCURVE",
"370 46 OFFCURVE",
"350 46 CURVE SMOOTH",
"287 46 OFFCURVE",
"245 68 OFFCURVE",
"218 109 CURVE SMOOTH",
"190 150 OFFCURVE",
"178 210 OFFCURVE",
"178 286 CURVE SMOOTH",
"178 442 OFFCURVE",
"223 528 OFFCURVE",
"340 528 CURVE SMOOTH",
"408 528 OFFCURVE",
"439 483 OFFCURVE",
"439 418 CURVE",
"505 418 OFFCURVE",
"542 447 OFFCURVE",
"542 486 CURVE SMOOTH",
"542 538 OFFCURVE",
"477 579 OFFCURVE",
"342 579 CURVE SMOOTH",
"147 579 OFFCURVE",
"44 459 OFFCURVE",
"44 286 CURVE SMOOTH",
"44 111 OFFCURVE",
"138 -8 OFFCURVE",
"338 -8 CURVE SMOOTH"
);
}
);
userData = {
assembly = "NPUSHB[ ]	/* 60 values pushed */
30 5 102 56 20 15 15 38 48 53 64 53 80 53 176 53 192 53 208 53 6 53 57 47 57 127 57 191 57 207 57 223 57 5 47 43 43 15 44 31 44 2 44 44 35 201 20 1 40 20 120 20 2 20 25 10 4 35 0 19 
SVTCA[0]	/* SetFreedomAndProjectionVectorToAxis */
MIAP[1]	/* MoveIndirectAbsPt */
SHP[0]	/* ShiftPointByLastPoint */
MIAP[1]	/* MoveIndirectAbsPt */
SHP[1]	/* ShiftPointByLastPoint */
SHP[1]	/* ShiftPointByLastPoint */
DELTAP1[ ]	/* DeltaExceptionP1 */
DELTAP1[ ]	/* DeltaExceptionP1 */
SRP2[ ]	/* SetRefPoint2 */
IP[ ]	/* InterpolatePts */
MDAP[1]	/* MoveDirectAbsPt */
DELTAP1[ ]	/* DeltaExceptionP1 */
SHP[1]	/* ShiftPointByLastPoint */
SRP1[ ]	/* SetRefPoint1 */
SHP[1]	/* ShiftPointByLastPoint */
SVTCA[1]	/* SetFreedomAndProjectionVectorToAxis */
DELTAP1[ ]	/* DeltaExceptionP1 */
SRP0[ ]	/* SetRefPoint0 */
MDRP[00110]	/* MoveDirectRelPt */
DELTAP1[ ]	/* DeltaExceptionP1 */
SHP[0]	/* ShiftPointByLastPoint */
SHP[0]	/* ShiftPointByLastPoint */
SRP1[ ]	/* SetRefPoint1 */
SHP[1]	/* ShiftPointByLastPoint */
SRP0[ ]	/* SetRefPoint0 */
MIRP[00110]	/* MoveIndirectRelPt */
SHP[0]	/* ShiftPointByLastPoint */
IUP[1]	/* InterpolateUntPts */
IUP[0]	/* InterpolateUntPts */";
};
width = 615;
}
);
note = uni0047;
unicode = 0047;
},
{
color = 10;
glyphname = H;
lastChange = "2022-01-06 02:32:25 +0000";
layers = (
{
layerId = "4397B867-53E7-4964-BB9B-A578920F109C";
paths = (
{
closed = 1;
nodes = (
"263 0 LINE",
"263 34 LINE",
"253 34 LINE SMOOTH",
"218 34 OFFCURVE",
"187 41 OFFCURVE",
"187 91 CURVE SMOOTH",
"187 278 LINE",
"447 278 LINE",
"447 91 LINE SMOOTH",
"447 41 OFFCURVE",
"418 34 OFFCURVE",
"382 34 CURVE SMOOTH",
"371 34 LINE",
"371 0 LINE",
"604 0 LINE",
"604 34 LINE",
"594 34 LINE SMOOTH",
"558 34 OFFCURVE",
"528 40 OFFCURVE",
"528 87 CURVE SMOOTH",
"528 480 LINE SMOOTH",
"528 530 OFFCURVE",
"557 538 OFFCURVE",
"594 538 CURVE SMOOTH",
"604 538 LINE",
"604 571 LINE",
"371 571 LINE",
"371 538 LINE",
"382 538 LINE SMOOTH",
"418 538 OFFCURVE",
"447 530 OFFCURVE",
"447 480 CURVE SMOOTH",
"447 318 LINE",
"187 318 LINE",
"187 480 LINE SMOOTH",
"187 530 OFFCURVE",
"218 538 OFFCURVE",
"253 538 CURVE SMOOTH",
"263 538 LINE",
"263 571 LINE",
"30 571 LINE",
"30 538 LINE",
"41 538 LINE SMOOTH",
"75 538 OFFCURVE",
"106 531 OFFCURVE",
"106 483 CURVE SMOOTH",
"106 91 LINE SMOOTH",
"106 42 OFFCURVE",
"78 34 OFFCURVE",
"41 34 CURVE SMOOTH",
"30 34 LINE",
"30 0 LINE"
);
}
);
userData = {
assembly = "NPUSHB[ ]	/* 39 values pushed */
43 7 90 60 101 69 42 10 90 25 100 68 9 94 249 42 1 47 42 1 42 42 19 54 50 36 32 93 51 33 3 65 15 1 19 93 0 18 18 
SVTCA[0]	/* SetFreedomAndProjectionVectorToAxis */
MIAP[1]	/* MoveIndirectAbsPt */
SHP[1]	/* ShiftPointByLastPoint */
MIRP[00001]	/* MoveIndirectRelPt */
SHP[0]	/* ShiftPointByLastPoint */
SHP[0]	/* ShiftPointByLastPoint */
SHP[0]	/* ShiftPointByLastPoint */
MIAP[1]	/* MoveIndirectAbsPt */
SHP[1]	/* ShiftPointByLastPoint */
MIRP[00001]	/* MoveIndirectRelPt */
SHP[0]	/* ShiftPointByLastPoint */
SHP[0]	/* ShiftPointByLastPoint */
SHP[0]	/* ShiftPointByLastPoint */
SRP2[ ]	/* SetRefPoint2 */
IP[ ]	/* InterpolatePts */
MDAP[1]	/* MoveDirectAbsPt */
DELTAP1[ ]	/* DeltaExceptionP1 */
DELTAP1[ ]	/* DeltaExceptionP1 */
MIRP[00001]	/* MoveIndirectRelPt */
SVTCA[1]	/* SetFreedomAndProjectionVectorToAxis */
SRP0[ ]	/* SetRefPoint0 */
MIRP[10100]	/* MoveIndirectRelPt */
MIRP[00001]	/* MoveIndirectRelPt */
SHP[0]	/* ShiftPointByLastPoint */
SRP0[ ]	/* SetRefPoint0 */
MIRP[10100]	/* MoveIndirectRelPt */
MIRP[00001]	/* MoveIndirectRelPt */
SHP[0]	/* ShiftPointByLastPoint */
IUP[1]	/* InterpolateUntPts */
IUP[0]	/* InterpolateUntPts */";
};
width = 634;
},
{
layerId = "0ED38B93-C2B0-4B4A-9C6D-D7838A33C317";
paths = (
{
closed = 1;
nodes = (
"298 0 LINE",
"298 42 LINE",
"264 42 LINE SMOOTH",
"241 42 OFFCURVE",
"223 50 OFFCURVE",
"223 94 CURVE SMOOTH",
"223 274 LINE",
"432 274 LINE",
"432 94 LINE SMOOTH",
"432 50 OFFCURVE",
"415 42 OFFCURVE",
"391 42 CURVE SMOOTH",
"357 42 LINE",
"357 0 LINE",
"633 0 LINE",
"633 42 LINE",
"599 42 LINE SMOOTH",
"576 42 OFFCURVE",
"558 50 OFFCURVE",
"558 90 CURVE SMOOTH",
"558 477 LINE SMOOTH",
"558 521 OFFCURVE",
"576 529 OFFCURVE",
"599 529 CURVE SMOOTH",
"633 529 LINE",
"633 571 LINE",
"357 571 LINE",
"357 529 LINE",
"391 529 LINE SMOOTH",
"415 529 OFFCURVE",
"432 521 OFFCURVE",
"432 477 CURVE SMOOTH",
"432 322 LINE",
"223 322 LINE",
"223 477 LINE SMOOTH",
"223 522 OFFCURVE",
"241 529 OFFCURVE",
"264 529 CURVE SMOOTH",
"298 529 LINE",
"298 571 LINE",
"22 571 LINE",
"22 529 LINE",
"56 529 LINE SMOOTH",
"78 529 OFFCURVE",
"97 522 OFFCURVE",
"97 480 CURVE SMOOTH",
"97 94 LINE SMOOTH",
"97 50 OFFCURVE",
"80 42 OFFCURVE",
"56 42 CURVE SMOOTH",
"22 42 LINE",
"22 0 LINE"
);
}
);
userData = {
assembly = "NPUSHB[ ]	/* 52 values pushed */
43 7 7 60 101 69 160 69 1 111 69 127 69 2 64 69 1 42 10 10 25 100 68 9 207 42 1 152 42 1 42 42 19 33 36 50 54 3 32 32 51 33 3 1 15 65 3 19 19 0 18 18 
SVTCA[0]	/* SetFreedomAndProjectionVectorToAxis */
MIAP[1]	/* MoveIndirectAbsPt */
SHP[1]	/* ShiftPointByLastPoint */
SHP[1]	/* ShiftPointByLastPoint */
SRP1[ ]	/* SetRefPoint1 */
SLOOP[ ]	/* SetLoopVariable */
SHP[1]	/* ShiftPointByLastPoint */
MIAP[1]	/* MoveIndirectAbsPt */
SHP[1]	/* ShiftPointByLastPoint */
SHP[1]	/* ShiftPointByLastPoint */
SRP1[ ]	/* SetRefPoint1 */
SLOOP[ ]	/* SetLoopVariable */
SHP[1]	/* ShiftPointByLastPoint */
SRP1[ ]	/* SetRefPoint1 */
SRP2[ ]	/* SetRefPoint2 */
IP[ ]	/* InterpolatePts */
MDAP[1]	/* MoveDirectAbsPt */
DELTAP1[ ]	/* DeltaExceptionP1 */
DELTAP1[ ]	/* DeltaExceptionP1 */
SHP[1]	/* ShiftPointByLastPoint */
SVTCA[1]	/* SetFreedomAndProjectionVectorToAxis */
SRP0[ ]	/* SetRefPoint0 */
MIRP[00100]	/* MoveIndirectRelPt */
SHP[0]	/* ShiftPointByLastPoint */
SRP1[ ]	/* SetRefPoint1 */
SHP[1]	/* ShiftPointByLastPoint */
DELTAP1[ ]	/* DeltaExceptionP1 */
DELTAP1[ ]	/* DeltaExceptionP1 */
DELTAP1[ ]	/* DeltaExceptionP1 */
SRP0[ ]	/* SetRefPoint0 */
MIRP[00100]	/* MoveIndirectRelPt */
SHP[0]	/* ShiftPointByLastPoint */
SRP1[ ]	/* SetRefPoint1 */
SHP[1]	/* ShiftPointByLastPoint */
IUP[1]	/* InterpolateUntPts */
IUP[0]	/* InterpolateUntPts */";
};
width = 655;
}
);
note = uni0048;
unicode = 0048;
},
{
color = 10;
glyphname = I;
lastChange = "2022-01-06 02:32:25 +0000";
layers = (
{
layerId = "4397B867-53E7-4964-BB9B-A578920F109C";
paths = (
{
closed = 1;
nodes = (
"263 0 LINE",
"263 34 LINE",
"253 34 LINE SMOOTH",
"218 34 OFFCURVE",
"187 41 OFFCURVE",
"187 91 CURVE SMOOTH",
"187 480 LINE SMOOTH",
"187 530 OFFCURVE",
"218 538 OFFCURVE",
"253 538 CURVE SMOOTH",
"263 538 LINE",
"263 571 LINE",
"30 571 LINE",
"30 538 LINE",
"41 538 LINE SMOOTH",
"78 538 OFFCURVE",
"106 530 OFFCURVE",
"106 480 CURVE SMOOTH",
"106 91 LINE SMOOTH",
"106 42 OFFCURVE",
"78 34 OFFCURVE",
"41 34 CURVE SMOOTH",
"30 34 LINE",
"30 0 LINE"
);
}
);
userData = {
assembly = "NPUSHB[ ]	/* 26 values pushed */
144 33 1 95 33 191 33 2 64 33 1 24 90 7 100 32 18 14 93 15 3 29 1 93 0 18 
SVTCA[0]	/* SetFreedomAndProjectionVectorToAxis */
MIAP[1]	/* MoveIndirectAbsPt */
MIRP[00001]	/* MoveIndirectRelPt */
SHP[0]	/* ShiftPointByLastPoint */
MIAP[1]	/* MoveIndirectAbsPt */
MIRP[00001]	/* MoveIndirectRelPt */
SHP[0]	/* ShiftPointByLastPoint */
SVTCA[1]	/* SetFreedomAndProjectionVectorToAxis */
SRP0[ ]	/* SetRefPoint0 */
MIRP[10100]	/* MoveIndirectRelPt */
MIRP[00001]	/* MoveIndirectRelPt */
DELTAP1[ ]	/* DeltaExceptionP1 */
DELTAP1[ ]	/* DeltaExceptionP1 */
DELTAP1[ ]	/* DeltaExceptionP1 */
IUP[1]	/* InterpolateUntPts */
IUP[0]	/* InterpolateUntPts */";
};
width = 294;
},
{
layerId = "0ED38B93-C2B0-4B4A-9C6D-D7838A33C317";
paths = (
{
closed = 1;
nodes = (
"298 0 LINE",
"298 42 LINE",
"265 42 LINE SMOOTH",
"241 42 OFFCURVE",
"224 50 OFFCURVE",
"224 94 CURVE SMOOTH",
"224 477 LINE SMOOTH",
"224 521 OFFCURVE",
"241 529 OFFCURVE",
"265 529 CURVE SMOOTH",
"298 529 LINE",
"298 571 LINE",
"22 571 LINE",
"22 529 LINE",
"56 529 LINE SMOOTH",
"80 529 OFFCURVE",
"97 521 OFFCURVE",
"97 477 CURVE SMOOTH",
"97 94 LINE SMOOTH",
"97 50 OFFCURVE",
"80 42 OFFCURVE",
"56 42 CURVE SMOOTH",
"22 42 LINE",
"22 0 LINE"
);
}
);
userData = {
assembly = "NPUSHB[ ]	/* 30 values pushed */
239 33 1 160 33 1 111 33 127 33 2 0 33 80 33 2 24 7 100 32 18 14 14 15 3 29 1 1 0 18 
SVTCA[0]	/* SetFreedomAndProjectionVectorToAxis */
MIAP[1]	/* MoveIndirectAbsPt */
SHP[0]	/* ShiftPointByLastPoint */
SRP1[ ]	/* SetRefPoint1 */
SHP[1]	/* ShiftPointByLastPoint */
MIAP[1]	/* MoveIndirectAbsPt */
SHP[1]	/* ShiftPointByLastPoint */
SRP1[ ]	/* SetRefPoint1 */
SHP[1]	/* ShiftPointByLastPoint */
SVTCA[1]	/* SetFreedomAndProjectionVectorToAxis */
SRP0[ ]	/* SetRefPoint0 */
MIRP[00100]	/* MoveIndirectRelPt */
SHP[0]	/* ShiftPointByLastPoint */
DELTAP1[ ]	/* DeltaExceptionP1 */
DELTAP1[ ]	/* DeltaExceptionP1 */
DELTAP1[ ]	/* DeltaExceptionP1 */
DELTAP1[ ]	/* DeltaExceptionP1 */
IUP[1]	/* InterpolateUntPts */
IUP[0]	/* InterpolateUntPts */";
};
width = 321;
}
);
note = uni0049;
unicode = 0049;
},
{
color = 10;
glyphname = J;
lastChange = "2022-01-06 02:32:25 +0000";
layers = (
{
layerId = "4397B867-53E7-4964-BB9B-A578920F109C";
paths = (
{
closed = 1;
nodes = (
"5 -192 LINE SMOOTH",
"56 -192 OFFCURVE",
"102 -182 OFFCURVE",
"134 -153 CURVE SMOOTH",
"167 -125 OFFCURVE",
"187 -78 OFFCURVE",
"187 -6 CURVE SMOOTH",
"187 480 LINE SMOOTH",
"187 530 OFFCURVE",
"218 538 OFFCURVE",
"253 538 CURVE SMOOTH",
"263 538 LINE",
"263 571 LINE",
"30 571 LINE",
"30 538 LINE",
"41 538 LINE SMOOTH",
"75 538 OFFCURVE",
"106 531 OFFCURVE",
"106 483 CURVE SMOOTH",
"106 -7 LINE SMOOTH",
"106 -94 OFFCURVE",
"86 -154 OFFCURVE",
"-2 -154 CURVE SMOOTH",
"-9 -154 LINE",
"-9 -192 LINE"
);
}
);
userData = {
assembly = "NPUSHB[ ]	/* 20 values pushed */
191 31 1 64 31 1 23 90 0 6 100 30 0 94 28 17 13 93 14 3 
SVTCA[0]	/* SetFreedomAndProjectionVectorToAxis */
MIAP[1]	/* MoveIndirectAbsPt */
MIRP[00001]	/* MoveIndirectRelPt */
SHP[0]	/* ShiftPointByLastPoint */
MDAP[1]	/* MoveDirectAbsPt */
MIRP[00001]	/* MoveIndirectRelPt */
SVTCA[1]	/* SetFreedomAndProjectionVectorToAxis */
SRP0[ ]	/* SetRefPoint0 */
MIRP[10110]	/* MoveIndirectRelPt */
MDRP[00110]	/* MoveDirectRelPt */
MIRP[00001]	/* MoveIndirectRelPt */
DELTAP1[ ]	/* DeltaExceptionP1 */
DELTAP1[ ]	/* DeltaExceptionP1 */
IUP[1]	/* InterpolateUntPts */
IUP[0]	/* InterpolateUntPts */";
};
width = 286;
},
{
layerId = "0ED38B93-C2B0-4B4A-9C6D-D7838A33C317";
paths = (
{
closed = 1;
nodes = (
"-2 -192 LINE SMOOTH",
"54 -192 OFFCURVE",
"106 -180 OFFCURVE",
"145 -151 CURVE SMOOTH",
"193 -118 OFFCURVE",
"210 -60 OFFCURVE",
"210 -2 CURVE SMOOTH",
"210 477 LINE SMOOTH",
"210 522 OFFCURVE",
"228 529 OFFCURVE",
"252 529 CURVE SMOOTH",
"286 529 LINE",
"286 571 LINE",
"10 571 LINE",
"10 529 LINE",
"43 529 LINE SMOOTH",
"67 529 OFFCURVE",
"84 521 OFFCURVE",
"84 480 CURVE SMOOTH",
"84 -2 LINE SMOOTH",
"84 -110 OFFCURVE",
"34 -146 OFFCURVE",
"-17 -146 CURVE SMOOTH",
"-31 -146 LINE",
"-31 -192 LINE"
);
}
);
userData = {
assembly = "NPUSHB[ ]	/* 31 values pushed */
63 33 111 33 127 33 143 33 191 33 239 33 255 33 7 16 7 239 22 1 0 22 1 22 1 29 29 30 3 16 15 
SVTCA[0]	/* SetFreedomAndProjectionVectorToAxis */
MDAP[1]	/* MoveDirectAbsPt */
SHP[1]	/* ShiftPointByLastPoint */
MIAP[1]	/* MoveIndirectAbsPt */
SHP[1]	/* ShiftPointByLastPoint */
SRP1[ ]	/* SetRefPoint1 */
SHP[1]	/* ShiftPointByLastPoint */
SVTCA[1]	/* SetFreedomAndProjectionVectorToAxis */
MDAP[1]	/* MoveDirectAbsPt */
DELTAP1[ ]	/* DeltaExceptionP1 */
DELTAP1[ ]	/* DeltaExceptionP1 */
SHP[1]	/* ShiftPointByLastPoint */
SHP[1]	/* ShiftPointByLastPoint */
DELTAP1[ ]	/* DeltaExceptionP1 */
IUP[1]	/* InterpolateUntPts */
IUP[0]	/* InterpolateUntPts */";
};
width = 294;
}
);
note = uni004A;
unicode = 004A;
},
{
color = 10;
glyphname = K;
lastChange = "2022-01-06 02:32:25 +0000";
layers = (
{
layerId = "4397B867-53E7-4964-BB9B-A578920F109C";
paths = (
{
closed = 1;
nodes = (
"263 0 LINE",
"263 34 LINE",
"253 34 LINE SMOOTH",
"218 34 OFFCURVE",
"187 41 OFFCURVE",
"187 91 CURVE SMOOTH",
"187 214 LINE",
"255 270 LINE",
"393 72 LINE SMOOTH",
"413 43 OFFCURVE",
"428 26 OFFCURVE",
"451 14 CURVE SMOOTH",
"475 3 OFFCURVE",
"507 0 OFFCURVE",
"561 0 CURVE SMOOTH",
"570 0 LINE",
"570 34 LINE",
"568 34 LINE SMOOTH",
"538 34 OFFCURVE",
"510 55 OFFCURVE",
"480 98 CURVE SMOOTH",
"311 333 LINE",
"427 463 LINE SMOOTH",
"467 508 OFFCURVE",
"498 538 OFFCURVE",
"534 538 CURVE",
"534 571 LINE",
"358 571 LINE",
"358 538 LINE",
"386 538 OFFCURVE",
"397 534 OFFCURVE",
"397 521 CURVE SMOOTH",
"397 503 OFFCURVE",
"384 480 OFFCURVE",
"353 444 CURVE SMOOTH",
"187 254 LINE",
"187 480 LINE SMOOTH",
"187 530 OFFCURVE",
"218 538 OFFCURVE",
"253 538 CURVE SMOOTH",
"263 538 LINE",
"263 571 LINE",
"30 571 LINE",
"30 538 LINE",
"41 538 LINE SMOOTH",
"75 538 OFFCURVE",
"106 531 OFFCURVE",
"106 483 CURVE SMOOTH",
"106 87 LINE SMOOTH",
"106 40 OFFCURVE",
"77 34 OFFCURVE",
"41 34 CURVE SMOOTH",
"30 34 LINE",
"30 0 LINE"
);
}
);
userData = {
assembly = "NPUSHB[ ]	/* 33 values pushed */
137 1 1 104 1 1 73 1 1 58 1 1 137 0 1 104 0 1 73 0 1 58 0 1 246 17 1 215 17 231 17 2 17 
PUSHW[ ]	/* 1 value pushed */
-8 
NPUSHB[ ]	/* 31 values pushed */
17 20 72 72 30 88 30 2 57 30 1 40 30 1 9 30 25 30 2 17 30 32 63 11 79 11 2 11 11 47 22 
PUSHW[ ]	/* 1 value pushed */
-64 
NPUSHB[ ]	/* 47 values pushed */
10 13 72 22 66 63 66 1 64 32 90 47 100 65 216 30 232 30 2 105 30 1 72 30 88 30 2 57 30 1 40 30 1 9 30 25 30 2 246 17 1 215 17 231 17 2 17 
PUSHW[ ]	/* 1 value pushed */
-8 
NPUSHB[ ]	/* 24 values pushed */
17 20 72 17 30 64 31 4 41 58 11 8 54 93 9 55 3 37 22 41 93 24 40 18 
SVTCA[0]	/* SetFreedomAndProjectionVectorToAxis */
MIAP[1]	/* MoveIndirectAbsPt */
SHP[1]	/* ShiftPointByLastPoint */
MIRP[00001]	/* MoveIndirectRelPt */
SHP[0]	/* ShiftPointByLastPoint */
SHP[0]	/* ShiftPointByLastPoint */
MIAP[1]	/* MoveIndirectAbsPt */
SHP[1]	/* ShiftPointByLastPoint */
MIRP[00001]	/* MoveIndirectRelPt */
SHP[0]	/* ShiftPointByLastPoint */
SHP[0]	/* ShiftPointByLastPoint */
SHP[0]	/* ShiftPointByLastPoint */
SRP1[ ]	/* SetRefPoint1 */
SLOOP[ ]	/* SetLoopVariable */
IP[ ]	/* InterpolatePts */
CALL[ ]	/* CallFunction */
DELTAP1[ ]	/* DeltaExceptionP1 */
DELTAP1[ ]	/* DeltaExceptionP1 */
DELTAP1[ ]	/* DeltaExceptionP1 */
DELTAP1[ ]	/* DeltaExceptionP1 */
DELTAP1[ ]	/* DeltaExceptionP1 */
DELTAP1[ ]	/* DeltaExceptionP1 */
DELTAP1[ ]	/* DeltaExceptionP1 */
DELTAP1[ ]	/* DeltaExceptionP1 */
SVTCA[1]	/* SetFreedomAndProjectionVectorToAxis */
SRP0[ ]	/* SetRefPoint0 */
MIRP[10100]	/* MoveIndirectRelPt */
MIRP[00001]	/* MoveIndirectRelPt */
SHP[0]	/* ShiftPointByLastPoint */
DELTAP1[ ]	/* DeltaExceptionP1 */
SRP0[ ]	/* SetRefPoint0 */
MDRP[00101]	/* MoveDirectRelPt */
CALL[ ]	/* CallFunction */
SRP1[ ]	/* SetRefPoint1 */
IP[ ]	/* InterpolatePts */
MDAP[1]	/* MoveDirectAbsPt */
DELTAP1[ ]	/* DeltaExceptionP1 */
SRP2[ ]	/* SetRefPoint2 */
IP[ ]	/* InterpolatePts */
IP[ ]	/* InterpolatePts */
DELTAP1[ ]	/* DeltaExceptionP1 */
DELTAP1[ ]	/* DeltaExceptionP1 */
DELTAP1[ ]	/* DeltaExceptionP1 */
DELTAP1[ ]	/* DeltaExceptionP1 */
CALL[ ]	/* CallFunction */
DELTAP1[ ]	/* DeltaExceptionP1 */
DELTAP1[ ]	/* DeltaExceptionP1 */
IUP[1]	/* InterpolateUntPts */
IUP[0]	/* InterpolateUntPts */
DELTAP1[ ]	/* DeltaExceptionP1 */
DELTAP1[ ]	/* DeltaExceptionP1 */
DELTAP1[ ]	/* DeltaExceptionP1 */
DELTAP1[ ]	/* DeltaExceptionP1 */
DELTAP1[ ]	/* DeltaExceptionP1 */
DELTAP1[ ]	/* DeltaExceptionP1 */
DELTAP1[ ]	/* DeltaExceptionP1 */
DELTAP1[ ]	/* DeltaExceptionP1 */";
};
width = 560;
},
{
layerId = "0ED38B93-C2B0-4B4A-9C6D-D7838A33C317";
paths = (
{
closed = 1;
nodes = (
"298 0 LINE",
"298 42 LINE",
"265 42 LINE SMOOTH",
"241 42 OFFCURVE",
"223 50 OFFCURVE",
"223 94 CURVE SMOOTH",
"223 230 LINE",
"258 258 LINE",
"366 74 LINE SMOOTH",
"381 49 OFFCURVE",
"395 30 OFFCURVE",
"420 18 CURVE SMOOTH",
"446 6 OFFCURVE",
"486 0 OFFCURVE",
"544 0 CURVE SMOOTH",
"587 0 LINE",
"587 42 LINE",
"584 42 LINE SMOOTH",
"549 42 OFFCURVE",
"523 58 OFFCURVE",
"493 107 CURVE SMOOTH",
"344 343 LINE",
"450 459 LINE SMOOTH",
"489 502 OFFCURVE",
"522 530 OFFCURVE",
"565 530 CURVE",
"565 571 LINE",
"348 571 LINE",
"348 530 LINE",
"381 530 OFFCURVE",
"393 524 OFFCURVE",
"393 506 CURVE SMOOTH",
"393 483 OFFCURVE",
"381 462 OFFCURVE",
"347 426 CURVE SMOOTH",
"223 290 LINE",
"223 477 LINE SMOOTH",
"223 522 OFFCURVE",
"241 529 OFFCURVE",
"265 529 CURVE SMOOTH",
"298 529 LINE",
"298 571 LINE",
"22 571 LINE",
"22 529 LINE",
"56 529 LINE SMOOTH",
"80 529 OFFCURVE",
"97 521 OFFCURVE",
"97 480 CURVE SMOOTH",
"97 90 LINE SMOOTH",
"97 50 OFFCURVE",
"80 42 OFFCURVE",
"56 42 CURVE SMOOTH",
"22 42 LINE",
"22 0 LINE"
);
}
);
userData = {
assembly = "NPUSHB[ ]	/* 86 values pushed */
0 70 1 10 5 26 5 2 5 16 30 20 20 24 34 17 218 17 234 17 250 17 3 6 17 70 17 86 17 150 17 182 17 5 16 17 11 68 35 6 35 22 35 2 35 51 100 69 11 111 24 143 24 159 24 3 0 24 1 24 62 11 8 58 58 59 69 17 85 17 2 17 34 34 68 45 9 59 3 41 23 45 45 26 44 18 
SVTCA[0]	/* SetFreedomAndProjectionVectorToAxis */
MIAP[1]	/* MoveIndirectAbsPt */
SHP[1]	/* ShiftPointByLastPoint */
SHP[1]	/* ShiftPointByLastPoint */
SRP1[ ]	/* SetRefPoint1 */
SHP[1]	/* ShiftPointByLastPoint */
SHP[1]	/* ShiftPointByLastPoint */
MIAP[1]	/* MoveIndirectAbsPt */
SHP[1]	/* ShiftPointByLastPoint */
SRP2[ ]	/* SetRefPoint2 */
IP[ ]	/* InterpolatePts */
IP[ ]	/* InterpolatePts */
SRP1[ ]	/* SetRefPoint1 */
SHP[1]	/* ShiftPointByLastPoint */
DELTAP1[ ]	/* DeltaExceptionP1 */
SRP1[ ]	/* SetRefPoint1 */
SHP[1]	/* ShiftPointByLastPoint */
SRP1[ ]	/* SetRefPoint1 */
SHP[1]	/* ShiftPointByLastPoint */
SHP[1]	/* ShiftPointByLastPoint */
SHP[1]	/* ShiftPointByLastPoint */
SVTCA[1]	/* SetFreedomAndProjectionVectorToAxis */
MDAP[1]	/* MoveDirectAbsPt */
DELTAP1[ ]	/* DeltaExceptionP1 */
DELTAP1[ ]	/* DeltaExceptionP1 */
SHP[1]	/* ShiftPointByLastPoint */
SRP0[ ]	/* SetRefPoint0 */
MIRP[00100]	/* MoveIndirectRelPt */
SHP[0]	/* ShiftPointByLastPoint */
DELTAP1[ ]	/* DeltaExceptionP1 */
SRP1[ ]	/* SetRefPoint1 */
SHP[1]	/* ShiftPointByLastPoint */
SRP2[ ]	/* SetRefPoint2 */
IP[ ]	/* InterpolatePts */
IP[ ]	/* InterpolatePts */
DELTAP1[ ]	/* DeltaExceptionP1 */
DELTAP1[ ]	/* DeltaExceptionP1 */
SRP1[ ]	/* SetRefPoint1 */
SHP[1]	/* ShiftPointByLastPoint */
SRP2[ ]	/* SetRefPoint2 */
IP[ ]	/* InterpolatePts */
SRP1[ ]	/* SetRefPoint1 */
SHP[1]	/* ShiftPointByLastPoint */
SRP1[ ]	/* SetRefPoint1 */
SHP[1]	/* ShiftPointByLastPoint */
DELTAP1[ ]	/* DeltaExceptionP1 */
DELTAP1[ ]	/* DeltaExceptionP1 */
IUP[1]	/* InterpolateUntPts */
IUP[0]	/* InterpolateUntPts */";
};
width = 587;
}
);
note = uni004B;
unicode = 004B;
},
{
color = 10;
glyphname = L;
lastChange = "2022-01-06 02:32:25 +0000";
layers = (
{
layerId = "4397B867-53E7-4964-BB9B-A578920F109C";
paths = (
{
closed = 1;
nodes = (
"459 0 LINE",
"465 172 LINE",
"423 172 LINE",
"415 112 LINE SMOOTH",
"411 77 OFFCURVE",
"392 40 OFFCURVE",
"345 40 CURVE SMOOTH",
"187 40 LINE",
"187 483 LINE SMOOTH",
"187 531 OFFCURVE",
"218 538 OFFCURVE",
"253 538 CURVE SMOOTH",
"263 538 LINE",
"263 571 LINE",
"30 571 LINE",
"30 538 LINE",
"41 538 LINE SMOOTH",
"78 538 OFFCURVE",
"106 530 OFFCURVE",
"106 480 CURVE SMOOTH",
"106 91 LINE SMOOTH",
"106 42 OFFCURVE",
"78 34 OFFCURVE",
"41 34 CURVE SMOOTH",
"30 34 LINE",
"30 0 LINE"
);
}
);
userData = {
assembly = "NPUSHB[ ]	/* 23 values pushed */
31 250 32 35 24 90 7 100 34 31 31 1 18 14 93 15 3 1 93 24 94 0 18 
SVTCA[0]	/* SetFreedomAndProjectionVectorToAxis */
MIAP[1]	/* MoveIndirectAbsPt */
MIRP[00001]	/* MoveIndirectRelPt */
MIRP[00001]	/* MoveIndirectRelPt */
MIAP[1]	/* MoveIndirectAbsPt */
MIRP[00001]	/* MoveIndirectRelPt */
SHP[0]	/* ShiftPointByLastPoint */
SRP2[ ]	/* SetRefPoint2 */
IP[ ]	/* InterpolatePts */
MDAP[1]	/* MoveDirectAbsPt */
SVTCA[1]	/* SetFreedomAndProjectionVectorToAxis */
SRP0[ ]	/* SetRefPoint0 */
MIRP[10100]	/* MoveIndirectRelPt */
MIRP[00001]	/* MoveIndirectRelPt */
SRP0[ ]	/* SetRefPoint0 */
MDRP[11110]	/* MoveDirectRelPt */
MIRP[00001]	/* MoveIndirectRelPt */
IUP[1]	/* InterpolateUntPts */
IUP[0]	/* InterpolateUntPts */";
};
width = 498;
},
{
layerId = "0ED38B93-C2B0-4B4A-9C6D-D7838A33C317";
paths = (
{
closed = 1;
nodes = (
"491 0 LINE",
"497 178 LINE",
"452 178 LINE",
"439 118 LINE SMOOTH",
"430 73 OFFCURVE",
"410 49 OFFCURVE",
"373 49 CURVE SMOOTH",
"224 49 LINE",
"224 480 LINE SMOOTH",
"224 522 OFFCURVE",
"242 529 OFFCURVE",
"265 529 CURVE SMOOTH",
"298 529 LINE",
"298 571 LINE",
"22 571 LINE",
"22 529 LINE",
"56 529 LINE SMOOTH",
"80 529 OFFCURVE",
"97 521 OFFCURVE",
"97 477 CURVE SMOOTH",
"97 94 LINE SMOOTH",
"97 50 OFFCURVE",
"80 42 OFFCURVE",
"56 42 CURVE SMOOTH",
"22 42 LINE",
"22 0 LINE"
);
}
);
userData = {
assembly = "NPUSHB[ ]	/* 45 values pushed */
127 33 143 33 223 33 239 33 4 64 33 1 16 33 1 29 239 30 1 0 30 64 30 80 30 3 30 24 7 100 32 29 29 1 15 18 14 14 15 3 24 1 1 0 18 
SVTCA[0]	/* SetFreedomAndProjectionVectorToAxis */
MIAP[1]	/* MoveIndirectAbsPt */
SHP[0]	/* ShiftPointByLastPoint */
SRP1[ ]	/* SetRefPoint1 */
SHP[1]	/* ShiftPointByLastPoint */
MIAP[1]	/* MoveIndirectAbsPt */
SHP[1]	/* ShiftPointByLastPoint */
SRP1[ ]	/* SetRefPoint1 */
SHP[1]	/* ShiftPointByLastPoint */
SRP1[ ]	/* SetRefPoint1 */
SRP2[ ]	/* SetRefPoint2 */
IP[ ]	/* InterpolatePts */
MDAP[1]	/* MoveDirectAbsPt */
SVTCA[1]	/* SetFreedomAndProjectionVectorToAxis */
SRP0[ ]	/* SetRefPoint0 */
MIRP[00100]	/* MoveIndirectRelPt */
SHP[0]	/* ShiftPointByLastPoint */
MDAP[1]	/* MoveDirectAbsPt */
DELTAP1[ ]	/* DeltaExceptionP1 */
DELTAP1[ ]	/* DeltaExceptionP1 */
SHP[1]	/* ShiftPointByLastPoint */
DELTAP1[ ]	/* DeltaExceptionP1 */
DELTAP1[ ]	/* DeltaExceptionP1 */
DELTAP1[ ]	/* DeltaExceptionP1 */
IUP[1]	/* InterpolateUntPts */
IUP[0]	/* InterpolateUntPts */";
};
width = 523;
}
);
note = uni004C;
unicode = 004C;
},
{
color = 10;
glyphname = M;
lastChange = "2022-01-06 02:32:25 +0000";
layers = (
{
layerId = "4397B867-53E7-4964-BB9B-A578920F109C";
paths = (
{
closed = 1;
nodes = (
"215 0 LINE",
"215 34 LINE",
"213 34 LINE SMOOTH",
"176 34 OFFCURVE",
"155 42 OFFCURVE",
"155 91 CURVE SMOOTH",
"155 510 LINE",
"341 0 LINE",
"384 0 LINE",
"567 511 LINE",
"567 84 LINE",
"565 40 OFFCURVE",
"544 34 OFFCURVE",
"510 34 CURVE SMOOTH",
"507 34 LINE",
"507 0 LINE",
"720 0 LINE",
"720 34 LINE",
"710 34 LINE SMOOTH",
"673 34 OFFCURVE",
"644 42 OFFCURVE",
"644 91 CURVE SMOOTH",
"644 480 LINE SMOOTH",
"644 530 OFFCURVE",
"673 538 OFFCURVE",
"710 538 CURVE SMOOTH",
"720 538 LINE",
"720 571 LINE",
"542 571 LINE",
"378 114 LINE",
"213 571 LINE",
"30 571 LINE",
"30 538 LINE",
"41 538 LINE SMOOTH",
"75 538 OFFCURVE",
"106 531 OFFCURVE",
"106 483 CURVE SMOOTH",
"106 87 LINE SMOOTH",
"106 40 OFFCURVE",
"77 34 OFFCURVE",
"41 34 CURVE SMOOTH",
"30 34 LINE",
"30 0 LINE"
);
}
);
userData = {
assembly = "NPUSHB[ ]	/* 78 values pushed */
39 36 1 22 36 1 24 10 1 5 36 1 9 10 1 7 9 1 38 9 37 10 36 5 12 7 90 47 101 56 15 56 31 56 2 12 251 27 100 55 41 34 93 8 11 232 11 248 11 2 137 11 201 11 2 231 37 247 37 2 134 37 198 37 2 11 37 20 38 35 3 52 21 93 10 0 20 18 
SVTCA[0]	/* SetFreedomAndProjectionVectorToAxis */
MIAP[1]	/* MoveIndirectAbsPt */
SHP[1]	/* ShiftPointByLastPoint */
SHP[1]	/* ShiftPointByLastPoint */
MIRP[00001]	/* MoveIndirectRelPt */
SHP[0]	/* ShiftPointByLastPoint */
MIAP[1]	/* MoveIndirectAbsPt */
SHP[1]	/* ShiftPointByLastPoint */
SRP2[ ]	/* SetRefPoint2 */
IP[ ]	/* InterpolatePts */
IP[ ]	/* InterpolatePts */
DELTAP1[ ]	/* DeltaExceptionP1 */
DELTAP1[ ]	/* DeltaExceptionP1 */
DELTAP1[ ]	/* DeltaExceptionP1 */
DELTAP1[ ]	/* DeltaExceptionP1 */
SRP1[ ]	/* SetRefPoint1 */
SHP[1]	/* ShiftPointByLastPoint */
MIRP[00001]	/* MoveIndirectRelPt */
SHP[0]	/* ShiftPointByLastPoint */
SVTCA[1]	/* SetFreedomAndProjectionVectorToAxis */
SRP0[ ]	/* SetRefPoint0 */
MIRP[10100]	/* MoveIndirectRelPt */
MIRP[01001]	/* MoveIndirectRelPt */
DELTAP1[ ]	/* DeltaExceptionP1 */
SRP0[ ]	/* SetRefPoint0 */
MIRP[10100]	/* MoveIndirectRelPt */
MIRP[00001]	/* MoveIndirectRelPt */
SRP1[ ]	/* SetRefPoint1 */
SLOOP[ ]	/* SetLoopVariable */
IP[ ]	/* InterpolatePts */
DELTAP1[ ]	/* DeltaExceptionP1 */
DELTAP1[ ]	/* DeltaExceptionP1 */
DELTAP1[ ]	/* DeltaExceptionP1 */
IUP[1]	/* InterpolateUntPts */
IUP[0]	/* InterpolateUntPts */
DELTAP1[ ]	/* DeltaExceptionP1 */
DELTAP1[ ]	/* DeltaExceptionP1 */
DELTAP1[ ]	/* DeltaExceptionP1 */";
};
width = 750;
},
{
layerId = "0ED38B93-C2B0-4B4A-9C6D-D7838A33C317";
paths = (
{
closed = 1;
nodes = (
"221 0 LINE",
"221 42 LINE",
"216 42 LINE SMOOTH",
"179 42 OFFCURVE",
"157 50 OFFCURVE",
"157 94 CURVE SMOOTH",
"157 492 LINE",
"326 0 LINE",
"380 0 LINE",
"542 492 LINE",
"542 87 LINE SMOOTH",
"542 49 OFFCURVE",
"525 42 OFFCURVE",
"491 42 CURVE SMOOTH",
"483 42 LINE",
"483 0 LINE",
"739 0 LINE",
"739 42 LINE",
"706 42 LINE SMOOTH",
"682 42 OFFCURVE",
"665 50 OFFCURVE",
"665 94 CURVE SMOOTH",
"665 477 LINE SMOOTH",
"665 522 OFFCURVE",
"682 529 OFFCURVE",
"706 529 CURVE SMOOTH",
"739 529 LINE",
"739 571 LINE",
"513 571 LINE",
"386 185 LINE",
"253 571 LINE",
"22 571 LINE",
"22 529 LINE",
"56 529 LINE SMOOTH",
"80 529 OFFCURVE",
"97 521 OFFCURVE",
"97 480 CURVE SMOOTH",
"97 90 LINE SMOOTH",
"97 50 OFFCURVE",
"80 42 OFFCURVE",
"56 42 CURVE SMOOTH",
"22 42 LINE",
"22 0 LINE"
);
}
);
userData = {
assembly = "PUSHW[ ]	/* 2 values pushed */
9 -8 
NPUSHB[ ]	/* 25 values pushed */
10 20 72 10 8 10 20 72 9 10 37 37 27 38 16 10 20 72 38 7 7 47 101 56 36 
PUSHW[ ]	/* 1 value pushed */
-24 
NPUSHB[ ]	/* 37 values pushed */
10 20 72 36 12 12 27 100 55 8 11 11 41 34 34 38 35 3 4 37 20 37 36 37 3 1 17 52 37 4 21 0 10 21 3 20 18 
SVTCA[0]	/* SetFreedomAndProjectionVectorToAxis */
MIAP[1]	/* MoveIndirectAbsPt */
SLOOP[ ]	/* SetLoopVariable */
SHP[1]	/* ShiftPointByLastPoint */
SRP1[ ]	/* SetRefPoint1 */
SLOOP[ ]	/* SetLoopVariable */
SHP[1]	/* ShiftPointByLastPoint */
DELTAP1[ ]	/* DeltaExceptionP1 */
MIAP[1]	/* MoveIndirectAbsPt */
SHP[1]	/* ShiftPointByLastPoint */
SHP[1]	/* ShiftPointByLastPoint */
SRP1[ ]	/* SetRefPoint1 */
SHP[1]	/* ShiftPointByLastPoint */
SHP[1]	/* ShiftPointByLastPoint */
SRP1[ ]	/* SetRefPoint1 */
SHP[1]	/* ShiftPointByLastPoint */
SVTCA[1]	/* SetFreedomAndProjectionVectorToAxis */
SRP0[ ]	/* SetRefPoint0 */
MIRP[00100]	/* MoveIndirectRelPt */
SHP[0]	/* ShiftPointByLastPoint */
SRP1[ ]	/* SetRefPoint1 */
SHP[1]	/* ShiftPointByLastPoint */
CALL[ ]	/* CallFunction */
SRP0[ ]	/* SetRefPoint0 */
MIRP[00100]	/* MoveIndirectRelPt */
SHP[0]	/* ShiftPointByLastPoint */
SRP1[ ]	/* SetRefPoint1 */
SHP[1]	/* ShiftPointByLastPoint */
CALL[ ]	/* CallFunction */
SRP1[ ]	/* SetRefPoint1 */
IP[ ]	/* InterpolatePts */
SRP1[ ]	/* SetRefPoint1 */
SHP[1]	/* ShiftPointByLastPoint */
SHP[1]	/* ShiftPointByLastPoint */
CALL[ ]	/* CallFunction */
CALL[ ]	/* CallFunction */
IUP[1]	/* InterpolateUntPts */
IUP[0]	/* InterpolateUntPts */";
};
width = 762;
}
);
note = uni004D;
unicode = 004D;
},
{
color = 10;
glyphname = N;
lastChange = "2022-01-06 02:32:25 +0000";
layers = (
{
layerId = "4397B867-53E7-4964-BB9B-A578920F109C";
paths = (
{
closed = 1;
nodes = (
"231 0 LINE",
"231 34 LINE",
"221 34 LINE SMOOTH",
"186 34 OFFCURVE",
"155 41 OFFCURVE",
"155 91 CURVE SMOOTH",
"155 461 LINE",
"455 0 LINE",
"512 0 LINE",
"512 480 LINE SMOOTH",
"512 530 OFFCURVE",
"541 538 OFFCURVE",
"578 538 CURVE SMOOTH",
"588 538 LINE",
"588 571 LINE",
"387 571 LINE",
"387 538 LINE",
"398 538 LINE SMOOTH",
"433 538 OFFCURVE",
"463 531 OFFCURVE",
"463 483 CURVE SMOOTH",
"463 129 LINE",
"177 571 LINE",
"30 571 LINE",
"30 538 LINE",
"41 538 LINE SMOOTH",
"75 538 OFFCURVE",
"106 531 OFFCURVE",
"106 483 CURVE SMOOTH",
"106 91 LINE SMOOTH",
"106 42 OFFCURVE",
"78 34 OFFCURVE",
"41 34 CURVE SMOOTH",
"30 34 LINE",
"30 0 LINE"
);
}
);
userData = {
assembly = "NPUSHB[ ]	/* 42 values pushed */
6 26 22 26 38 26 3 9 0 25 0 41 0 3 0 27 251 44 101 46 26 2 251 17 100 45 1 27 0 38 34 24 93 35 25 3 7 11 93 0 10 18 
SVTCA[0]	/* SetFreedomAndProjectionVectorToAxis */
MIAP[1]	/* MoveIndirectAbsPt */
SHP[1]	/* ShiftPointByLastPoint */
MIRP[00001]	/* MoveIndirectRelPt */
SHP[0]	/* ShiftPointByLastPoint */
MIAP[1]	/* MoveIndirectAbsPt */
SHP[1]	/* ShiftPointByLastPoint */
MIRP[00001]	/* MoveIndirectRelPt */
SHP[0]	/* ShiftPointByLastPoint */
SHP[0]	/* ShiftPointByLastPoint */
SRP1[ ]	/* SetRefPoint1 */
IP[ ]	/* InterpolatePts */
IP[ ]	/* InterpolatePts */
SVTCA[1]	/* SetFreedomAndProjectionVectorToAxis */
SRP0[ ]	/* SetRefPoint0 */
MIRP[10100]	/* MoveIndirectRelPt */
MIRP[01001]	/* MoveIndirectRelPt */
SHP[0]	/* ShiftPointByLastPoint */
SRP0[ ]	/* SetRefPoint0 */
MIRP[10110]	/* MoveIndirectRelPt */
MIRP[01001]	/* MoveIndirectRelPt */
SHP[0]	/* ShiftPointByLastPoint */
IUP[1]	/* InterpolateUntPts */
IUP[0]	/* InterpolateUntPts */
DELTAP1[ ]	/* DeltaExceptionP1 */
DELTAP1[ ]	/* DeltaExceptionP1 */";
};
width = 610;
},
{
layerId = "0ED38B93-C2B0-4B4A-9C6D-D7838A33C317";
paths = (
{
closed = 1;
nodes = (
"231 0 LINE",
"231 42 LINE",
"198 42 LINE SMOOTH",
"174 42 OFFCURVE",
"157 50 OFFCURVE",
"157 94 CURVE SMOOTH",
"157 441 LINE",
"469 0 LINE",
"542 0 LINE",
"542 477 LINE SMOOTH",
"542 522 OFFCURVE",
"560 529 OFFCURVE",
"583 529 CURVE SMOOTH",
"617 529 LINE",
"617 571 LINE",
"408 571 LINE",
"408 529 LINE",
"442 529 LINE SMOOTH",
"464 529 OFFCURVE",
"482 522 OFFCURVE",
"482 480 CURVE SMOOTH",
"482 172 LINE",
"200 571 LINE",
"22 571 LINE",
"22 529 LINE",
"56 529 LINE SMOOTH",
"78 529 OFFCURVE",
"97 522 OFFCURVE",
"97 480 CURVE SMOOTH",
"97 94 LINE SMOOTH",
"97 50 OFFCURVE",
"80 42 OFFCURVE",
"56 42 CURVE SMOOTH",
"22 42 LINE",
"22 0 LINE"
);
}
);
userData = {
assembly = "NPUSHB[ ]	/* 41 values pushed */
0 27 87 27 1 27 44 101 46 63 46 1 6 26 1 26 2 88 2 1 2 17 100 45 38 34 24 35 24 1 3 25 3 7 11 0 11 27 3 10 18 
SVTCA[0]	/* SetFreedomAndProjectionVectorToAxis */
MIAP[1]	/* MoveIndirectAbsPt */
SLOOP[ ]	/* SetLoopVariable */
SHP[1]	/* ShiftPointByLastPoint */
SRP1[ ]	/* SetRefPoint1 */
SHP[1]	/* ShiftPointByLastPoint */
MIAP[1]	/* MoveIndirectAbsPt */
SLOOP[ ]	/* SetLoopVariable */
SHP[1]	/* ShiftPointByLastPoint */
SRP1[ ]	/* SetRefPoint1 */
SHP[1]	/* ShiftPointByLastPoint */
SHP[1]	/* ShiftPointByLastPoint */
SVTCA[1]	/* SetFreedomAndProjectionVectorToAxis */
SRP0[ ]	/* SetRefPoint0 */
MIRP[00100]	/* MoveIndirectRelPt */
SHP[0]	/* ShiftPointByLastPoint */
DELTAP1[ ]	/* DeltaExceptionP1 */
SRP1[ ]	/* SetRefPoint1 */
SHP[1]	/* ShiftPointByLastPoint */
DELTAP1[ ]	/* DeltaExceptionP1 */
DELTAP1[ ]	/* DeltaExceptionP1 */
SRP0[ ]	/* SetRefPoint0 */
MIRP[00110]	/* MoveIndirectRelPt */
SHP[0]	/* ShiftPointByLastPoint */
DELTAP1[ ]	/* DeltaExceptionP1 */
SRP1[ ]	/* SetRefPoint1 */
SHP[1]	/* ShiftPointByLastPoint */
IUP[1]	/* InterpolateUntPts */
IUP[0]	/* InterpolateUntPts */";
};
width = 630;
}
);
note = uni004E;
unicode = 004E;
},
{
color = 10;
glyphname = O;
lastChange = "2022-01-06 02:32:25 +0000";
layers = (
{
layerId = "4397B867-53E7-4964-BB9B-A578920F109C";
paths = (
{
closed = 1;
nodes = (
"458 -8 OFFCURVE",
"548 109 OFFCURVE",
"548 286 CURVE SMOOTH",
"548 455 OFFCURVE",
"466 580 OFFCURVE",
"298 580 CURVE SMOOTH",
"124 580 OFFCURVE",
"45 461 OFFCURVE",
"45 287 CURVE SMOOTH",
"45 110 OFFCURVE",
"127 -8 OFFCURVE",
"297 -8 CURVE SMOOTH"
);
},
{
closed = 1;
nodes = (
"238 35 OFFCURVE",
"197 58 OFFCURVE",
"170 102 CURVE SMOOTH",
"145 144 OFFCURVE",
"134 207 OFFCURVE",
"134 286 CURVE SMOOTH",
"134 446 OFFCURVE",
"178 537 OFFCURVE",
"298 537 CURVE SMOOTH",
"415 537 OFFCURVE",
"459 446 OFFCURVE",
"459 286 CURVE SMOOTH",
"459 207 OFFCURVE",
"449 144 OFFCURVE",
"423 102 CURVE SMOOTH",
"397 58 OFFCURVE",
"356 35 OFFCURVE",
"297 35 CURVE SMOOTH"
);
}
);
userData = {
assembly = "NPUSHB[ ]	/* 24 values pushed */
30 91 0 103 41 175 41 1 64 41 1 20 91 10 102 40 35 95 15 4 25 95 5 19 
SVTCA[0]	/* SetFreedomAndProjectionVectorToAxis */
MIAP[1]	/* MoveIndirectAbsPt */
MIRP[00001]	/* MoveIndirectRelPt */
MIAP[1]	/* MoveIndirectAbsPt */
MIRP[00001]	/* MoveIndirectRelPt */
SVTCA[1]	/* SetFreedomAndProjectionVectorToAxis */
SRP0[ ]	/* SetRefPoint0 */
MIRP[10110]	/* MoveIndirectRelPt */
MIRP[00001]	/* MoveIndirectRelPt */
DELTAP1[ ]	/* DeltaExceptionP1 */
DELTAP1[ ]	/* DeltaExceptionP1 */
SRP0[ ]	/* SetRefPoint0 */
MIRP[10110]	/* MoveIndirectRelPt */
MIRP[00001]	/* MoveIndirectRelPt */
IUP[1]	/* InterpolateUntPts */
IUP[0]	/* InterpolateUntPts */";
};
width = 594;
},
{
layerId = "0ED38B93-C2B0-4B4A-9C6D-D7838A33C317";
paths = (
{
closed = 1;
nodes = (
"489 -8 OFFCURVE",
"586 110 OFFCURVE",
"586 286 CURVE SMOOTH",
"586 465 OFFCURVE",
"489 580 OFFCURVE",
"316 580 CURVE SMOOTH",
"134 580 OFFCURVE",
"44 464 OFFCURVE",
"44 287 CURVE SMOOTH",
"44 109 OFFCURVE",
"134 -8 OFFCURVE",
"315 -8 CURVE SMOOTH"
);
},
{
closed = 1;
nodes = (
"266 44 OFFCURVE",
"232 66 OFFCURVE",
"210 108 CURVE SMOOTH",
"188 150 OFFCURVE",
"178 210 OFFCURVE",
"178 286 CURVE SMOOTH",
"178 440 OFFCURVE",
"216 528 OFFCURVE",
"316 528 CURVE SMOOTH",
"414 528 OFFCURVE",
"451 440 OFFCURVE",
"451 286 CURVE SMOOTH",
"451 210 OFFCURVE",
"442 150 OFFCURVE",
"421 108 CURVE SMOOTH",
"399 66 OFFCURVE",
"366 44 OFFCURVE",
"315 44 CURVE SMOOTH"
);
}
);
userData = {
assembly = "NPUSHB[ ]	/* 27 values pushed */
8 30 24 30 2 30 0 103 41 223 41 1 7 20 23 20 2 20 10 102 40 35 15 4 25 5 19 
SVTCA[0]	/* SetFreedomAndProjectionVectorToAxis */
MIAP[1]	/* MoveIndirectAbsPt */
SHP[1]	/* ShiftPointByLastPoint */
MIAP[1]	/* MoveIndirectAbsPt */
SHP[1]	/* ShiftPointByLastPoint */
SVTCA[1]	/* SetFreedomAndProjectionVectorToAxis */
SRP0[ ]	/* SetRefPoint0 */
MIRP[00110]	/* MoveIndirectRelPt */
SHP[0]	/* ShiftPointByLastPoint */
DELTAP1[ ]	/* DeltaExceptionP1 */
DELTAP1[ ]	/* DeltaExceptionP1 */
SRP0[ ]	/* SetRefPoint0 */
MIRP[00110]	/* MoveIndirectRelPt */
SHP[0]	/* ShiftPointByLastPoint */
DELTAP1[ ]	/* DeltaExceptionP1 */
IUP[1]	/* InterpolateUntPts */
IUP[0]	/* InterpolateUntPts */";
};
width = 630;
}
);
note = uni004F;
unicode = 004F;
},
{
color = 10;
glyphname = P;
lastChange = "2022-01-06 02:32:25 +0000";
layers = (
{
layerId = "4397B867-53E7-4964-BB9B-A578920F109C";
paths = (
{
closed = 1;
nodes = (
"279 0 LINE",
"279 34 LINE",
"253 34 LINE SMOOTH",
"217 34 OFFCURVE",
"187 40 OFFCURVE",
"187 87 CURVE SMOOTH",
"187 222 LINE",
"238 222 LINE SMOOTH",
"397 222 OFFCURVE",
"452 310 OFFCURVE",
"452 404 CURVE SMOOTH",
"452 456 OFFCURVE",
"436 498 OFFCURVE",
"404 526 CURVE SMOOTH",
"372 555 OFFCURVE",
"322 571 OFFCURVE",
"255 571 CURVE SMOOTH",
"30 571 LINE",
"30 538 LINE",
"41 538 LINE SMOOTH",
"75 538 OFFCURVE",
"106 531 OFFCURVE",
"106 483 CURVE SMOOTH",
"106 91 LINE SMOOTH",
"106 42 OFFCURVE",
"78 34 OFFCURVE",
"41 34 CURVE SMOOTH",
"30 34 LINE",
"30 0 LINE"
);
},
{
closed = 1;
nodes = (
"187 533 LINE",
"242 533 LINE SMOOTH",
"332 533 OFFCURVE",
"366 491 OFFCURVE",
"366 401 CURVE SMOOTH",
"366 298 OFFCURVE",
"326 260 OFFCURVE",
"230 260 CURVE SMOOTH",
"187 260 LINE"
);
}
);
userData = {
assembly = "NPUSHB[ ]	/* 36 values pushed */
42 91 21 103 50 15 50 95 50 111 50 175 50 4 36 28 90 7 100 49 27 94 36 36 1 48 94 14 93 15 3 33 1 93 0 18 
SVTCA[0]	/* SetFreedomAndProjectionVectorToAxis */
MIAP[1]	/* MoveIndirectAbsPt */
MIRP[00001]	/* MoveIndirectRelPt */
SHP[0]	/* ShiftPointByLastPoint */
MIAP[1]	/* MoveIndirectAbsPt */
MIRP[00001]	/* MoveIndirectRelPt */
MIRP[00001]	/* MoveIndirectRelPt */
SRP2[ ]	/* SetRefPoint2 */
IP[ ]	/* InterpolatePts */
MDAP[1]	/* MoveDirectAbsPt */
MIRP[00001]	/* MoveIndirectRelPt */
SVTCA[1]	/* SetFreedomAndProjectionVectorToAxis */
SRP0[ ]	/* SetRefPoint0 */
MIRP[10100]	/* MoveIndirectRelPt */
MIRP[00001]	/* MoveIndirectRelPt */
SHP[0]	/* ShiftPointByLastPoint */
DELTAP1[ ]	/* DeltaExceptionP1 */
SRP0[ ]	/* SetRefPoint0 */
MIRP[10110]	/* MoveIndirectRelPt */
MIRP[00001]	/* MoveIndirectRelPt */
IUP[1]	/* InterpolateUntPts */
IUP[0]	/* InterpolateUntPts */";
};
width = 483;
},
{
layerId = "0ED38B93-C2B0-4B4A-9C6D-D7838A33C317";
paths = (
{
closed = 1;
nodes = (
"314 0 LINE",
"314 42 LINE",
"266 42 LINE SMOOTH",
"242 42 OFFCURVE",
"223 49 OFFCURVE",
"223 90 CURVE SMOOTH",
"223 218 LINE",
"250 218 LINE SMOOTH",
"424 218 OFFCURVE",
"486 306 OFFCURVE",
"486 402 CURVE SMOOTH",
"486 454 OFFCURVE",
"469 496 OFFCURVE",
"433 526 CURVE SMOOTH",
"397 555 OFFCURVE",
"342 571 OFFCURVE",
"268 571 CURVE SMOOTH",
"22 571 LINE",
"22 529 LINE",
"56 529 LINE SMOOTH",
"80 529 OFFCURVE",
"97 521 OFFCURVE",
"97 480 CURVE SMOOTH",
"97 94 LINE SMOOTH",
"97 50 OFFCURVE",
"80 42 OFFCURVE",
"56 42 CURVE SMOOTH",
"22 42 LINE",
"22 0 LINE"
);
},
{
closed = 1;
nodes = (
"223 524 LINE",
"254 524 LINE SMOOTH",
"326 524 OFFCURVE",
"352 483 OFFCURVE",
"352 398 CURVE SMOOTH",
"352 314 OFFCURVE",
"329 265 OFFCURVE",
"242 265 CURVE SMOOTH",
"223 265 LINE"
);
}
);
userData = {
assembly = "NPUSHB[ ]	/* 36 values pushed */
5 34 21 34 2 36 6 6 22 100 49 72 42 1 42 0 0 48 0 64 0 80 0 4 0 0 50 159 50 1 79 50 95 50 2 6 
PUSHW[ ]	/* 1 value pushed */
-8 
NPUSHB[ ]	/* 32 values pushed */
10 14 72 6 175 36 1 36 72 18 73 15 36 31 36 63 36 3 36 36 16 30 48 29 29 30 3 12 16 16 15 18 
SVTCA[0]	/* SetFreedomAndProjectionVectorToAxis */
MIAP[1]	/* MoveIndirectAbsPt */
SHP[1]	/* ShiftPointByLastPoint */
SRP1[ ]	/* SetRefPoint1 */
SHP[1]	/* ShiftPointByLastPoint */
MIAP[1]	/* MoveIndirectAbsPt */
SHP[1]	/* ShiftPointByLastPoint */
SRP1[ ]	/* SetRefPoint1 */
SHP[1]	/* ShiftPointByLastPoint */
SRP1[ ]	/* SetRefPoint1 */
SRP2[ ]	/* SetRefPoint2 */
IP[ ]	/* InterpolatePts */
MDAP[1]	/* MoveDirectAbsPt */
DELTAP1[ ]	/* DeltaExceptionP1 */
CALL[ ]	/* CallFunction */
DELTAP1[ ]	/* DeltaExceptionP1 */
SHP[1]	/* ShiftPointByLastPoint */
CALL[ ]	/* CallFunction */
SVTCA[1]	/* SetFreedomAndProjectionVectorToAxis */
DELTAP1[ ]	/* DeltaExceptionP1 */
DELTAP1[ ]	/* DeltaExceptionP1 */
SRP1[ ]	/* SetRefPoint1 */
SHP[1]	/* ShiftPointByLastPoint */
MDAP[1]	/* MoveDirectAbsPt */
DELTAP1[ ]	/* DeltaExceptionP1 */
SHP[1]	/* ShiftPointByLastPoint */
DELTAP1[ ]	/* DeltaExceptionP1 */
SRP0[ ]	/* SetRefPoint0 */
MIRP[00100]	/* MoveIndirectRelPt */
SHP[0]	/* ShiftPointByLastPoint */
SRP1[ ]	/* SetRefPoint1 */
SHP[1]	/* ShiftPointByLastPoint */
IUP[1]	/* InterpolateUntPts */
IUP[0]	/* InterpolateUntPts */
DELTAP1[ ]	/* DeltaExceptionP1 */";
};
width = 510;
}
);
note = uni0050;
unicode = 0050;
},
{
color = 10;
glyphname = Q;
lastChange = "2022-01-06 02:32:25 +0000";
layers = (
{
layerId = "4397B867-53E7-4964-BB9B-A578920F109C";
paths = (
{
closed = 1;
nodes = (
"482 -184 LINE",
"482 -146 LINE",
"469 -146 LINE SMOOTH",
"437 -146 OFFCURVE",
"409 -138 OFFCURVE",
"389 -116 CURVE SMOOTH",
"368 -94 OFFCURVE",
"355 -58 OFFCURVE",
"350 -3 CURVE",
"478 20 OFFCURVE",
"548 130 OFFCURVE",
"548 286 CURVE SMOOTH",
"548 455 OFFCURVE",
"466 580 OFFCURVE",
"298 580 CURVE SMOOTH",
"124 580 OFFCURVE",
"45 461 OFFCURVE",
"45 287 CURVE SMOOTH",
"45 121 OFFCURVE",
"116 10 OFFCURVE",
"262 -6 CURVE",
"273 -144 OFFCURVE",
"363 -184 OFFCURVE",
"447 -184 CURVE SMOOTH"
);
},
{
closed = 1;
nodes = (
"238 35 OFFCURVE",
"197 58 OFFCURVE",
"170 102 CURVE SMOOTH",
"145 144 OFFCURVE",
"134 207 OFFCURVE",
"134 286 CURVE SMOOTH",
"134 446 OFFCURVE",
"178 537 OFFCURVE",
"298 537 CURVE SMOOTH",
"415 537 OFFCURVE",
"459 446 OFFCURVE",
"459 286 CURVE SMOOTH",
"459 207 OFFCURVE",
"449 144 OFFCURVE",
"423 102 CURVE SMOOTH",
"397 58 OFFCURVE",
"356 35 OFFCURVE",
"297 35 CURVE SMOOTH"
);
}
);
userData = {
assembly = "NPUSHB[ ]	/* 39 values pushed */
12 12 43 91 0 5 91 19 23 4 18 18 23 0 103 54 175 54 1 64 54 1 33 91 23 102 53 48 95 28 4 38 94 5 18 19 10 94 13 
SVTCA[0]	/* SetFreedomAndProjectionVectorToAxis */
MDAP[1]	/* MoveDirectAbsPt */
MIRP[00001]	/* MoveIndirectRelPt */
MIAP[1]	/* MoveIndirectAbsPt */
SHP[1]	/* ShiftPointByLastPoint */
MIRP[00001]	/* MoveIndirectRelPt */
MIAP[1]	/* MoveIndirectAbsPt */
MIRP[00001]	/* MoveIndirectRelPt */
SVTCA[1]	/* SetFreedomAndProjectionVectorToAxis */
SRP0[ ]	/* SetRefPoint0 */
MIRP[10110]	/* MoveIndirectRelPt */
MIRP[00001]	/* MoveIndirectRelPt */
DELTAP1[ ]	/* DeltaExceptionP1 */
DELTAP1[ ]	/* DeltaExceptionP1 */
SRP0[ ]	/* SetRefPoint0 */
MIRP[00110]	/* MoveIndirectRelPt */
SRP1[ ]	/* SetRefPoint1 */
IP[ ]	/* InterpolatePts */
MDAP[1]	/* MoveDirectAbsPt */
IP[ ]	/* InterpolatePts */
SRP2[ ]	/* SetRefPoint2 */
IP[ ]	/* InterpolatePts */
MIRP[00001]	/* MoveIndirectRelPt */
SRP0[ ]	/* SetRefPoint0 */
MIRP[10001]	/* MoveIndirectRelPt */
MDRP[00000]	/* MoveDirectRelPt */
MDAP[1]	/* MoveDirectAbsPt */
IUP[1]	/* InterpolateUntPts */
IUP[0]	/* InterpolateUntPts */";
};
width = 594;
},
{
layerId = "0ED38B93-C2B0-4B4A-9C6D-D7838A33C317";
paths = (
{
closed = 1;
nodes = (
"519 -192 LINE",
"519 -146 LINE",
"506 -146 LINE SMOOTH",
"480 -146 OFFCURVE",
"454 -138 OFFCURVE",
"432 -117 CURVE SMOOTH",
"411 -95 OFFCURVE",
"396 -59 OFFCURVE",
"391 0 CURVE",
"525 32 OFFCURVE",
"586 149 OFFCURVE",
"586 286 CURVE SMOOTH",
"586 465 OFFCURVE",
"489 580 OFFCURVE",
"316 580 CURVE SMOOTH",
"134 580 OFFCURVE",
"44 464 OFFCURVE",
"44 287 CURVE SMOOTH",
"44 131 OFFCURVE",
"114 19 OFFCURVE",
"258 -3 CURVE",
"268 -138 OFFCURVE",
"366 -192 OFFCURVE",
"462 -192 CURVE SMOOTH"
);
},
{
closed = 1;
nodes = (
"266 44 OFFCURVE",
"232 66 OFFCURVE",
"210 108 CURVE SMOOTH",
"188 150 OFFCURVE",
"178 210 OFFCURVE",
"178 286 CURVE SMOOTH",
"178 440 OFFCURVE",
"216 528 OFFCURVE",
"316 528 CURVE SMOOTH",
"414 528 OFFCURVE",
"451 440 OFFCURVE",
"451 286 CURVE SMOOTH",
"451 210 OFFCURVE",
"442 150 OFFCURVE",
"421 108 CURVE SMOOTH",
"399 66 OFFCURVE",
"366 44 OFFCURVE",
"315 44 CURVE SMOOTH"
);
}
);
userData = {
assembly = "NPUSHB[ ]	/* 55 values pushed */
153 18 169 18 2 38 5 166 5 2 5 18 23 12 43 8 43 24 43 2 43 0 103 54 7 33 23 33 2 33 23 102 53 38 5 18 19 48 28 4 10 47 13 111 13 175 13 191 13 239 13 255 13 6 13 
SVTCA[0]	/* SetFreedomAndProjectionVectorToAxis */
MDAP[1]	/* MoveDirectAbsPt */
DELTAP1[ ]	/* DeltaExceptionP1 */
SHP[1]	/* ShiftPointByLastPoint */
MIAP[1]	/* MoveIndirectAbsPt */
SHP[1]	/* ShiftPointByLastPoint */
MIAP[1]	/* MoveIndirectAbsPt */
SHP[1]	/* ShiftPointByLastPoint */
SHP[1]	/* ShiftPointByLastPoint */
SVTCA[1]	/* SetFreedomAndProjectionVectorToAxis */
SRP0[ ]	/* SetRefPoint0 */
MIRP[00110]	/* MoveIndirectRelPt */
SHP[0]	/* ShiftPointByLastPoint */
DELTAP1[ ]	/* DeltaExceptionP1 */
SRP0[ ]	/* SetRefPoint0 */
MIRP[00110]	/* MoveIndirectRelPt */
SHP[0]	/* ShiftPointByLastPoint */
DELTAP1[ ]	/* DeltaExceptionP1 */
SRP1[ ]	/* SetRefPoint1 */
IP[ ]	/* InterpolatePts */
SRP1[ ]	/* SetRefPoint1 */
IP[ ]	/* InterpolatePts */
IP[ ]	/* InterpolatePts */
DELTAP1[ ]	/* DeltaExceptionP1 */
DELTAP1[ ]	/* DeltaExceptionP1 */
IUP[1]	/* InterpolateUntPts */
IUP[0]	/* InterpolateUntPts */";
};
width = 630;
}
);
note = uni0051;
unicode = 0051;
},
{
color = 10;
glyphname = R;
lastChange = "2022-01-06 02:32:25 +0000";
layers = (
{
layerId = "4397B867-53E7-4964-BB9B-A578920F109C";
paths = (
{
closed = 1;
nodes = (
"263 0 LINE",
"263 34 LINE",
"253 34 LINE SMOOTH",
"217 34 OFFCURVE",
"187 40 OFFCURVE",
"187 87 CURVE SMOOTH",
"187 252 LINE",
"254 252 LINE",
"362 72 LINE SMOOTH",
"398 12 OFFCURVE",
"416 0 OFFCURVE",
"518 0 CURVE SMOOTH",
"530 0 LINE",
"530 34 LINE",
"527 34 LINE SMOOTH",
"494 34 OFFCURVE",
"470 55 OFFCURVE",
"443 98 CURVE SMOOTH",
"334 271 LINE",
"390 290 OFFCURVE",
"451 332 OFFCURVE",
"451 417 CURVE SMOOTH",
"451 520 OFFCURVE",
"384 571 OFFCURVE",
"246 571 CURVE SMOOTH",
"30 571 LINE",
"30 538 LINE",
"41 538 LINE SMOOTH",
"75 538 OFFCURVE",
"106 531 OFFCURVE",
"106 483 CURVE SMOOTH",
"106 87 LINE SMOOTH",
"106 40 OFFCURVE",
"77 34 OFFCURVE",
"41 34 CURVE SMOOTH",
"30 34 LINE",
"30 0 LINE"
);
},
{
closed = 1;
nodes = (
"187 533 LINE",
"242 533 LINE SMOOTH",
"332 533 OFFCURVE",
"366 500 OFFCURVE",
"366 414 CURVE SMOOTH",
"366 330 OFFCURVE",
"336 290 OFFCURVE",
"243 290 CURVE SMOOTH",
"187 290 LINE"
);
}
);
userData = {
assembly = "NPUSHB[ ]	/* 51 values pushed */
41 12 1 41 11 1 12 46 47 53 91 41 16 5 32 5 2 5 61 64 61 1 47 61 1 47 14 90 29 100 60 46 37 13 94 47 47 23 59 94 36 93 37 3 19 3 23 93 6 22 18 
SVTCA[0]	/* SetFreedomAndProjectionVectorToAxis */
MIAP[1]	/* MoveIndirectAbsPt */
SHP[1]	/* ShiftPointByLastPoint */
MIRP[00001]	/* MoveIndirectRelPt */
SHP[0]	/* ShiftPointByLastPoint */
SHP[0]	/* ShiftPointByLastPoint */
MIAP[1]	/* MoveIndirectAbsPt */
MIRP[00001]	/* MoveIndirectRelPt */
MIRP[00001]	/* MoveIndirectRelPt */
SRP2[ ]	/* SetRefPoint2 */
IP[ ]	/* InterpolatePts */
MDAP[1]	/* MoveDirectAbsPt */
MIRP[00001]	/* MoveIndirectRelPt */
SRP1[ ]	/* SetRefPoint1 */
IP[ ]	/* InterpolatePts */
SVTCA[1]	/* SetFreedomAndProjectionVectorToAxis */
SRP0[ ]	/* SetRefPoint0 */
MIRP[10100]	/* MoveIndirectRelPt */
MIRP[00001]	/* MoveIndirectRelPt */
SHP[0]	/* ShiftPointByLastPoint */
DELTAP1[ ]	/* DeltaExceptionP1 */
DELTAP1[ ]	/* DeltaExceptionP1 */
SRP0[ ]	/* SetRefPoint0 */
MDRP[10101]	/* MoveDirectRelPt */
DELTAP1[ ]	/* DeltaExceptionP1 */
MDRP[10100]	/* MoveDirectRelPt */
MIRP[00001]	/* MoveIndirectRelPt */
SRP2[ ]	/* SetRefPoint2 */
IP[ ]	/* InterpolatePts */
IP[ ]	/* InterpolatePts */
IUP[1]	/* InterpolateUntPts */
IUP[0]	/* InterpolateUntPts */
DELTAP1[ ]	/* DeltaExceptionP1 */
DELTAP1[ ]	/* DeltaExceptionP1 */";
};
width = 525;
},
{
layerId = "0ED38B93-C2B0-4B4A-9C6D-D7838A33C317";
paths = (
{
closed = 1;
nodes = (
"298 0 LINE",
"298 42 LINE",
"264 42 LINE SMOOTH",
"242 42 OFFCURVE",
"223 49 OFFCURVE",
"223 90 CURVE SMOOTH",
"223 248 LINE",
"276 248 LINE",
"371 72 LINE SMOOTH",
"404 13 OFFCURVE",
"444 0 OFFCURVE",
"542 0 CURVE SMOOTH",
"569 0 LINE",
"569 42 LINE",
"566 42 LINE SMOOTH",
"534 42 OFFCURVE",
"511 64 OFFCURVE",
"486 108 CURVE SMOOTH",
"390 272 LINE",
"446 294 OFFCURVE",
"499 339 OFFCURVE",
"499 423 CURVE SMOOTH",
"499 519 OFFCURVE",
"431 571 OFFCURVE",
"280 571 CURVE SMOOTH",
"22 571 LINE",
"22 529 LINE",
"56 529 LINE SMOOTH",
"78 529 OFFCURVE",
"97 522 OFFCURVE",
"97 480 CURVE SMOOTH",
"97 90 LINE SMOOTH",
"97 49 OFFCURVE",
"78 42 OFFCURVE",
"56 42 CURVE SMOOTH",
"22 42 LINE",
"22 0 LINE"
);
},
{
closed = 1;
nodes = (
"223 524 LINE",
"266 524 LINE SMOOTH",
"336 524 OFFCURVE",
"365 494 OFFCURVE",
"365 412 CURVE SMOOTH",
"365 334 OFFCURVE",
"341 294 OFFCURVE",
"268 294 CURVE SMOOTH",
"223 294 LINE"
);
}
);
userData = {
assembly = "NPUSHB[ ]	/* 12 values pushed */
41 35 1 13 37 1 5 17 21 17 2 23 
PUSHW[ ]	/* 1 value pushed */
-16 
NPUSHB[ ]	/* 54 values pushed */
9 12 72 38 37 23 24 4 18 49 40 40 6 100 62 72 55 1 55 30 48 18 64 18 80 18 3 18 63 63 63 239 63 2 23 39 39 152 49 1 49 49 14 45 29 0 32 48 18 61 13 13 14 3 
SVTCA[0]	/* SetFreedomAndProjectionVectorToAxis */
MIAP[1]	/* MoveIndirectAbsPt */
SHP[1]	/* ShiftPointByLastPoint */
SRP1[ ]	/* SetRefPoint1 */
SHP[1]	/* ShiftPointByLastPoint */
MIAP[1]	/* MoveIndirectAbsPt */
SHP[1]	/* ShiftPointByLastPoint */
SHP[1]	/* ShiftPointByLastPoint */
SHP[0]	/* ShiftPointByLastPoint */
SHP[0]	/* ShiftPointByLastPoint */
SRP1[ ]	/* SetRefPoint1 */
IP[ ]	/* InterpolatePts */
MDAP[1]	/* MoveDirectAbsPt */
DELTAP1[ ]	/* DeltaExceptionP1 */
SHP[1]	/* ShiftPointByLastPoint */
SRP2[ ]	/* SetRefPoint2 */
IP[ ]	/* InterpolatePts */
SVTCA[1]	/* SetFreedomAndProjectionVectorToAxis */
DELTAP1[ ]	/* DeltaExceptionP1 */
SRP0[ ]	/* SetRefPoint0 */
MDRP[01100]	/* MoveDirectRelPt */
DELTAP1[ ]	/* DeltaExceptionP1 */
SHP[0]	/* ShiftPointByLastPoint */
SHP[0]	/* ShiftPointByLastPoint */
DELTAP1[ ]	/* DeltaExceptionP1 */
SRP0[ ]	/* SetRefPoint0 */
MIRP[00100]	/* MoveIndirectRelPt */
SHP[0]	/* ShiftPointByLastPoint */
SRP1[ ]	/* SetRefPoint1 */
SHP[1]	/* ShiftPointByLastPoint */
SRP2[ ]	/* SetRefPoint2 */
SLOOP[ ]	/* SetLoopVariable */
IP[ ]	/* InterpolatePts */
CALL[ ]	/* CallFunction */
IUP[1]	/* InterpolateUntPts */
IUP[0]	/* InterpolateUntPts */
DELTAP1[ ]	/* DeltaExceptionP1 */
SVTCA[0]	/* SetFreedomAndProjectionVectorToAxis */
DELTAP1[ ]	/* DeltaExceptionP1 */
DELTAP1[ ]	/* DeltaExceptionP1 */";
};
width = 566;
}
);
note = uni0052;
unicode = 0052;
},
{
color = 10;
glyphname = S;
lastChange = "2022-01-06 02:32:25 +0000";
layers = (
{
background = {
paths = (
{
closed = 1;
nodes = (
"318 -8 OFFCURVE",
"394 52 OFFCURVE",
"394 153 CURVE SMOOTH",
"394 235 OFFCURVE",
"338 280 OFFCURVE",
"246 318 CURVE SMOOTH",
"199 337 OFFCURVE",
"168 354 OFFCURVE",
"149 374 CURVE SMOOTH",
"129 393 OFFCURVE",
"122 416 OFFCURVE",
"122 448 CURVE SMOOTH",
"122 503 OFFCURVE",
"158 539 OFFCURVE",
"219 539 CURVE SMOOTH",
"287 539 OFFCURVE",
"309 487 OFFCURVE",
"309 438 CURVE",
"347 438 OFFCURVE",
"372 455 OFFCURVE",
"372 490 CURVE SMOOTH",
"372 536 OFFCURVE",
"318 579 OFFCURVE",
"222 579 CURVE SMOOTH",
"120 579 OFFCURVE",
"47 526 OFFCURVE",
"47 434 CURVE SMOOTH",
"47 390 OFFCURVE",
"59 356 OFFCURVE",
"83 328 CURVE SMOOTH",
"108 299 OFFCURVE",
"145 277 OFFCURVE",
"194 257 CURVE SMOOTH",
"287 218 OFFCURVE",
"318 190 OFFCURVE",
"318 132 CURVE SMOOTH",
"318 67 OFFCURVE",
"276 31 OFFCURVE",
"204 31 CURVE SMOOTH",
"129 31 OFFCURVE",
"99 93 OFFCURVE",
"96 158 CURVE",
"59 158 OFFCURVE",
"38 137 OFFCURVE",
"38 105 CURVE SMOOTH",
"38 71 OFFCURVE",
"52 42 OFFCURVE",
"78 23 CURVE SMOOTH",
"106 4 OFFCURVE",
"146 -8 OFFCURVE",
"198 -8 CURVE SMOOTH"
);
}
);
};
layerId = "4397B867-53E7-4964-BB9B-A578920F109C";
paths = (
{
closed = 1;
nodes = (
"318 -8 OFFCURVE",
"394 52 OFFCURVE",
"394 153 CURVE SMOOTH",
"394 235 OFFCURVE",
"338 280 OFFCURVE",
"246 318 CURVE SMOOTH",
"169 350 OFFCURVE",
"122 374 OFFCURVE",
"122 448 CURVE SMOOTH",
"122 503 OFFCURVE",
"158 539 OFFCURVE",
"219 539 CURVE SMOOTH",
"287 539 OFFCURVE",
"309 487 OFFCURVE",
"309 438 CURVE",
"347 438 OFFCURVE",
"372 455 OFFCURVE",
"372 490 CURVE SMOOTH",
"372 536 OFFCURVE",
"318 579 OFFCURVE",
"222 579 CURVE SMOOTH",
"120 579 OFFCURVE",
"47 526 OFFCURVE",
"47 434 CURVE SMOOTH",
"47 338 OFFCURVE",
"106 293 OFFCURVE",
"194 257 CURVE SMOOTH",
"287 218 OFFCURVE",
"318 190 OFFCURVE",
"318 132 CURVE SMOOTH",
"318 67 OFFCURVE",
"276 31 OFFCURVE",
"204 31 CURVE SMOOTH",
"129 31 OFFCURVE",
"99 93 OFFCURVE",
"96 158 CURVE",
"59 158 OFFCURVE",
"38 137 OFFCURVE",
"38 105 CURVE SMOOTH",
"38 22 OFFCURVE",
"115 -8 OFFCURVE",
"198 -8 CURVE SMOOTH"
);
}
);
userData = {
assembly = "NPUSHB[ ]	/* 39 values pushed */
39 36 16 90 59 103 65 15 65 175 65 2 49 90 26 8 5 102 64 54 21 13 44 94 48 39 64 39 80 39 3 39 31 4 13 94 8 0 19 
SVTCA[0]	/* SetFreedomAndProjectionVectorToAxis */
MIAP[1]	/* MoveIndirectAbsPt */
MDRP[01100]	/* MoveDirectRelPt */
MIRP[00001]	/* MoveIndirectRelPt */
MIAP[1]	/* MoveIndirectAbsPt */
MDRP[01100]	/* MoveDirectRelPt */
DELTAP1[ ]	/* DeltaExceptionP1 */
MIRP[00001]	/* MoveIndirectRelPt */
SRP2[ ]	/* SetRefPoint2 */
IP[ ]	/* InterpolatePts */
IP[ ]	/* InterpolatePts */
SVTCA[1]	/* SetFreedomAndProjectionVectorToAxis */
SRP0[ ]	/* SetRefPoint0 */
MIRP[10110]	/* MoveIndirectRelPt */
MDRP[01001]	/* MoveDirectRelPt */
MDRP[10100]	/* MoveDirectRelPt */
MIRP[00001]	/* MoveIndirectRelPt */
DELTAP1[ ]	/* DeltaExceptionP1 */
SRP0[ ]	/* SetRefPoint0 */
MIRP[10110]	/* MoveIndirectRelPt */
MIRP[00001]	/* MoveIndirectRelPt */
MDRP[10100]	/* MoveDirectRelPt */
MDRP[01001]	/* MoveDirectRelPt */
IUP[1]	/* InterpolateUntPts */
IUP[0]	/* InterpolateUntPts */";
};
width = 435;
},
{
background = {
paths = (
{
closed = 1;
nodes = (
"278 -8 OFFCURVE",
"332 10 OFFCURVE",
"370 41 CURVE SMOOTH",
"408 72 OFFCURVE",
"429 116 OFFCURVE",
"429 167 CURVE SMOOTH",
"429 206 OFFCURVE",
"418 238 OFFCURVE",
"394 265 CURVE SMOOTH",
"369 291 OFFCURVE",
"331 314 OFFCURVE",
"276 337 CURVE SMOOTH",
"168 380 OFFCURVE",
"144 411 OFFCURVE",
"144 457 CURVE SMOOTH",
"144 505 OFFCURVE",
"180 530 OFFCURVE",
"223 530 CURVE SMOOTH",
"285 530 OFFCURVE",
"308 466 OFFCURVE",
"308 420 CURVE",
"374 420 OFFCURVE",
"406 449 OFFCURVE",
"406 486 CURVE SMOOTH",
"406 512 OFFCURVE",
"393 536 OFFCURVE",
"365 552 CURVE SMOOTH",
"337 569 OFFCURVE",
"294 579 OFFCURVE",
"236 579 CURVE SMOOTH",
"124 579 OFFCURVE",
"40 517 OFFCURVE",
"40 418 CURVE SMOOTH",
"40 379 OFFCURVE",
"50 347 OFFCURVE",
"73 318 CURVE SMOOTH",
"96 290 OFFCURVE",
"134 267 OFFCURVE",
"190 244 CURVE SMOOTH",
"234 226 OFFCURVE",
"268 210 OFFCURVE",
"290 192 CURVE SMOOTH",
"312 174 OFFCURVE",
"323 154 OFFCURVE",
"323 126 CURVE SMOOTH",
"323 78 OFFCURVE",
"288 40 OFFCURVE",
"224 40 CURVE SMOOTH",
"192 40 OFFCURVE",
"165 52 OFFCURVE",
"146 75 CURVE SMOOTH",
"126 98 OFFCURVE",
"114 133 OFFCURVE",
"114 178 CURVE",
"68 178 OFFCURVE",
"24 159 OFFCURVE",
"24 104 CURVE SMOOTH",
"24 78 OFFCURVE",
"35 50 OFFCURVE",
"64 29 CURVE SMOOTH",
"93 7 OFFCURVE",
"139 -8 OFFCURVE",
"211 -8 CURVE SMOOTH"
);
}
);
};
layerId = "0ED38B93-C2B0-4B4A-9C6D-D7838A33C317";
paths = (
{
closed = 1;
nodes = (
"327 -8 OFFCURVE",
"429 51 OFFCURVE",
"429 167 CURVE SMOOTH",
"429 260 OFFCURVE",
"362 302 OFFCURVE",
"276 337 CURVE SMOOTH",
"168 380 OFFCURVE",
"144 411 OFFCURVE",
"144 457 CURVE SMOOTH",
"144 505 OFFCURVE",
"180 530 OFFCURVE",
"223 530 CURVE SMOOTH",
"285 530 OFFCURVE",
"308 466 OFFCURVE",
"308 420 CURVE",
"374 420 OFFCURVE",
"406 449 OFFCURVE",
"406 486 CURVE SMOOTH",
"406 539 OFFCURVE",
"350 579 OFFCURVE",
"236 579 CURVE SMOOTH",
"124 579 OFFCURVE",
"40 517 OFFCURVE",
"40 418 CURVE SMOOTH",
"40 322 OFFCURVE",
"101 281 OFFCURVE",
"190 244 CURVE SMOOTH",
"288 203 OFFCURVE",
"323 179 OFFCURVE",
"323 126 CURVE SMOOTH",
"323 78 OFFCURVE",
"288 40 OFFCURVE",
"224 40 CURVE SMOOTH",
"150 40 OFFCURVE",
"114 102 OFFCURVE",
"114 178 CURVE",
"68 178 OFFCURVE",
"24 159 OFFCURVE",
"24 104 CURVE SMOOTH",
"24 19 OFFCURVE",
"123 -8 OFFCURVE",
"211 -8 CURVE SMOOTH"
);
}
);
userData = {
assembly = "NPUSHB[ ]	/* 84 values pushed */
25 45 41 45 2 8 45 1 45 40 9 40 25 40 41 40 89 40 105 40 5 40 20 65 103 71 127 71 207 71 2 64 71 1 47 71 1 10 5 5 55 30 102 70 167 55 183 55 2 55 65 35 15 168 20 184 20 2 20 30 50 40 45 120 45 200 45 3 50 45 35 4 38 10 86 10 2 21 10 1 10 15 0 19 
SVTCA[0]	/* SetFreedomAndProjectionVectorToAxis */
MIAP[1]	/* MoveIndirectAbsPt */
SHP[0]	/* ShiftPointByLastPoint */
SHP[0]	/* ShiftPointByLastPoint */
DELTAP1[ ]	/* DeltaExceptionP1 */
DELTAP1[ ]	/* DeltaExceptionP1 */
MIAP[1]	/* MoveIndirectAbsPt */
SHP[1]	/* ShiftPointByLastPoint */
SHP[1]	/* ShiftPointByLastPoint */
DELTAP1[ ]	/* DeltaExceptionP1 */
SRP1[ ]	/* SetRefPoint1 */
IP[ ]	/* InterpolatePts */
IP[ ]	/* InterpolatePts */
DELTAP1[ ]	/* DeltaExceptionP1 */
SRP1[ ]	/* SetRefPoint1 */
SRP2[ ]	/* SetRefPoint2 */
IP[ ]	/* InterpolatePts */
IP[ ]	/* InterpolatePts */
DELTAP1[ ]	/* DeltaExceptionP1 */
SVTCA[1]	/* SetFreedomAndProjectionVectorToAxis */
SRP0[ ]	/* SetRefPoint0 */
MIRP[00110]	/* MoveIndirectRelPt */
SHP[0]	/* ShiftPointByLastPoint */
SHP[0]	/* ShiftPointByLastPoint */
SRP1[ ]	/* SetRefPoint1 */
SHP[1]	/* ShiftPointByLastPoint */
DELTAP1[ ]	/* DeltaExceptionP1 */
DELTAP1[ ]	/* DeltaExceptionP1 */
DELTAP1[ ]	/* DeltaExceptionP1 */
SRP0[ ]	/* SetRefPoint0 */
MIRP[00110]	/* MoveIndirectRelPt */
SHP[0]	/* ShiftPointByLastPoint */
SHP[0]	/* ShiftPointByLastPoint */
DELTAP1[ ]	/* DeltaExceptionP1 */
SRP1[ ]	/* SetRefPoint1 */
SHP[1]	/* ShiftPointByLastPoint */
DELTAP1[ ]	/* DeltaExceptionP1 */
DELTAP1[ ]	/* DeltaExceptionP1 */
IUP[1]	/* InterpolateUntPts */
IUP[0]	/* InterpolateUntPts */";
};
width = 469;
}
);
note = uni0053;
unicode = 0053;
},
{
color = 10;
glyphname = T;
lastChange = "2022-01-06 02:32:25 +0000";
layers = (
{
layerId = "4397B867-53E7-4964-BB9B-A578920F109C";
paths = (
{
closed = 1;
nodes = (
"369 0 LINE",
"369 34 LINE",
"350 34 LINE SMOOTH",
"315 34 OFFCURVE",
"285 41 OFFCURVE",
"285 91 CURVE SMOOTH",
"285 531 LINE",
"362 531 LINE SMOOTH",
"410 531 OFFCURVE",
"425 502 OFFCURVE",
"429 466 CURVE SMOOTH",
"433 431 LINE",
"474 431 LINE",
"470 571 LINE",
"20 571 LINE",
"16 431 LINE",
"58 431 LINE",
"62 466 LINE SMOOTH",
"66 501 OFFCURVE",
"78 531 OFFCURVE",
"127 531 CURVE SMOOTH",
"204 531 LINE",
"204 87 LINE SMOOTH",
"204 40 OFFCURVE",
"174 34 OFFCURVE",
"138 34 CURVE SMOOTH",
"120 34 LINE",
"120 0 LINE"
);
}
);
userData = {
assembly = "NPUSHB[ ]	/* 56 values pushed */
23 250 191 24 255 24 2 24 15 28 250 176 27 1 127 27 1 27 27 0 90 16 15 1 15 15 36 37 159 37 1 80 37 1 47 37 63 37 2 0 37 1 28 24 24 9 35 17 94 25 3 5 9 93 8 18 
SVTCA[0]	/* SetFreedomAndProjectionVectorToAxis */
MIAP[1]	/* MoveIndirectAbsPt */
MIRP[00001]	/* MoveIndirectRelPt */
SHP[0]	/* ShiftPointByLastPoint */
MIAP[1]	/* MoveIndirectAbsPt */
MIRP[00001]	/* MoveIndirectRelPt */
SHP[0]	/* ShiftPointByLastPoint */
SRP2[ ]	/* SetRefPoint2 */
IP[ ]	/* InterpolatePts */
MDAP[1]	/* MoveDirectAbsPt */
SHP[1]	/* ShiftPointByLastPoint */
SVTCA[1]	/* SetFreedomAndProjectionVectorToAxis */
DELTAP1[ ]	/* DeltaExceptionP1 */
DELTAP1[ ]	/* DeltaExceptionP1 */
DELTAP1[ ]	/* DeltaExceptionP1 */
DELTAP1[ ]	/* DeltaExceptionP1 */
SRP1[ ]	/* SetRefPoint1 */
SRP2[ ]	/* SetRefPoint2 */
IP[ ]	/* InterpolatePts */
MDAP[1]	/* MoveDirectAbsPt */
DELTAP1[ ]	/* DeltaExceptionP1 */
MIRP[00001]	/* MoveIndirectRelPt */
SHP[0]	/* ShiftPointByLastPoint */
MDAP[1]	/* MoveDirectAbsPt */
DELTAP1[ ]	/* DeltaExceptionP1 */
DELTAP1[ ]	/* DeltaExceptionP1 */
MIRP[00001]	/* MoveIndirectRelPt */
SRP0[ ]	/* SetRefPoint0 */
MDRP[10110]	/* MoveDirectRelPt */
DELTAP1[ ]	/* DeltaExceptionP1 */
MIRP[00001]	/* MoveIndirectRelPt */
IUP[1]	/* InterpolateUntPts */
IUP[0]	/* InterpolateUntPts */";
};
width = 490;
},
{
layerId = "0ED38B93-C2B0-4B4A-9C6D-D7838A33C317";
paths = (
{
closed = 1;
nodes = (
"399 0 LINE",
"399 42 LINE",
"366 42 LINE SMOOTH",
"342 42 OFFCURVE",
"325 50 OFFCURVE",
"325 94 CURVE SMOOTH",
"325 522 LINE",
"389 522 LINE SMOOTH",
"437 522 OFFCURVE",
"451 501 OFFCURVE",
"455 466 CURVE SMOOTH",
"461 416 LINE",
"514 416 LINE",
"510 571 LINE",
"12 571 LINE",
"8 416 LINE",
"62 416 LINE",
"67 466 LINE SMOOTH",
"71 501 OFFCURVE",
"86 522 OFFCURVE",
"134 522 CURVE SMOOTH",
"198 522 LINE",
"198 94 LINE SMOOTH",
"198 50 OFFCURVE",
"181 42 OFFCURVE",
"157 42 CURVE SMOOTH",
"123 42 LINE",
"123 0 LINE"
);
}
);
userData = {
assembly = "NPUSHB[ ]	/* 74 values pushed */
175 37 191 37 239 37 3 128 37 144 37 2 37 64 9 13 72 23 255 24 1 160 24 1 47 24 1 24 24 15 28 80 27 128 27 208 27 240 27 4 27 27 0 103 0 1 0 103 15 1 31 15 1 15 28 48 24 64 24 2 24 24 9 25 35 17 17 25 3 5 9 9 8 18 
SVTCA[0]	/* SetFreedomAndProjectionVectorToAxis */
MIAP[1]	/* MoveIndirectAbsPt */
SHP[1]	/* ShiftPointByLastPoint */
SRP1[ ]	/* SetRefPoint1 */
SHP[1]	/* ShiftPointByLastPoint */
MIAP[1]	/* MoveIndirectAbsPt */
SHP[1]	/* ShiftPointByLastPoint */
SRP1[ ]	/* SetRefPoint1 */
SHP[1]	/* ShiftPointByLastPoint */
SRP1[ ]	/* SetRefPoint1 */
SRP2[ ]	/* SetRefPoint2 */
IP[ ]	/* InterpolatePts */
MDAP[1]	/* MoveDirectAbsPt */
DELTAP1[ ]	/* DeltaExceptionP1 */
SHP[1]	/* ShiftPointByLastPoint */
SVTCA[1]	/* SetFreedomAndProjectionVectorToAxis */
MDAP[1]	/* MoveDirectAbsPt */
DELTAP1[ ]	/* DeltaExceptionP1 */
DELTAP1[ ]	/* DeltaExceptionP1 */
SHP[1]	/* ShiftPointByLastPoint */
DELTAP1[ ]	/* DeltaExceptionP1 */
SRP1[ ]	/* SetRefPoint1 */
SHP[1]	/* ShiftPointByLastPoint */
MDAP[1]	/* MoveDirectAbsPt */
DELTAP1[ ]	/* DeltaExceptionP1 */
SHP[1]	/* ShiftPointByLastPoint */
SRP1[ ]	/* SetRefPoint1 */
SHP[1]	/* ShiftPointByLastPoint */
MDAP[1]	/* MoveDirectAbsPt */
DELTAP1[ ]	/* DeltaExceptionP1 */
DELTAP1[ ]	/* DeltaExceptionP1 */
DELTAP1[ ]	/* DeltaExceptionP1 */
SHP[1]	/* ShiftPointByLastPoint */
CALL[ ]	/* CallFunction */
DELTAP1[ ]	/* DeltaExceptionP1 */
DELTAP1[ ]	/* DeltaExceptionP1 */
IUP[1]	/* InterpolateUntPts */
IUP[0]	/* InterpolateUntPts */";
};
width = 522;
}
);
note = uni0054;
unicode = 0054;
},
{
color = 10;
glyphname = U;
lastChange = "2022-01-06 02:32:25 +0000";
layers = (
{
layerId = "4397B867-53E7-4964-BB9B-A578920F109C";
paths = (
{
closed = 1;
nodes = (
"406 -8 OFFCURVE",
"486 47 OFFCURVE",
"486 163 CURVE SMOOTH",
"486 480 LINE SMOOTH",
"486 530 OFFCURVE",
"516 538 OFFCURVE",
"551 538 CURVE SMOOTH",
"562 538 LINE",
"562 571 LINE",
"361 571 LINE",
"361 538 LINE",
"371 538 LINE SMOOTH",
"406 538 OFFCURVE",
"437 531 OFFCURVE",
"437 483 CURVE SMOOTH",
"437 165 LINE SMOOTH",
"437 92 OFFCURVE",
"395 40 OFFCURVE",
"302 40 CURVE SMOOTH",
"224 40 OFFCURVE",
"169 76 OFFCURVE",
"169 168 CURVE SMOOTH",
"169 480 LINE SMOOTH",
"169 530 OFFCURVE",
"199 538 OFFCURVE",
"234 538 CURVE SMOOTH",
"245 538 LINE",
"245 571 LINE",
"12 571 LINE",
"12 538 LINE",
"22 538 LINE SMOOTH",
"58 538 OFFCURVE",
"88 531 OFFCURVE",
"88 483 CURVE SMOOTH",
"88 173 LINE SMOOTH",
"88 43 OFFCURVE",
"163 -8 OFFCURVE",
"290 -8 CURVE SMOOTH"
);
}
);
userData = {
assembly = "NPUSHB[ ]	/* 37 values pushed */
32 251 49 101 55 15 55 31 55 127 55 191 55 207 55 239 55 255 55 7 22 90 5 100 54 43 39 16 12 93 40 13 3 27 95 0 19 
SVTCA[0]	/* SetFreedomAndProjectionVectorToAxis */
MIAP[1]	/* MoveIndirectAbsPt */
MIRP[00001]	/* MoveIndirectRelPt */
MIAP[1]	/* MoveIndirectAbsPt */
SHP[1]	/* ShiftPointByLastPoint */
MIRP[00001]	/* MoveIndirectRelPt */
SHP[0]	/* ShiftPointByLastPoint */
SHP[0]	/* ShiftPointByLastPoint */
SHP[0]	/* ShiftPointByLastPoint */
SVTCA[1]	/* SetFreedomAndProjectionVectorToAxis */
SRP0[ ]	/* SetRefPoint0 */
MIRP[10110]	/* MoveIndirectRelPt */
MIRP[00001]	/* MoveIndirectRelPt */
DELTAP1[ ]	/* DeltaExceptionP1 */
SRP0[ ]	/* SetRefPoint0 */
MIRP[10110]	/* MoveIndirectRelPt */
MIRP[01001]	/* MoveIndirectRelPt */
IUP[1]	/* InterpolateUntPts */
IUP[0]	/* InterpolateUntPts */";
};
width = 574;
},
{
layerId = "0ED38B93-C2B0-4B4A-9C6D-D7838A33C317";
paths = (
{
closed = 1;
nodes = (
"450 -8 OFFCURVE",
"510 58 OFFCURVE",
"510 165 CURVE SMOOTH",
"510 477 LINE SMOOTH",
"510 522 OFFCURVE",
"527 529 OFFCURVE",
"550 529 CURVE SMOOTH",
"585 529 LINE",
"585 571 LINE",
"375 571 LINE",
"375 529 LINE",
"409 529 LINE SMOOTH",
"433 529 OFFCURVE",
"450 521 OFFCURVE",
"450 480 CURVE SMOOTH",
"450 166 LINE SMOOTH",
"450 86 OFFCURVE",
"406 49 OFFCURVE",
"334 49 CURVE SMOOTH",
"261 49 OFFCURVE",
"214 79 OFFCURVE",
"214 168 CURVE SMOOTH",
"214 477 LINE SMOOTH",
"214 522 OFFCURVE",
"232 529 OFFCURVE",
"255 529 CURVE SMOOTH",
"289 529 LINE",
"289 571 LINE",
"13 571 LINE",
"13 529 LINE",
"47 529 LINE SMOOTH",
"70 529 OFFCURVE",
"88 521 OFFCURVE",
"88 480 CURVE SMOOTH",
"88 174 LINE SMOOTH",
"88 43 OFFCURVE",
"170 -8 OFFCURVE",
"310 -8 CURVE SMOOTH"
);
}
);
userData = {
assembly = "NPUSHB[ ]	/* 46 values pushed */
10 14 26 14 2 10 10 26 10 2 44 7 101 55 63 55 111 55 127 55 159 55 191 55 239 55 6 0 55 1 34 17 100 54 1 28 51 3 24 24 52 25 3 39 12 19 
SVTCA[0]	/* SetFreedomAndProjectionVectorToAxis */
MIAP[1]	/* MoveIndirectAbsPt */
SHP[1]	/* ShiftPointByLastPoint */
MIAP[1]	/* MoveIndirectAbsPt */
SHP[1]	/* ShiftPointByLastPoint */
SHP[1]	/* ShiftPointByLastPoint */
SRP1[ ]	/* SetRefPoint1 */
SLOOP[ ]	/* SetLoopVariable */
SHP[1]	/* ShiftPointByLastPoint */
SVTCA[1]	/* SetFreedomAndProjectionVectorToAxis */
SRP0[ ]	/* SetRefPoint0 */
MIRP[00110]	/* MoveIndirectRelPt */
SHP[0]	/* ShiftPointByLastPoint */
DELTAP1[ ]	/* DeltaExceptionP1 */
DELTAP1[ ]	/* DeltaExceptionP1 */
SRP0[ ]	/* SetRefPoint0 */
MIRP[00110]	/* MoveIndirectRelPt */
SHP[0]	/* ShiftPointByLastPoint */
IUP[1]	/* InterpolateUntPts */
IUP[0]	/* InterpolateUntPts */
SVTCA[0]	/* SetFreedomAndProjectionVectorToAxis */
DELTAP1[ ]	/* DeltaExceptionP1 */
DELTAP1[ ]	/* DeltaExceptionP1 */";
};
width = 598;
}
);
note = uni0055;
unicode = 0055;
},
{
color = 10;
glyphname = V;
lastChange = "2022-01-06 02:32:25 +0000";
layers = (
{
layerId = "4397B867-53E7-4964-BB9B-A578920F109C";
paths = (
{
closed = 1;
nodes = (
"298 0 LINE",
"464 475 LINE SMOOTH",
"482 528 OFFCURVE",
"494 538 OFFCURVE",
"525 538 CURVE SMOOTH",
"540 538 LINE",
"540 571 LINE",
"345 571 LINE",
"345 538 LINE",
"363 538 LINE SMOOTH",
"398 538 OFFCURVE",
"416 526 OFFCURVE",
"416 498 CURVE SMOOTH",
"416 490 OFFCURVE",
"413 477 OFFCURVE",
"409 464 CURVE SMOOTH",
"321 210 LINE SMOOTH",
"303 160 OFFCURVE",
"292 117 OFFCURVE",
"284 78 CURVE",
"275 117 OFFCURVE",
"264 162 OFFCURVE",
"248 210 CURVE SMOOTH",
"160 470 LINE SMOOTH",
"156 482 OFFCURVE",
"154 490 OFFCURVE",
"154 499 CURVE SMOOTH",
"154 526 OFFCURVE",
"170 538 OFFCURVE",
"202 538 CURVE SMOOTH",
"220 538 LINE",
"220 571 LINE",
"0 571 LINE",
"0 538 LINE",
"10 538 LINE SMOOTH",
"42 538 OFFCURVE",
"56 529 OFFCURVE",
"67 495 CURVE SMOOTH",
"240 0 LINE"
);
}
);
userData = {
assembly = "NPUSHB[ ]	/* 47 values pushed */
175 44 1 44 64 10 13 72 6 19 22 19 2 7 18 23 18 2 25 41 41 42 0 21 21 7 35 44 15 44 1 17 1 1 7 21 0 36 32 11 7 93 33 8 3 0 18 
SVTCA[0]	/* SetFreedomAndProjectionVectorToAxis */
MIAP[1]	/* MoveIndirectAbsPt */
MIAP[1]	/* MoveIndirectAbsPt */
SHP[1]	/* ShiftPointByLastPoint */
MIRP[00001]	/* MoveIndirectRelPt */
SHP[0]	/* ShiftPointByLastPoint */
SHP[0]	/* ShiftPointByLastPoint */
SHP[0]	/* ShiftPointByLastPoint */
SRP1[ ]	/* SetRefPoint1 */
IP[ ]	/* InterpolatePts */
SVTCA[1]	/* SetFreedomAndProjectionVectorToAxis */
MDAP[1]	/* MoveDirectAbsPt */
SHP[0]	/* ShiftPointByLastPoint */
SRP1[ ]	/* SetRefPoint1 */
SHP[1]	/* ShiftPointByLastPoint */
DELTAP1[ ]	/* DeltaExceptionP1 */
SRP0[ ]	/* SetRefPoint0 */
MDRP[00100]	/* MoveDirectRelPt */
SRP1[ ]	/* SetRefPoint1 */
IP[ ]	/* InterpolatePts */
SRP1[ ]	/* SetRefPoint1 */
SHP[1]	/* ShiftPointByLastPoint */
SHP[1]	/* ShiftPointByLastPoint */
SHP[0]	/* ShiftPointByLastPoint */
SRP1[ ]	/* SetRefPoint1 */
SHP[1]	/* ShiftPointByLastPoint */
IUP[1]	/* InterpolateUntPts */
IUP[0]	/* InterpolateUntPts */
DELTAP1[ ]	/* DeltaExceptionP1 */
DELTAP1[ ]	/* DeltaExceptionP1 */
CALL[ ]	/* CallFunction */
DELTAP1[ ]	/* DeltaExceptionP1 */";
};
width = 540;
},
{
layerId = "0ED38B93-C2B0-4B4A-9C6D-D7838A33C317";
paths = (
{
closed = 1;
nodes = (
"318 0 LINE",
"482 470 LINE SMOOTH",
"498 519 OFFCURVE",
"506 529 OFFCURVE",
"520 529 CURVE SMOOTH",
"558 529 LINE",
"558 571 LINE",
"352 571 LINE",
"352 529 LINE",
"394 529 LINE SMOOTH",
"413 529 OFFCURVE",
"426 519 OFFCURVE",
"426 502 CURVE SMOOTH",
"426 492 OFFCURVE",
"419 472 OFFCURVE",
"416 462 CURVE SMOOTH",
"334 219 LINE SMOOTH",
"325 190 OFFCURVE",
"310 145 OFFCURVE",
"307 125 CURVE",
"304 154 OFFCURVE",
"294 197 OFFCURVE",
"285 222 CURVE SMOOTH",
"203 468 LINE SMOOTH",
"200 477 OFFCURVE",
"196 492 OFFCURVE",
"196 502 CURVE SMOOTH",
"196 522 OFFCURVE",
"211 529 OFFCURVE",
"227 529 CURVE SMOOTH",
"264 529 LINE",
"264 571 LINE",
"0 571 LINE",
"0 529 LINE",
"18 529 LINE SMOOTH",
"34 529 OFFCURVE",
"58 521 OFFCURVE",
"68 490 CURVE SMOOTH",
"238 0 LINE"
);
}
);
userData = {
assembly = "NPUSHB[ ]	/* 9 values pushed */
181 7 1 150 7 166 7 2 7 
PUSHW[ ]	/* 1 value pushed */
-16 
NPUSHB[ ]	/* 117 values pushed */
12 15 72 8 32 20 24 72 170 8 1 25 8 1 8 16 13 18 72 8 7 33 33 6 102 24 1 24 15 148 9 164 9 196 9 3 121 9 1 105 9 1 4 9 52 9 2 9 15 52 31 52 63 52 79 52 127 52 191 52 223 52 7 44 0 223 6 255 6 2 189 6 1 6 32 16 19 72 102 6 1 11 6 27 6 59 6 91 6 4 6 6 9 44 24 4 7 1 19 48 3 15 15 49 16 3 20 33 68 33 196 33 3 33 8 7 18 
SVTCA[0]	/* SetFreedomAndProjectionVectorToAxis */
MIAP[1]	/* MoveIndirectAbsPt */
SHP[1]	/* ShiftPointByLastPoint */
SHP[1]	/* ShiftPointByLastPoint */
DELTAP1[ ]	/* DeltaExceptionP1 */
MIAP[1]	/* MoveIndirectAbsPt */
SHP[1]	/* ShiftPointByLastPoint */
SHP[1]	/* ShiftPointByLastPoint */
SRP1[ ]	/* SetRefPoint1 */
SLOOP[ ]	/* SetLoopVariable */
SHP[1]	/* ShiftPointByLastPoint */
SRP2[ ]	/* SetRefPoint2 */
SLOOP[ ]	/* SetLoopVariable */
IP[ ]	/* InterpolatePts */
SVTCA[1]	/* SetFreedomAndProjectionVectorToAxis */
MDAP[1]	/* MoveDirectAbsPt */
DELTAP1[ ]	/* DeltaExceptionP1 */
DELTAP1[ ]	/* DeltaExceptionP1 */
CALL[ ]	/* CallFunction */
DELTAP1[ ]	/* DeltaExceptionP1 */
DELTAP1[ ]	/* DeltaExceptionP1 */
SHP[1]	/* ShiftPointByLastPoint */
SHP[1]	/* ShiftPointByLastPoint */
DELTAP1[ ]	/* DeltaExceptionP1 */
MDAP[1]	/* MoveDirectAbsPt */
DELTAP1[ ]	/* DeltaExceptionP1 */
DELTAP1[ ]	/* DeltaExceptionP1 */
DELTAP1[ ]	/* DeltaExceptionP1 */
DELTAP1[ ]	/* DeltaExceptionP1 */
SHP[1]	/* ShiftPointByLastPoint */
SHP[1]	/* ShiftPointByLastPoint */
DELTAP1[ ]	/* DeltaExceptionP1 */
SRP2[ ]	/* SetRefPoint2 */
IP[ ]	/* InterpolatePts */
SRP1[ ]	/* SetRefPoint1 */
SHP[1]	/* ShiftPointByLastPoint */
SHP[1]	/* ShiftPointByLastPoint */
IUP[1]	/* InterpolateUntPts */
IUP[0]	/* InterpolateUntPts */
CALL[ ]	/* CallFunction */
DELTAP1[ ]	/* DeltaExceptionP1 */
DELTAP1[ ]	/* DeltaExceptionP1 */
CALL[ ]	/* CallFunction */
CALL[ ]	/* CallFunction */
DELTAP1[ ]	/* DeltaExceptionP1 */
DELTAP1[ ]	/* DeltaExceptionP1 */";
};
width = 558;
}
);
note = uni0056;
unicode = 0056;
},
{
color = 10;
glyphname = W;
lastChange = "2022-01-06 02:32:25 +0000";
layers = (
{
background = {
paths = (
{
closed = 1;
nodes = (
"294 0 LINE",
"417 448 LINE",
"547 0 LINE",
"619 0 LINE",
"754 475 LINE SMOOTH",
"770 527 OFFCURVE",
"784 538 OFFCURVE",
"815 538 CURVE SMOOTH",
"830 538 LINE",
"830 571 LINE",
"635 571 LINE",
"635 538 LINE",
"654 538 LINE SMOOTH",
"689 538 OFFCURVE",
"706 526 OFFCURVE",
"706 498 CURVE SMOOTH",
"706 487 OFFCURVE",
"702 471 OFFCURVE",
"698 457 CURVE SMOOTH",
"627 210 LINE SMOOTH",
"613 158 OFFCURVE",
"603 117 OFFCURVE",
"595 78 CURVE",
"588 115 OFFCURVE",
"576 166 OFFCURVE",
"561 219 CURVE SMOOTH",
"461 566 LINE",
"403 566 LINE",
"308 222 LINE SMOOTH",
"294 170 OFFCURVE",
"283 120 OFFCURVE",
"275 78 CURVE",
"266 117 OFFCURVE",
"254 166 OFFCURVE",
"241 214 CURVE SMOOTH",
"167 470 LINE",
"163 486 LINE SMOOTH",
"162 490 OFFCURVE",
"161 494 OFFCURVE",
"161 499 CURVE SMOOTH",
"161 526 OFFCURVE",
"177 538 OFFCURVE",
"209 538 CURVE SMOOTH",
"227 538 LINE",
"227 571 LINE",
"7 571 LINE",
"7 538 LINE",
"18 538 LINE SMOOTH",
"50 538 OFFCURVE",
"64 529 OFFCURVE",
"74 495 CURVE SMOOTH",
"221 0 LINE"
);
}
);
};
layerId = "4397B867-53E7-4964-BB9B-A578920F109C";
paths = (
{
closed = 1;
nodes = (
"294 0 LINE",
"417 448 LINE",
"547 0 LINE",
"619 0 LINE",
"754 475 LINE SMOOTH",
"770 527 OFFCURVE",
"784 538 OFFCURVE",
"815 538 CURVE SMOOTH",
"830 538 LINE",
"830 571 LINE",
"635 571 LINE",
"635 538 LINE",
"654 538 LINE SMOOTH",
"689 538 OFFCURVE",
"706 526 OFFCURVE",
"706 498 CURVE SMOOTH",
"706 487 OFFCURVE",
"702 471 OFFCURVE",
"698 457 CURVE SMOOTH",
"627 210 LINE SMOOTH",
"613 158 OFFCURVE",
"603 117 OFFCURVE",
"595 78 CURVE",
"588 115 OFFCURVE",
"576 166 OFFCURVE",
"561 219 CURVE SMOOTH",
"461 566 LINE",
"403 566 LINE",
"308 222 LINE SMOOTH",
"294 170 OFFCURVE",
"283 120 OFFCURVE",
"275 78 CURVE",
"266 117 OFFCURVE",
"254 166 OFFCURVE",
"241 214 CURVE SMOOTH",
"167 470 LINE SMOOTH",
"163 484 OFFCURVE",
"161 494 OFFCURVE",
"161 499 CURVE SMOOTH",
"161 526 OFFCURVE",
"177 538 OFFCURVE",
"209 538 CURVE SMOOTH",
"227 538 LINE",
"227 571 LINE",
"7 571 LINE",
"7 538 LINE",
"18 538 LINE SMOOTH",
"50 538 OFFCURVE",
"65 529 OFFCURVE",
"74 495 CURVE SMOOTH",
"221 0 LINE"
);
}
);
userData = {
assembly = "NPUSHB[ ]	/* 103 values pushed */
47 58 63 58 79 58 175 58 4 8 55 1 6 49 1 41 31 1 71 27 1 8 7 1 39 1 1 6 1 1 39 0 1 6 0 1 8 26 26 25 31 1 31 30 52 56 22 0 1 0 29 25 28 1 28 27 4 38 52 1 5 52 21 52 2 8 4 24 4 2 4 29 52 3 38 16 19 1 19 58 48 32 32 38 4 52 29 3 31 42 21 17 38 93 39 56 56 18 39 3 28 31 18 
SVTCA[0]	/* SetFreedomAndProjectionVectorToAxis */
MIAP[1]	/* MoveIndirectAbsPt */
SHP[1]	/* ShiftPointByLastPoint */
MIAP[1]	/* MoveIndirectAbsPt */
SHP[1]	/* ShiftPointByLastPoint */
SHP[1]	/* ShiftPointByLastPoint */
MDAP[1]	/* MoveDirectAbsPt */
SRP0[ ]	/* SetRefPoint0 */
MIRP[00001]	/* MoveIndirectRelPt */
SHP[0]	/* ShiftPointByLastPoint */
SHP[0]	/* ShiftPointByLastPoint */
SHP[0]	/* ShiftPointByLastPoint */
SRP1[ ]	/* SetRefPoint1 */
SLOOP[ ]	/* SetLoopVariable */
IP[ ]	/* InterpolatePts */
SVTCA[1]	/* SetFreedomAndProjectionVectorToAxis */
MDAP[1]	/* MoveDirectAbsPt */
SHP[0]	/* ShiftPointByLastPoint */
SRP1[ ]	/* SetRefPoint1 */
SHP[1]	/* ShiftPointByLastPoint */
SRP0[ ]	/* SetRefPoint0 */
MDRP[00110]	/* MoveDirectRelPt */
DELTAP1[ ]	/* DeltaExceptionP1 */
SRP1[ ]	/* SetRefPoint1 */
SLOOP[ ]	/* SetLoopVariable */
IP[ ]	/* InterpolatePts */
DELTAP1[ ]	/* DeltaExceptionP1 */
DELTAP1[ ]	/* DeltaExceptionP1 */
DELTAP1[ ]	/* DeltaExceptionP1 */
SRP1[ ]	/* SetRefPoint1 */
SHP[1]	/* ShiftPointByLastPoint */
SHP[1]	/* ShiftPointByLastPoint */
DELTAP1[ ]	/* DeltaExceptionP1 */
SRP1[ ]	/* SetRefPoint1 */
SHP[1]	/* ShiftPointByLastPoint */
DELTAP1[ ]	/* DeltaExceptionP1 */
SHP[1]	/* ShiftPointByLastPoint */
SRP1[ ]	/* SetRefPoint1 */
SHP[1]	/* ShiftPointByLastPoint */
SHP[1]	/* ShiftPointByLastPoint */
DELTAP1[ ]	/* DeltaExceptionP1 */
SHP[0]	/* ShiftPointByLastPoint */
SRP1[ ]	/* SetRefPoint1 */
SHP[1]	/* ShiftPointByLastPoint */
IUP[1]	/* InterpolateUntPts */
IUP[0]	/* InterpolateUntPts */
DELTAP1[ ]	/* DeltaExceptionP1 */
DELTAP1[ ]	/* DeltaExceptionP1 */
DELTAP1[ ]	/* DeltaExceptionP1 */
DELTAP1[ ]	/* DeltaExceptionP1 */
DELTAP1[ ]	/* DeltaExceptionP1 */
DELTAP1[ ]	/* DeltaExceptionP1 */
DELTAP1[ ]	/* DeltaExceptionP1 */
DELTAP1[ ]	/* DeltaExceptionP1 */
DELTAP1[ ]	/* DeltaExceptionP1 */
DELTAP1[ ]	/* DeltaExceptionP1 */";
};
width = 838;
},
{
layerId = "0ED38B93-C2B0-4B4A-9C6D-D7838A33C317";
paths = (
{
closed = 1;
nodes = (
"313 0 LINE",
"428 375 LINE",
"562 0 LINE",
"654 0 LINE",
"778 466 LINE SMOOTH",
"792 518 OFFCURVE",
"806 529 OFFCURVE",
"838 529 CURVE SMOOTH",
"854 529 LINE",
"854 571 LINE",
"645 571 LINE",
"645 529 LINE",
"663 529 LINE SMOOTH",
"698 529 OFFCURVE",
"714 518 OFFCURVE",
"714 491 CURVE SMOOTH",
"714 482 OFFCURVE",
"710 462 OFFCURVE",
"707 448 CURVE SMOOTH",
"665 275 LINE SMOOTH",
"650 213 OFFCURVE",
"641 163 OFFCURVE",
"633 127 CURVE",
"627 156 OFFCURVE",
"611 213 OFFCURVE",
"594 260 CURVE SMOOTH",
"483 566 LINE",
"425 566 LINE",
"319 223 LINE SMOOTH",
"310 192 OFFCURVE",
"301 163 OFFCURVE",
"294 129 CURVE",
"290 165 OFFCURVE",
"274 222 OFFCURVE",
"262 262 CURVE SMOOTH",
"209 447 LINE SMOOTH",
"205 462 OFFCURVE",
"201 482 OFFCURVE",
"201 490 CURVE SMOOTH",
"201 517 OFFCURVE",
"217 529 OFFCURVE",
"249 529 CURVE SMOOTH",
"267 529 LINE",
"267 571 LINE",
"0 571 LINE",
"0 529 LINE",
"10 529 LINE SMOOTH",
"41 529 OFFCURVE",
"58 520 OFFCURVE",
"67 486 CURVE SMOOTH",
"214 0 LINE"
);
}
);
userData = {
assembly = "NPUSHB[ ]	/* 158 values pushed */
9 62 1 57 35 73 35 89 35 3 24 35 1 53 34 69 34 85 34 117 34 133 34 149 34 6 39 34 1 5 34 1 35 34 58 103 62 1 62 0 33 122 32 1 104 32 1 58 32 74 32 2 39 31 55 31 87 31 103 31 119 31 151 31 167 31 7 5 31 1 32 31 6 52 58 1 38 58 1 6 33 58 3 30 70 49 86 49 102 49 3 49 42 144 36 176 36 192 36 208 36 4 4 36 1 36 24 17 175 30 239 30 255 30 3 20 30 1 11 30 1 30 15 64 95 64 175 64 3 30 36 49 17 4 31 33 64 13 17 72 47 33 1 21 25 33 46 4 42 22 62 42 3 43 3 6 58 58 
PUSHW[ ]	/* 1 value pushed */
-32 
NPUSHB[ ]	/* 15 values pushed */
13 17 72 38 58 54 58 2 20 58 1 58 35 31 18 
SVTCA[0]	/* SetFreedomAndProjectionVectorToAxis */
MIAP[1]	/* MoveIndirectAbsPt */
SHP[1]	/* ShiftPointByLastPoint */
SHP[1]	/* ShiftPointByLastPoint */
DELTAP1[ ]	/* DeltaExceptionP1 */
DELTAP1[ ]	/* DeltaExceptionP1 */
CALL[ ]	/* CallFunction */
SRP1[ ]	/* SetRefPoint1 */
SHP[1]	/* ShiftPointByLastPoint */
MIAP[1]	/* MoveIndirectAbsPt */
SLOOP[ ]	/* SetLoopVariable */
SHP[1]	/* ShiftPointByLastPoint */
SRP1[ ]	/* SetRefPoint1 */
SLOOP[ ]	/* SetLoopVariable */
SHP[1]	/* ShiftPointByLastPoint */
DELTAP1[ ]	/* DeltaExceptionP1 */
CALL[ ]	/* CallFunction */
SRP2[ ]	/* SetRefPoint2 */
SLOOP[ ]	/* SetLoopVariable */
IP[ ]	/* InterpolatePts */
SVTCA[1]	/* SetFreedomAndProjectionVectorToAxis */
DELTAP1[ ]	/* DeltaExceptionP1 */
MDAP[1]	/* MoveDirectAbsPt */
DELTAP1[ ]	/* DeltaExceptionP1 */
DELTAP1[ ]	/* DeltaExceptionP1 */
DELTAP1[ ]	/* DeltaExceptionP1 */
SHP[1]	/* ShiftPointByLastPoint */
SHP[1]	/* ShiftPointByLastPoint */
MDAP[1]	/* MoveDirectAbsPt */
DELTAP1[ ]	/* DeltaExceptionP1 */
DELTAP1[ ]	/* DeltaExceptionP1 */
SHP[1]	/* ShiftPointByLastPoint */
SHP[1]	/* ShiftPointByLastPoint */
DELTAP1[ ]	/* DeltaExceptionP1 */
SRP2[ ]	/* SetRefPoint2 */
SLOOP[ ]	/* SetLoopVariable */
IP[ ]	/* InterpolatePts */
DELTAP1[ ]	/* DeltaExceptionP1 */
DELTAP1[ ]	/* DeltaExceptionP1 */
SRP1[ ]	/* SetRefPoint1 */
SHP[1]	/* ShiftPointByLastPoint */
SHP[1]	/* ShiftPointByLastPoint */
DELTAP1[ ]	/* DeltaExceptionP1 */
DELTAP1[ ]	/* DeltaExceptionP1 */
DELTAP1[ ]	/* DeltaExceptionP1 */
DELTAP1[ ]	/* DeltaExceptionP1 */
DELTAP1[ ]	/* DeltaExceptionP1 */
SRP1[ ]	/* SetRefPoint1 */
SHP[1]	/* ShiftPointByLastPoint */
SHP[1]	/* ShiftPointByLastPoint */
DELTAP1[ ]	/* DeltaExceptionP1 */
SRP1[ ]	/* SetRefPoint1 */
SHP[1]	/* ShiftPointByLastPoint */
SHP[1]	/* ShiftPointByLastPoint */
DELTAP1[ ]	/* DeltaExceptionP1 */
DELTAP1[ ]	/* DeltaExceptionP1 */
DELTAP1[ ]	/* DeltaExceptionP1 */
DELTAP1[ ]	/* DeltaExceptionP1 */
DELTAP1[ ]	/* DeltaExceptionP1 */
IUP[1]	/* InterpolateUntPts */
IUP[0]	/* InterpolateUntPts */
DELTAP1[ ]	/* DeltaExceptionP1 */";
};
width = 854;
}
);
note = uni0057;
unicode = 0057;
},
{
color = 10;
glyphname = X;
lastChange = "2022-01-06 02:32:25 +0000";
layers = (
{
layerId = "4397B867-53E7-4964-BB9B-A578920F109C";
paths = (
{
closed = 1;
nodes = (
"197 0 LINE",
"197 34 LINE",
"194 34 LINE SMOOTH",
"159 34 OFFCURVE",
"142 40 OFFCURVE",
"142 58 CURVE SMOOTH",
"142 76 OFFCURVE",
"154 98 OFFCURVE",
"163 111 CURVE SMOOTH",
"252 242 LINE",
"331 115 LINE SMOOTH",
"353 80 OFFCURVE",
"358 73 OFFCURVE",
"358 60 CURVE SMOOTH",
"358 42 OFFCURVE",
"342 34 OFFCURVE",
"310 34 CURVE SMOOTH",
"306 34 LINE",
"306 0 LINE",
"522 0 LINE",
"522 34 LINE",
"511 34 LINE SMOOTH",
"491 34 OFFCURVE",
"470 45 OFFCURVE",
"447 76 CURVE",
"300 313 LINE",
"416 480 LINE SMOOTH",
"446 523 OFFCURVE",
"464 538 OFFCURVE",
"495 538 CURVE SMOOTH",
"502 538 LINE",
"502 571 LINE",
"327 571 LINE",
"327 538 LINE",
"330 538 LINE SMOOTH",
"353 538 OFFCURVE",
"373 534 OFFCURVE",
"373 514 CURVE SMOOTH",
"373 500 OFFCURVE",
"365 484 OFFCURVE",
"353 466 CURVE SMOOTH",
"277 350 LINE",
"205 467 LINE SMOOTH",
"189 493 OFFCURVE",
"186 502 OFFCURVE",
"186 514 CURVE SMOOTH",
"186 529 OFFCURVE",
"197 538 OFFCURVE",
"231 538 CURVE SMOOTH",
"234 538 LINE",
"234 571 LINE",
"17 571 LINE",
"17 538 LINE",
"27 538 LINE SMOOTH",
"51 538 OFFCURVE",
"77 526 OFFCURVE",
"96 495 CURVE SMOOTH",
"228 281 LINE",
"94 90 LINE SMOOTH",
"66 48 OFFCURVE",
"50 34 OFFCURVE",
"11 34 CURVE SMOOTH",
"6 34 LINE",
"6 0 LINE"
);
}
);
userData = {
assembly = "NPUSHB[ ]	/* 88 values pushed */
31 78 47 78 63 78 175 78 4 73 73 74 16 16 15 17 72 17 53 53 52 33 33 34 32 54 32 16 16 17 33 33 32 34 15 34 73 73 72 53 53 54 52 74 52 32 17 17 21 74 15 15 9 64 21 1 21 78 72 54 54 58 34 52 52 45 33 53 16 73 4 46 61 9 6 58 93 7 59 3 43 24 21 46 93 23 45 18 
SVTCA[0]	/* SetFreedomAndProjectionVectorToAxis */
MIAP[1]	/* MoveIndirectAbsPt */
SHP[1]	/* ShiftPointByLastPoint */
MIRP[00001]	/* MoveIndirectRelPt */
SHP[0]	/* ShiftPointByLastPoint */
SHP[0]	/* ShiftPointByLastPoint */
SHP[0]	/* ShiftPointByLastPoint */
MIAP[1]	/* MoveIndirectAbsPt */
SHP[1]	/* ShiftPointByLastPoint */
MIRP[00001]	/* MoveIndirectRelPt */
SHP[0]	/* ShiftPointByLastPoint */
SHP[0]	/* ShiftPointByLastPoint */
SHP[0]	/* ShiftPointByLastPoint */
SRP1[ ]	/* SetRefPoint1 */
SLOOP[ ]	/* SetLoopVariable */
IP[ ]	/* InterpolatePts */
SVTCA[1]	/* SetFreedomAndProjectionVectorToAxis */
MDAP[1]	/* MoveDirectAbsPt */
SHP[1]	/* ShiftPointByLastPoint */
SRP1[ ]	/* SetRefPoint1 */
SHP[1]	/* ShiftPointByLastPoint */
MDRP[00100]	/* MoveDirectRelPt */
SHP[0]	/* ShiftPointByLastPoint */
SRP1[ ]	/* SetRefPoint1 */
SHP[1]	/* ShiftPointByLastPoint */
SRP0[ ]	/* SetRefPoint0 */
MDRP[10110]	/* MoveDirectRelPt */
DELTAP1[ ]	/* DeltaExceptionP1 */
MDRP[00110]	/* MoveDirectRelPt */
SHP[0]	/* ShiftPointByLastPoint */
SRP1[ ]	/* SetRefPoint1 */
SHP[1]	/* ShiftPointByLastPoint */
SRP1[ ]	/* SetRefPoint1 */
SHP[1]	/* ShiftPointByLastPoint */
SRP1[ ]	/* SetRefPoint1 */
SHP[1]	/* ShiftPointByLastPoint */
IUP[1]	/* InterpolateUntPts */
IUP[0]	/* InterpolateUntPts */
SRP0[ ]	/* SetRefPoint0 */
RDTG[ ]	/* RoundDownToGrid */
SDPVTL[1]	/* SetDualPVectorToLine */
SFVTL[0]	/* SetFVectorToLine */
MDRP[00100]	/* MoveDirectRelPt */
SFVTL[0]	/* SetFVectorToLine */
MDRP[00100]	/* MoveDirectRelPt */
SRP0[ ]	/* SetRefPoint0 */
SDPVTL[1]	/* SetDualPVectorToLine */
SFVTL[0]	/* SetFVectorToLine */
MDRP[00100]	/* MoveDirectRelPt */
SFVTL[0]	/* SetFVectorToLine */
MDRP[00100]	/* MoveDirectRelPt */
SRP0[ ]	/* SetRefPoint0 */
SDPVTL[1]	/* SetDualPVectorToLine */
SFVTL[0]	/* SetFVectorToLine */
MDRP[00100]	/* MoveDirectRelPt */
SFVTL[0]	/* SetFVectorToLine */
MDRP[00100]	/* MoveDirectRelPt */
SRP0[ ]	/* SetRefPoint0 */
SDPVTL[1]	/* SetDualPVectorToLine */
SFVTL[0]	/* SetFVectorToLine */
MDRP[00100]	/* MoveDirectRelPt */
SFVTL[0]	/* SetFVectorToLine */
MDRP[00100]	/* MoveDirectRelPt */
SVTCA[1]	/* SetFreedomAndProjectionVectorToAxis */
DELTAP1[ ]	/* DeltaExceptionP1 */";
};
width = 528;
},
{
layerId = "0ED38B93-C2B0-4B4A-9C6D-D7838A33C317";
paths = (
{
closed = 1;
nodes = (
"210 0 LINE",
"210 42 LINE",
"207 42 LINE SMOOTH",
"172 42 OFFCURVE",
"158 52 OFFCURVE",
"158 70 CURVE SMOOTH",
"158 86 OFFCURVE",
"170 105 OFFCURVE",
"179 118 CURVE SMOOTH",
"266 235 LINE",
"339 124 LINE SMOOTH",
"359 94 OFFCURVE",
"366 82 OFFCURVE",
"366 69 CURVE SMOOTH",
"366 51 OFFCURVE",
"350 42 OFFCURVE",
"318 42 CURVE SMOOTH",
"314 42 LINE",
"314 0 LINE",
"578 0 LINE",
"578 42 LINE",
"567 42 LINE SMOOTH",
"547 42 OFFCURVE",
"524 52 OFFCURVE",
"503 85 CURVE SMOOTH",
"356 313 LINE",
"472 471 LINE SMOOTH",
"502 514 OFFCURVE",
"520 529 OFFCURVE",
"551 529 CURVE SMOOTH",
"558 529 LINE",
"558 571 LINE",
"371 571 LINE",
"371 529 LINE",
"374 529 LINE SMOOTH",
"399 529 OFFCURVE",
"418 525 OFFCURVE",
"418 506 CURVE SMOOTH",
"418 491 OFFCURVE",
"406 471 OFFCURVE",
"397 457 CURVE",
"327 359 LINE",
"261 458 LINE SMOOTH",
"249 477 OFFCURVE",
"240 494 OFFCURVE",
"240 506 CURVE SMOOTH",
"240 518 OFFCURVE",
"250 529 OFFCURVE",
"287 529 CURVE SMOOTH",
"290 529 LINE",
"290 571 LINE",
"25 571 LINE",
"25 529 LINE",
"35 529 LINE SMOOTH",
"71 529 OFFCURVE",
"86 514 OFFCURVE",
"104 486 CURVE SMOOTH",
"236 281 LINE",
"96 98 LINE SMOOTH",
"70 64 OFFCURVE",
"50 42 OFFCURVE",
"13 42 CURVE SMOOTH",
"8 42 LINE",
"8 0 LINE"
);
}
);
userData = {
assembly = "NPUSHB[ ]	/* 181 values pushed */
25 33 1 25 51 1 22 16 86 16 2 22 71 86 71 2 71 50 0 16 37 15 17 67 17 32 33 37 15 51 50 0 52 27 32 27 119 67 167 67 183 67 3 70 67 86 67 102 67 3 67 58 4 52 68 52 228 52 3 52 16 33 34 37 15 37 34 15 37 72 71 51 50 0 72 0 44 37 52 3 228 50 1 80 50 192 50 208 50 3 4 50 68 50 2 50 120 27 168 27 184 27 3 73 27 89 27 105 27 3 27 17 0 9 228 15 1 123 15 155 15 2 111 15 1 91 15 1 15 15 21 235 17 1 80 17 176 17 2 68 17 1 48 17 1 4 17 1 17 27 37 17 50 33 51 16 71 15 52 67 0 12 20 6 9 61 3 58 58 7 59 3 24 40 44 3 20 20 23 43 18 
SVTCA[0]	/* SetFreedomAndProjectionVectorToAxis */
MIAP[1]	/* MoveIndirectAbsPt */
SHP[1]	/* ShiftPointByLastPoint */
SHP[1]	/* ShiftPointByLastPoint */
SRP1[ ]	/* SetRefPoint1 */
SLOOP[ ]	/* SetLoopVariable */
SHP[1]	/* ShiftPointByLastPoint */
MIAP[1]	/* MoveIndirectAbsPt */
SHP[1]	/* ShiftPointByLastPoint */
SHP[1]	/* ShiftPointByLastPoint */
SRP1[ ]	/* SetRefPoint1 */
SLOOP[ ]	/* SetLoopVariable */
SHP[1]	/* ShiftPointByLastPoint */
SRP2[ ]	/* SetRefPoint2 */
SLOOP[ ]	/* SetLoopVariable */
IP[ ]	/* InterpolatePts */
SVTCA[1]	/* SetFreedomAndProjectionVectorToAxis */
MDAP[1]	/* MoveDirectAbsPt */
DELTAP1[ ]	/* DeltaExceptionP1 */
DELTAP1[ ]	/* DeltaExceptionP1 */
DELTAP1[ ]	/* DeltaExceptionP1 */
DELTAP1[ ]	/* DeltaExceptionP1 */
DELTAP1[ ]	/* DeltaExceptionP1 */
SHP[1]	/* ShiftPointByLastPoint */
SHP[1]	/* ShiftPointByLastPoint */
MDAP[1]	/* MoveDirectAbsPt */
DELTAP1[ ]	/* DeltaExceptionP1 */
DELTAP1[ ]	/* DeltaExceptionP1 */
DELTAP1[ ]	/* DeltaExceptionP1 */
DELTAP1[ ]	/* DeltaExceptionP1 */
SHP[1]	/* ShiftPointByLastPoint */
SHP[1]	/* ShiftPointByLastPoint */
SRP1[ ]	/* SetRefPoint1 */
SHP[1]	/* ShiftPointByLastPoint */
DELTAP1[ ]	/* DeltaExceptionP1 */
DELTAP1[ ]	/* DeltaExceptionP1 */
MDAP[1]	/* MoveDirectAbsPt */
DELTAP1[ ]	/* DeltaExceptionP1 */
DELTAP1[ ]	/* DeltaExceptionP1 */
DELTAP1[ ]	/* DeltaExceptionP1 */
SLOOP[ ]	/* SetLoopVariable */
SHP[1]	/* ShiftPointByLastPoint */
SRP2[ ]	/* SetRefPoint2 */
SVTCA[0]	/* SetFreedomAndProjectionVectorToAxis */
IP[ ]	/* InterpolatePts */
SDPVTL[1]	/* SetDualPVectorToLine */
SFVTCA[1]	/* SetFVectorToAxis */
MDRP[00000]	/* MoveDirectRelPt */
MDRP[00000]	/* MoveDirectRelPt */
MDRP[00000]	/* MoveDirectRelPt */
SRP1[ ]	/* SetRefPoint1 */
SRP2[ ]	/* SetRefPoint2 */
SVTCA[0]	/* SetFreedomAndProjectionVectorToAxis */
IP[ ]	/* InterpolatePts */
SRP0[ ]	/* SetRefPoint0 */
SDPVTL[1]	/* SetDualPVectorToLine */
SFVTCA[1]	/* SetFVectorToAxis */
MDRP[00000]	/* MoveDirectRelPt */
MDRP[00000]	/* MoveDirectRelPt */
MDRP[00000]	/* MoveDirectRelPt */
SVTCA[1]	/* SetFreedomAndProjectionVectorToAxis */
MDAP[1]	/* MoveDirectAbsPt */
DELTAP1[ ]	/* DeltaExceptionP1 */
SHP[1]	/* ShiftPointByLastPoint */
SHP[1]	/* ShiftPointByLastPoint */
DELTAP1[ ]	/* DeltaExceptionP1 */
DELTAP1[ ]	/* DeltaExceptionP1 */
SRP2[ ]	/* SetRefPoint2 */
SVTCA[0]	/* SetFreedomAndProjectionVectorToAxis */
IP[ ]	/* InterpolatePts */
SDPVTL[1]	/* SetDualPVectorToLine */
SFVTL[0]	/* SetFVectorToLine */
MDRP[00000]	/* MoveDirectRelPt */
SFVTL[0]	/* SetFVectorToLine */
MDRP[00000]	/* MoveDirectRelPt */
SFVTCA[1]	/* SetFVectorToAxis */
MDRP[00000]	/* MoveDirectRelPt */
SRP0[ ]	/* SetRefPoint0 */
SDPVTL[1]	/* SetDualPVectorToLine */
SFVTL[0]	/* SetFVectorToLine */
MDRP[00000]	/* MoveDirectRelPt */
SFVTL[0]	/* SetFVectorToLine */
MDRP[00000]	/* MoveDirectRelPt */
IUP[1]	/* InterpolateUntPts */
IUP[0]	/* InterpolateUntPts */
SVTCA[1]	/* SetFreedomAndProjectionVectorToAxis */
DELTAP1[ ]	/* DeltaExceptionP1 */
DELTAP1[ ]	/* DeltaExceptionP1 */
DELTAP1[ ]	/* DeltaExceptionP1 */
DELTAP1[ ]	/* DeltaExceptionP1 */";
};
width = 586;
}
);
note = uni0058;
unicode = 0058;
},
{
color = 10;
glyphname = Y;
lastChange = "2022-01-06 02:32:25 +0000";
layers = (
{
layerId = "4397B867-53E7-4964-BB9B-A578920F109C";
paths = (
{
closed = 1;
nodes = (
"376 0 LINE",
"376 34 LINE",
"358 34 LINE SMOOTH",
"322 34 OFFCURVE",
"292 41 OFFCURVE",
"292 91 CURVE SMOOTH",
"292 238 LINE",
"426 475 LINE SMOOTH",
"454 524 OFFCURVE",
"470 538 OFFCURVE",
"493 538 CURVE SMOOTH",
"502 538 LINE",
"502 571 LINE",
"307 571 LINE",
"307 538 LINE",
"330 538 LINE SMOOTH",
"361 538 OFFCURVE",
"378 526 OFFCURVE",
"378 502 CURVE SMOOTH",
"378 490 OFFCURVE",
"374 473 OFFCURVE",
"364 454 CURVE SMOOTH",
"313 362 LINE SMOOTH",
"293 327 OFFCURVE",
"274 294 OFFCURVE",
"265 271 CURVE",
"256 296 OFFCURVE",
"243 330 OFFCURVE",
"225 362 CURVE SMOOTH",
"166 470 LINE SMOOTH",
"159 481 OFFCURVE",
"151 497 OFFCURVE",
"151 512 CURVE SMOOTH",
"151 526 OFFCURVE",
"157 538 OFFCURVE",
"186 538 CURVE SMOOTH",
"216 538 LINE",
"216 571 LINE",
"-4 571 LINE",
"-4 538 LINE",
"6 538 LINE SMOOTH",
"34 538 OFFCURVE",
"46 526 OFFCURVE",
"63 495 CURVE SMOOTH",
"211 238 LINE",
"211 87 LINE SMOOTH",
"211 40 OFFCURVE",
"182 34 OFFCURVE",
"146 34 CURVE SMOOTH",
"127 34 LINE",
"127 0 LINE"
);
}
);
userData = {
assembly = "NPUSHB[ ]	/* 109 values pushed */
38 29 54 29 2 7 28 39 28 55 28 3 8 9 40 9 2 31 55 90 37 53 53 244 47 1 111 47 1 68 47 1 57 47 1 20 47 1 8 47 1 47 23 27 1 27 9 9 143 15 1 77 15 1 55 15 1 27 15 1 7 15 1 15 16 7 128 7 160 7 176 7 4 7 7 64 63 47 64 111 64 159 64 175 64 207 64 5 0 64 1 8 54 31 3 1 48 44 19 15 93 45 16 3 60 1 93 0 18 
SVTCA[0]	/* SetFreedomAndProjectionVectorToAxis */
MIAP[1]	/* MoveIndirectAbsPt */
MIRP[00001]	/* MoveIndirectRelPt */
SHP[0]	/* ShiftPointByLastPoint */
MIAP[1]	/* MoveIndirectAbsPt */
SHP[1]	/* ShiftPointByLastPoint */
MIRP[00001]	/* MoveIndirectRelPt */
SHP[0]	/* ShiftPointByLastPoint */
SHP[0]	/* ShiftPointByLastPoint */
SHP[0]	/* ShiftPointByLastPoint */
SRP1[ ]	/* SetRefPoint1 */
SLOOP[ ]	/* SetLoopVariable */
IP[ ]	/* InterpolatePts */
SVTCA[1]	/* SetFreedomAndProjectionVectorToAxis */
DELTAP1[ ]	/* DeltaExceptionP1 */
DELTAP1[ ]	/* DeltaExceptionP1 */
SRP1[ ]	/* SetRefPoint1 */
SRP2[ ]	/* SetRefPoint2 */
IP[ ]	/* InterpolatePts */
MDAP[1]	/* MoveDirectAbsPt */
DELTAP1[ ]	/* DeltaExceptionP1 */
MDRP[00110]	/* MoveDirectRelPt */
DELTAP1[ ]	/* DeltaExceptionP1 */
DELTAP1[ ]	/* DeltaExceptionP1 */
DELTAP1[ ]	/* DeltaExceptionP1 */
DELTAP1[ ]	/* DeltaExceptionP1 */
DELTAP1[ ]	/* DeltaExceptionP1 */
SHP[0]	/* ShiftPointByLastPoint */
SRP1[ ]	/* SetRefPoint1 */
SHP[1]	/* ShiftPointByLastPoint */
DELTAP1[ ]	/* DeltaExceptionP1 */
MDRP[00100]	/* MoveDirectRelPt */
DELTAP1[ ]	/* DeltaExceptionP1 */
DELTAP1[ ]	/* DeltaExceptionP1 */
DELTAP1[ ]	/* DeltaExceptionP1 */
DELTAP1[ ]	/* DeltaExceptionP1 */
DELTAP1[ ]	/* DeltaExceptionP1 */
DELTAP1[ ]	/* DeltaExceptionP1 */
SHP[0]	/* ShiftPointByLastPoint */
SRP1[ ]	/* SetRefPoint1 */
SHP[1]	/* ShiftPointByLastPoint */
MIRP[00001]	/* MoveIndirectRelPt */
IP[ ]	/* InterpolatePts */
IUP[1]	/* InterpolateUntPts */
IUP[0]	/* InterpolateUntPts */
DELTAP1[ ]	/* DeltaExceptionP1 */
DELTAP1[ ]	/* DeltaExceptionP1 */
DELTAP1[ ]	/* DeltaExceptionP1 */";
};
width = 500;
},
{
layerId = "0ED38B93-C2B0-4B4A-9C6D-D7838A33C317";
paths = (
{
closed = 1;
nodes = (
"426 0 LINE",
"426 42 LINE",
"387 42 LINE SMOOTH",
"362 42 OFFCURVE",
"342 46 OFFCURVE",
"342 92 CURVE SMOOTH",
"342 202 LINE",
"478 466 LINE SMOOTH",
"503 516 OFFCURVE",
"512 529 OFFCURVE",
"539 529 CURVE SMOOTH",
"554 529 LINE",
"554 571 LINE",
"345 571 LINE",
"345 529 LINE",
"363 529 LINE SMOOTH",
"398 529 OFFCURVE",
"416 517 OFFCURVE",
"416 490 CURVE SMOOTH",
"416 481 OFFCURVE",
"414 465 OFFCURVE",
"402 442 CURVE SMOOTH",
"356 346 LINE SMOOTH",
"338 310 OFFCURVE",
"324 276 OFFCURVE",
"313 248 CURVE",
"304 273 OFFCURVE",
"294 298 OFFCURVE",
"278 331 CURVE SMOOTH",
"218 449 LINE SMOOTH",
"212 462 OFFCURVE",
"206 479 OFFCURVE",
"206 493 CURVE SMOOTH",
"206 515 OFFCURVE",
"222 529 OFFCURVE",
"254 529 CURVE SMOOTH",
"268 529 LINE",
"268 571 LINE",
"0 571 LINE",
"0 529 LINE",
"10 529 LINE SMOOTH",
"42 529 OFFCURVE",
"52 517 OFFCURVE",
"67 486 CURVE SMOOTH",
"215 202 LINE",
"215 91 LINE SMOOTH",
"215 46 OFFCURVE",
"194 42 OFFCURVE",
"169 42 CURVE SMOOTH",
"131 42 LINE",
"131 0 LINE"
);
}
);
userData = {
assembly = "NPUSHB[ ]	/* 104 values pushed */
43 36 123 49 171 49 2 84 49 1 11 49 27 49 2 49 49 29 50 86 22 1 70 15 1 22 15 240 9 1 196 9 1 171 9 1 116 9 1 91 9 1 68 9 1 9 50 9 127 8 255 8 2 8 127 60 143 60 159 60 3 79 60 95 60 2 63 60 1 15 60 1 22 9 8 19 40 44 3 15 15 50 29 36 49 16 15 8 31 8 207 8 3 8 8 1 41 16 3 56 1 1 0 18 
SVTCA[0]	/* SetFreedomAndProjectionVectorToAxis */
MIAP[1]	/* MoveIndirectAbsPt */
SHP[0]	/* ShiftPointByLastPoint */
SRP1[ ]	/* SetRefPoint1 */
SHP[1]	/* ShiftPointByLastPoint */
MIAP[1]	/* MoveIndirectAbsPt */
SHP[1]	/* ShiftPointByLastPoint */
SRP2[ ]	/* SetRefPoint2 */
IP[ ]	/* InterpolatePts */
MDAP[1]	/* MoveDirectAbsPt */
DELTAP1[ ]	/* DeltaExceptionP1 */
SRP2[ ]	/* SetRefPoint2 */
IP[ ]	/* InterpolatePts */
IP[ ]	/* InterpolatePts */
SHP[1]	/* ShiftPointByLastPoint */
SHP[1]	/* ShiftPointByLastPoint */
SHP[0]	/* ShiftPointByLastPoint */
SRP1[ ]	/* SetRefPoint1 */
SLOOP[ ]	/* SetLoopVariable */
SHP[1]	/* ShiftPointByLastPoint */
SRP2[ ]	/* SetRefPoint2 */
IP[ ]	/* InterpolatePts */
IP[ ]	/* InterpolatePts */
SVTCA[1]	/* SetFreedomAndProjectionVectorToAxis */
DELTAP1[ ]	/* DeltaExceptionP1 */
DELTAP1[ ]	/* DeltaExceptionP1 */
DELTAP1[ ]	/* DeltaExceptionP1 */
DELTAP1[ ]	/* DeltaExceptionP1 */
MDAP[1]	/* MoveDirectAbsPt */
DELTAP1[ ]	/* DeltaExceptionP1 */
SHP[0]	/* ShiftPointByLastPoint */
SHP[0]	/* ShiftPointByLastPoint */
MDAP[1]	/* MoveDirectAbsPt */
DELTAP1[ ]	/* DeltaExceptionP1 */
DELTAP1[ ]	/* DeltaExceptionP1 */
DELTAP1[ ]	/* DeltaExceptionP1 */
DELTAP1[ ]	/* DeltaExceptionP1 */
DELTAP1[ ]	/* DeltaExceptionP1 */
DELTAP1[ ]	/* DeltaExceptionP1 */
SHP[1]	/* ShiftPointByLastPoint */
SHP[1]	/* ShiftPointByLastPoint */
DELTAP1[ ]	/* DeltaExceptionP1 */
DELTAP1[ ]	/* DeltaExceptionP1 */
SRP1[ ]	/* SetRefPoint1 */
IP[ ]	/* InterpolatePts */
SHP[1]	/* ShiftPointByLastPoint */
MDAP[1]	/* MoveDirectAbsPt */
DELTAP1[ ]	/* DeltaExceptionP1 */
DELTAP1[ ]	/* DeltaExceptionP1 */
DELTAP1[ ]	/* DeltaExceptionP1 */
SHP[1]	/* ShiftPointByLastPoint */
SHP[1]	/* ShiftPointByLastPoint */
IUP[1]	/* InterpolateUntPts */
IUP[0]	/* InterpolateUntPts */";
};
width = 554;
}
);
note = uni0059;
unicode = 0059;
},
{
color = 10;
glyphname = Z;
lastChange = "2022-01-06 02:32:25 +0000";
layers = (
{
layerId = "4397B867-53E7-4964-BB9B-A578920F109C";
paths = (
{
closed = 1;
nodes = (
"436 0 LINE",
"440 140 LINE",
"398 140 LINE",
"394 106 LINE SMOOTH",
"390 69 OFFCURVE",
"375 40 OFFCURVE",
"328 40 CURVE SMOOTH",
"126 40 LINE",
"427 538 LINE",
"427 571 LINE",
"48 571 LINE",
"44 431 LINE",
"86 431 LINE",
"90 466 LINE SMOOTH",
"94 502 OFFCURVE",
"109 531 OFFCURVE",
"155 531 CURVE SMOOTH",
"329 531 LINE",
"29 32 LINE",
"29 0 LINE"
);
}
);
userData = {
assembly = "NPUSHB[ ]	/* 81 values pushed */
200 13 216 13 2 185 13 1 40 13 56 13 72 13 152 13 168 13 5 9 13 25 13 2 199 1 215 1 2 182 1 1 39 1 55 1 71 1 151 1 167 1 5 6 1 22 1 2 13 0 8 250 9 25 15 25 95 25 127 25 3 20 250 21 1 15 12 1 12 0 14 94 21 22 3 12 1 94 8 11 18 
SVTCA[0]	/* SetFreedomAndProjectionVectorToAxis */
MIAP[1]	/* MoveIndirectAbsPt */
MDRP[01100]	/* MoveDirectRelPt */
MIRP[00001]	/* MoveIndirectRelPt */
SHP[0]	/* ShiftPointByLastPoint */
MIAP[1]	/* MoveIndirectAbsPt */
MDRP[01101]	/* MoveDirectRelPt */
MIRP[00001]	/* MoveIndirectRelPt */
SHP[0]	/* ShiftPointByLastPoint */
SVTCA[1]	/* SetFreedomAndProjectionVectorToAxis */
MDAP[1]	/* MoveDirectAbsPt */
DELTAP1[ ]	/* DeltaExceptionP1 */
SHP[1]	/* ShiftPointByLastPoint */
MDRP[10110]	/* MoveDirectRelPt */
MIRP[00001]	/* MoveIndirectRelPt */
DELTAP1[ ]	/* DeltaExceptionP1 */
SRP0[ ]	/* SetRefPoint0 */
MDRP[11110]	/* MoveDirectRelPt */
MIRP[00001]	/* MoveIndirectRelPt */
MDRP[00110]	/* MoveDirectRelPt */
SHP[0]	/* ShiftPointByLastPoint */
IUP[1]	/* InterpolateUntPts */
IUP[0]	/* InterpolateUntPts */
DELTAP1[ ]	/* DeltaExceptionP1 */
DELTAP1[ ]	/* DeltaExceptionP1 */
DELTAP1[ ]	/* DeltaExceptionP1 */
DELTAP1[ ]	/* DeltaExceptionP1 */
DELTAP1[ ]	/* DeltaExceptionP1 */
DELTAP1[ ]	/* DeltaExceptionP1 */
DELTAP1[ ]	/* DeltaExceptionP1 */
DELTAP1[ ]	/* DeltaExceptionP1 */";
};
width = 474;
},
{
layerId = "0ED38B93-C2B0-4B4A-9C6D-D7838A33C317";
paths = (
{
closed = 1;
nodes = (
"494 0 LINE",
"498 165 LINE",
"440 165 LINE",
"436 129 LINE SMOOTH",
"432 87 OFFCURVE",
"416 49 OFFCURVE",
"352 49 CURVE SMOOTH",
"179 49 LINE",
"480 530 LINE",
"480 571 LINE",
"53 571 LINE",
"49 406 LINE",
"106 406 LINE",
"110 450 LINE SMOOTH",
"114 494 OFFCURVE",
"126 522 OFFCURVE",
"176 522 CURVE SMOOTH",
"334 522 LINE",
"34 40 LINE",
"34 0 LINE"
);
}
);
userData = {
assembly = "NPUSHB[ ]	/* 94 values pushed */
151 14 1 152 1 1 41 13 57 13 2 13 239 0 255 0 2 0 0 8 0 9 176 9 192 9 208 9 4 9 9 25 191 25 207 25 223 25 3 64 25 1 16 25 32 25 2 20 21 38 1 54 1 2 21 1 48 12 64 12 80 12 3 12 0 14 14 22 112 21 128 21 192 21 3 127 8 143 8 207 8 3 8 21 8 21 1 22 3 12 1 1 11 18 
SVTCA[0]	/* SetFreedomAndProjectionVectorToAxis */
MIAP[1]	/* MoveIndirectAbsPt */
SHP[1]	/* ShiftPointByLastPoint */
SRP1[ ]	/* SetRefPoint1 */
SHP[1]	/* ShiftPointByLastPoint */
MIAP[1]	/* MoveIndirectAbsPt */
SRP2[ ]	/* SetRefPoint2 */
IP[ ]	/* InterpolatePts */
IP[ ]	/* InterpolatePts */
MDAP[1]	/* MoveDirectAbsPt */
MDAP[1]	/* MoveDirectAbsPt */
DELTAP1[ ]	/* DeltaExceptionP1 */
DELTAP1[ ]	/* DeltaExceptionP1 */
SRP1[ ]	/* SetRefPoint1 */
SHP[1]	/* ShiftPointByLastPoint */
SRP1[ ]	/* SetRefPoint1 */
SHP[1]	/* ShiftPointByLastPoint */
SVTCA[1]	/* SetFreedomAndProjectionVectorToAxis */
MDAP[1]	/* MoveDirectAbsPt */
DELTAP1[ ]	/* DeltaExceptionP1 */
SHP[1]	/* ShiftPointByLastPoint */
SHP[1]	/* ShiftPointByLastPoint */
DELTAP1[ ]	/* DeltaExceptionP1 */
MDAP[1]	/* MoveDirectAbsPt */
SHP[1]	/* ShiftPointByLastPoint */
DELTAP1[ ]	/* DeltaExceptionP1 */
DELTAP1[ ]	/* DeltaExceptionP1 */
DELTAP1[ ]	/* DeltaExceptionP1 */
SRP1[ ]	/* SetRefPoint1 */
SHP[1]	/* ShiftPointByLastPoint */
MDAP[1]	/* MoveDirectAbsPt */
DELTAP1[ ]	/* DeltaExceptionP1 */
SHP[1]	/* ShiftPointByLastPoint */
SHP[1]	/* ShiftPointByLastPoint */
MDAP[1]	/* MoveDirectAbsPt */
DELTAP1[ ]	/* DeltaExceptionP1 */
SHP[1]	/* ShiftPointByLastPoint */
DELTAP1[ ]	/* DeltaExceptionP1 */
SVTCA[0]	/* SetFreedomAndProjectionVectorToAxis */
DELTAP1[ ]	/* DeltaExceptionP1 */
DELTAP1[ ]	/* DeltaExceptionP1 */
IUP[1]	/* InterpolateUntPts */
IUP[0]	/* InterpolateUntPts */";
};
width = 533;
}
);
note = uni005A;
unicode = 005A;
},
{
color = 10;
glyphname = a;
lastChange = "2022-01-06 02:32:25 +0000";
layers = (
{
layerId = "4397B867-53E7-4964-BB9B-A578920F109C";
paths = (
{
closed = 1;
nodes = (
"230 -8 OFFCURVE",
"255 24 OFFCURVE",
"289 69 CURVE",
"295 69 LINE",
"308 0 LINE",
"416 0 LINE",
"416 34 LINE",
"414 34 LINE SMOOTH",
"378 34 OFFCURVE",
"364 46 OFFCURVE",
"364 91 CURVE SMOOTH",
"364 298 LINE SMOOTH",
"364 401 OFFCURVE",
"315 437 OFFCURVE",
"218 437 CURVE SMOOTH",
"137 437 OFFCURVE",
"74 415 OFFCURVE",
"74 360 CURVE SMOOTH",
"74 323 OFFCURVE",
"97 310 OFFCURVE",
"142 310 CURVE",
"142 359 OFFCURVE",
"153 397 OFFCURVE",
"214 397 CURVE SMOOTH",
"280 397 OFFCURVE",
"289 357 OFFCURVE",
"289 298 CURVE SMOOTH",
"289 250 LINE",
"222 248 LINE SMOOTH",
"100 245 OFFCURVE",
"40 205 OFFCURVE",
"40 120 CURVE SMOOTH",
"40 32 OFFCURVE",
"93 -8 OFFCURVE",
"164 -8 CURVE SMOOTH"
);
},
{
closed = 1;
nodes = (
"138 42 OFFCURVE",
"118 66 OFFCURVE",
"118 116 CURVE SMOOTH",
"118 191 OFFCURVE",
"162 211 OFFCURVE",
"238 215 CURVE SMOOTH",
"289 218 LINE",
"289 153 LINE SMOOTH",
"289 85 OFFCURVE",
"248 42 OFFCURVE",
"182 42 CURVE SMOOTH"
);
}
);
userData = {
assembly = "NPUSHB[ ]	/* 38 values pushed */
58 8 71 34 85 65 111 65 127 65 2 20 23 0 72 54 86 64 9 77 43 49 58 20 58 20 28 3 49 22 39 77 42 21 15 78 28 16 
SVTCA[0]	/* SetFreedomAndProjectionVectorToAxis */
MIAP[1]	/* MoveIndirectAbsPt */
MIRP[00001]	/* MoveIndirectRelPt */
MIAP[1]	/* MoveIndirectAbsPt */
MIRP[00001]	/* MoveIndirectRelPt */
MIAP[1]	/* MoveIndirectAbsPt */
MDRP[00001]	/* MoveDirectRelPt */
SRP2[ ]	/* SetRefPoint2 */
IP[ ]	/* InterpolatePts */
IP[ ]	/* InterpolatePts */
MDAP[1]	/* MoveDirectAbsPt */
MDAP[1]	/* MoveDirectAbsPt */
SRP2[ ]	/* SetRefPoint2 */
IP[ ]	/* InterpolatePts */
MIRP[00001]	/* MoveIndirectRelPt */
SVTCA[1]	/* SetFreedomAndProjectionVectorToAxis */
SRP0[ ]	/* SetRefPoint0 */
MIRP[10110]	/* MoveIndirectRelPt */
MIRP[00001]	/* MoveIndirectRelPt */
MDRP[10100]	/* MoveDirectRelPt */
MDRP[00001]	/* MoveDirectRelPt */
DELTAP1[ ]	/* DeltaExceptionP1 */
SRP0[ ]	/* SetRefPoint0 */
MIRP[10110]	/* MoveIndirectRelPt */
MIRP[00001]	/* MoveIndirectRelPt */
SHP[0]	/* ShiftPointByLastPoint */
IUP[1]	/* InterpolateUntPts */
IUP[0]	/* InterpolateUntPts */";
};
width = 450;
},
{
layerId = "0ED38B93-C2B0-4B4A-9C6D-D7838A33C317";
paths = (
{
closed = 1;
nodes = (
"223 -8 OFFCURVE",
"245 12 OFFCURVE",
"281 55 CURVE",
"288 55 LINE",
"305 0 LINE",
"454 0 LINE",
"454 42 LINE",
"450 42 LINE SMOOTH",
"415 42 OFFCURVE",
"402 54 OFFCURVE",
"402 99 CURVE SMOOTH",
"402 303 LINE SMOOTH",
"402 408 OFFCURVE",
"339 439 OFFCURVE",
"234 439 CURVE SMOOTH",
"167 439 OFFCURVE",
"70 425 OFFCURVE",
"70 358 CURVE SMOOTH",
"70 318 OFFCURVE",
"106 304 OFFCURVE",
"178 304 CURVE",
"178 354 OFFCURVE",
"190 390 OFFCURVE",
"231 390 CURVE SMOOTH",
"274 390 OFFCURVE",
"281 354 OFFCURVE",
"281 299 CURVE SMOOTH",
"281 255 LINE",
"215 253 LINE SMOOTH",
"95 249 OFFCURVE",
"36 210 OFFCURVE",
"36 122 CURVE SMOOTH",
"36 34 OFFCURVE",
"90 -8 OFFCURVE",
"162 -8 CURVE SMOOTH"
);
},
{
closed = 1;
nodes = (
"174 50 OFFCURVE",
"160 74 OFFCURVE",
"160 119 CURVE SMOOTH",
"160 177 OFFCURVE",
"181 207 OFFCURVE",
"245 210 CURVE SMOOTH",
"281 213 LINE",
"281 153 LINE SMOOTH",
"281 91 OFFCURVE",
"252 50 OFFCURVE",
"206 50 CURVE SMOOTH"
);
}
);
userData = {
assembly = "NPUSHB[ ]	/* 74 values pushed */
10 55 26 55 2 12 52 28 52 2 5 31 21 31 2 20 23 23 54 58 43 8 8 8 1 8 34 85 65 175 65 1 6 0 1 0 54 86 64 43 49 9 58 58 3 28 3 49 22 39 42 21 107 20 1 90 20 1 72 20 1 46 20 1 29 20 1 11 20 1 20 15 28 16 
SVTCA[0]	/* SetFreedomAndProjectionVectorToAxis */
MIAP[1]	/* MoveIndirectAbsPt */
SHP[1]	/* ShiftPointByLastPoint */
SHP[1]	/* ShiftPointByLastPoint */
DELTAP1[ ]	/* DeltaExceptionP1 */
DELTAP1[ ]	/* DeltaExceptionP1 */
DELTAP1[ ]	/* DeltaExceptionP1 */
DELTAP1[ ]	/* DeltaExceptionP1 */
DELTAP1[ ]	/* DeltaExceptionP1 */
DELTAP1[ ]	/* DeltaExceptionP1 */
MIAP[1]	/* MoveIndirectAbsPt */
SHP[1]	/* ShiftPointByLastPoint */
MIAP[1]	/* MoveIndirectAbsPt */
SHP[1]	/* ShiftPointByLastPoint */
SRP1[ ]	/* SetRefPoint1 */
SRP2[ ]	/* SetRefPoint2 */
IP[ ]	/* InterpolatePts */
MDAP[1]	/* MoveDirectAbsPt */
SHP[1]	/* ShiftPointByLastPoint */
SRP1[ ]	/* SetRefPoint1 */
SHP[1]	/* ShiftPointByLastPoint */
SVTCA[1]	/* SetFreedomAndProjectionVectorToAxis */
SRP0[ ]	/* SetRefPoint0 */
MIRP[00110]	/* MoveIndirectRelPt */
SHP[0]	/* ShiftPointByLastPoint */
DELTAP1[ ]	/* DeltaExceptionP1 */
DELTAP1[ ]	/* DeltaExceptionP1 */
SRP0[ ]	/* SetRefPoint0 */
MIRP[00100]	/* MoveIndirectRelPt */
SHP[0]	/* ShiftPointByLastPoint */
DELTAP1[ ]	/* DeltaExceptionP1 */
SRP1[ ]	/* SetRefPoint1 */
SHP[1]	/* ShiftPointByLastPoint */
SHP[1]	/* ShiftPointByLastPoint */
SRP2[ ]	/* SetRefPoint2 */
IP[ ]	/* InterpolatePts */
SRP1[ ]	/* SetRefPoint1 */
SHP[1]	/* ShiftPointByLastPoint */
IUP[1]	/* InterpolateUntPts */
IUP[0]	/* InterpolateUntPts */
DELTAP1[ ]	/* DeltaExceptionP1 */
DELTAP1[ ]	/* DeltaExceptionP1 */
DELTAP1[ ]	/* DeltaExceptionP1 */";
};
width = 479;
}
);
note = uni0061;
unicode = 0061;
},
{
color = 10;
glyphname = b;
lastChange = "2022-01-06 02:32:25 +0000";
layers = (
{
layerId = "4397B867-53E7-4964-BB9B-A578920F109C";
paths = (
{
closed = 1;
nodes = (
"389 -8 OFFCURVE",
"447 60 OFFCURVE",
"447 215 CURVE SMOOTH",
"447 292 OFFCURVE",
"433 347 OFFCURVE",
"405 383 CURVE SMOOTH",
"378 419 OFFCURVE",
"337 437 OFFCURVE",
"284 437 CURVE SMOOTH",
"221 437 OFFCURVE",
"186 406 OFFCURVE",
"162 357 CURVE",
"158 357 LINE",
"160 395 LINE SMOOTH",
"161 417 OFFCURVE",
"162 442 OFFCURVE",
"162 461 CURVE SMOOTH",
"162 608 LINE",
"14 608 LINE",
"14 574 LINE",
"21 574 LINE SMOOTH",
"56 574 OFFCURVE",
"86 568 OFFCURVE",
"86 520 CURVE SMOOTH",
"86 91 LINE SMOOTH",
"86 41 OFFCURVE",
"57 34 OFFCURVE",
"21 34 CURVE SMOOTH",
"14 34 LINE",
"14 0 LINE",
"142 0 LINE",
"157 62 LINE",
"162 62 LINE",
"185 20 OFFCURVE",
"223 -8 OFFCURVE",
"284 -8 CURVE SMOOTH"
);
},
{
closed = 1;
nodes = (
"229 43 OFFCURVE",
"202 58 OFFCURVE",
"185 87 CURVE SMOOTH",
"168 117 OFFCURVE",
"162 159 OFFCURVE",
"162 215 CURVE SMOOTH",
"162 331 OFFCURVE",
"187 386 OFFCURVE",
"270 386 CURVE SMOOTH",
"306 386 OFFCURVE",
"330 371 OFFCURVE",
"346 343 CURVE SMOOTH",
"362 315 OFFCURVE",
"370 273 OFFCURVE",
"370 216 CURVE SMOOTH",
"370 160 OFFCURVE",
"362 117 OFFCURVE",
"346 87 CURVE SMOOTH",
"330 58 OFFCURVE",
"306 43 OFFCURVE",
"271 43 CURVE SMOOTH"
);
}
);
userData = {
assembly = "NPUSHB[ ]	/* 41 values pushed */
61 72 0 87 67 239 67 1 80 67 1 63 67 1 11 51 71 29 71 20 84 66 35 10 5 46 80 41 16 27 77 28 0 14 77 13 21 56 80 5 22 
SVTCA[0]	/* SetFreedomAndProjectionVectorToAxis */
MIAP[1]	/* MoveIndirectAbsPt */
MIRP[00001]	/* MoveIndirectRelPt */
MIAP[1]	/* MoveIndirectAbsPt */
MIRP[00001]	/* MoveIndirectRelPt */
MIAP[1]	/* MoveIndirectAbsPt */
MIRP[00001]	/* MoveIndirectRelPt */
MIAP[1]	/* MoveIndirectAbsPt */
MIRP[00001]	/* MoveIndirectRelPt */
SRP2[ ]	/* SetRefPoint2 */
IP[ ]	/* InterpolatePts */
IP[ ]	/* InterpolatePts */
SVTCA[1]	/* SetFreedomAndProjectionVectorToAxis */
SRP0[ ]	/* SetRefPoint0 */
MIRP[10100]	/* MoveIndirectRelPt */
MIRP[00001]	/* MoveIndirectRelPt */
MIRP[00001]	/* MoveIndirectRelPt */
IP[ ]	/* InterpolatePts */
DELTAP1[ ]	/* DeltaExceptionP1 */
DELTAP1[ ]	/* DeltaExceptionP1 */
DELTAP1[ ]	/* DeltaExceptionP1 */
SRP0[ ]	/* SetRefPoint0 */
MIRP[10110]	/* MoveIndirectRelPt */
MIRP[00001]	/* MoveIndirectRelPt */
IUP[1]	/* InterpolateUntPts */
IUP[0]	/* InterpolateUntPts */";
};
width = 491;
},
{
layerId = "0ED38B93-C2B0-4B4A-9C6D-D7838A33C317";
paths = (
{
closed = 1;
nodes = (
"445 -8 OFFCURVE",
"482 90 OFFCURVE",
"482 216 CURVE SMOOTH",
"482 293 OFFCURVE",
"467 349 OFFCURVE",
"440 385 CURVE SMOOTH",
"413 421 OFFCURVE",
"373 438 OFFCURVE",
"321 438 CURVE SMOOTH",
"260 438 OFFCURVE",
"224 414 OFFCURVE",
"201 374 CURVE",
"195 374 LINE",
"198 410 LINE SMOOTH",
"200 430 OFFCURVE",
"202 454 OFFCURVE",
"202 471 CURVE SMOOTH",
"202 608 LINE",
"14 608 LINE",
"14 566 LINE",
"17 566 LINE SMOOTH",
"51 566 OFFCURVE",
"80 558 OFFCURVE",
"80 512 CURVE SMOOTH",
"80 98 LINE SMOOTH",
"80 50 OFFCURVE",
"50 42 OFFCURVE",
"19 42 CURVE SMOOTH",
"14 42 LINE",
"14 0 LINE",
"166 0 LINE",
"188 62 LINE",
"195 62 LINE",
"218 20 OFFCURVE",
"257 -8 OFFCURVE",
"318 -8 CURVE SMOOTH"
);
},
{
closed = 1;
nodes = (
"252 52 OFFCURVE",
"231 66 OFFCURVE",
"218 94 CURVE SMOOTH",
"206 122 OFFCURVE",
"202 163 OFFCURVE",
"202 216 CURVE SMOOTH",
"202 293 OFFCURVE",
"206 379 OFFCURVE",
"283 379 CURVE SMOOTH",
"310 379 OFFCURVE",
"330 366 OFFCURVE",
"341 339 CURVE SMOOTH",
"353 312 OFFCURVE",
"358 271 OFFCURVE",
"358 217 CURVE SMOOTH",
"358 164 OFFCURVE",
"353 123 OFFCURVE",
"341 94 CURVE SMOOTH",
"330 66 OFFCURVE",
"310 52 OFFCURVE",
"284 52 CURVE SMOOTH"
);
}
);
userData = {
assembly = "NPUSHB[ ]	/* 45 values pushed */
5 2 21 2 2 5 42 21 42 2 57 0 87 61 240 61 1 127 61 175 61 2 29 11 49 49 20 84 60 36 44 44 39 16 27 28 0 14 13 21 10 54 54 5 22 
SVTCA[0]	/* SetFreedomAndProjectionVectorToAxis */
MIAP[1]	/* MoveIndirectAbsPt */
SHP[1]	/* ShiftPointByLastPoint */
SRP1[ ]	/* SetRefPoint1 */
SHP[1]	/* ShiftPointByLastPoint */
MIAP[1]	/* MoveIndirectAbsPt */
SHP[1]	/* ShiftPointByLastPoint */
MIAP[1]	/* MoveIndirectAbsPt */
SHP[1]	/* ShiftPointByLastPoint */
MIAP[1]	/* MoveIndirectAbsPt */
SHP[1]	/* ShiftPointByLastPoint */
SRP1[ ]	/* SetRefPoint1 */
SHP[1]	/* ShiftPointByLastPoint */
SVTCA[1]	/* SetFreedomAndProjectionVectorToAxis */
SRP0[ ]	/* SetRefPoint0 */
MIRP[00100]	/* MoveIndirectRelPt */
SHP[0]	/* ShiftPointByLastPoint */
SRP1[ ]	/* SetRefPoint1 */
SHP[1]	/* ShiftPointByLastPoint */
SHP[1]	/* ShiftPointByLastPoint */
DELTAP1[ ]	/* DeltaExceptionP1 */
DELTAP1[ ]	/* DeltaExceptionP1 */
SRP0[ ]	/* SetRefPoint0 */
MIRP[00110]	/* MoveIndirectRelPt */
SHP[0]	/* ShiftPointByLastPoint */
IUP[1]	/* InterpolateUntPts */
IUP[0]	/* InterpolateUntPts */
DELTAP1[ ]	/* DeltaExceptionP1 */
DELTAP1[ ]	/* DeltaExceptionP1 */";
};
width = 519;
}
);
note = uni0062;
unicode = 0062;
},
{
color = 10;
glyphname = c;
lastChange = "2022-01-06 02:32:25 +0000";
layers = (
{
layerId = "4397B867-53E7-4964-BB9B-A578920F109C";
paths = (
{
closed = 1;
nodes = (
"316 -8 OFFCURVE",
"362 32 OFFCURVE",
"362 69 CURVE SMOOTH",
"362 83 OFFCURVE",
"357 94 OFFCURVE",
"349 100 CURVE",
"330 67 OFFCURVE",
"292 44 OFFCURVE",
"242 44 CURVE SMOOTH",
"157 44 OFFCURVE",
"122 99 OFFCURVE",
"122 213 CURVE SMOOTH",
"122 284 OFFCURVE",
"131 330 OFFCURVE",
"149 358 CURVE SMOOTH",
"166 386 OFFCURVE",
"191 397 OFFCURVE",
"222 397 CURVE SMOOTH",
"276 397 OFFCURVE",
"290 357 OFFCURVE",
"290 305 CURVE",
"338 305 OFFCURVE",
"362 318 OFFCURVE",
"362 355 CURVE SMOOTH",
"362 410 OFFCURVE",
"288 437 OFFCURVE",
"222 437 CURVE SMOOTH",
"122 437 OFFCURVE",
"44 385 OFFCURVE",
"44 212 CURVE SMOOTH",
"44 81 OFFCURVE",
"99 -8 OFFCURVE",
"226 -8 CURVE SMOOTH"
);
}
);
userData = {
assembly = "NPUSHB[ ]	/* 39 values pushed */
37 18 15 87 43 15 43 47 43 111 43 143 43 207 43 239 43 6 28 72 5 86 42 23 78 31 18 1 18 10 16 47 34 1 34 31 80 0 22 
SVTCA[0]	/* SetFreedomAndProjectionVectorToAxis */
MIAP[1]	/* MoveIndirectAbsPt */
MIRP[00001]	/* MoveIndirectRelPt */
MDRP[01100]	/* MoveDirectRelPt */
DELTAP1[ ]	/* DeltaExceptionP1 */
MIAP[1]	/* MoveIndirectAbsPt */
MDRP[01100]	/* MoveDirectRelPt */
DELTAP1[ ]	/* DeltaExceptionP1 */
MIRP[00001]	/* MoveIndirectRelPt */
SVTCA[1]	/* SetFreedomAndProjectionVectorToAxis */
SRP0[ ]	/* SetRefPoint0 */
MIRP[10110]	/* MoveIndirectRelPt */
MIRP[00001]	/* MoveIndirectRelPt */
DELTAP1[ ]	/* DeltaExceptionP1 */
SRP0[ ]	/* SetRefPoint0 */
MIRP[10110]	/* MoveIndirectRelPt */
SHP[0]	/* ShiftPointByLastPoint */
MDRP[00100]	/* MoveDirectRelPt */
IUP[1]	/* InterpolateUntPts */
IUP[0]	/* InterpolateUntPts */";
};
width = 394;
},
{
layerId = "0ED38B93-C2B0-4B4A-9C6D-D7838A33C317";
paths = (
{
closed = 1;
nodes = (
"345 -8 OFFCURVE",
"391 39 OFFCURVE",
"391 80 CURVE SMOOTH",
"391 94 OFFCURVE",
"385 109 OFFCURVE",
"372 117 CURVE",
"354 81 OFFCURVE",
"313 52 OFFCURVE",
"256 52 CURVE SMOOTH",
"189 52 OFFCURVE",
"161 106 OFFCURVE",
"161 214 CURVE SMOOTH",
"161 282 OFFCURVE",
"168 326 OFFCURVE",
"182 353 CURVE SMOOTH",
"194 380 OFFCURVE",
"214 390 OFFCURVE",
"237 390 CURVE SMOOTH",
"278 390 OFFCURVE",
"289 341 OFFCURVE",
"289 287 CURVE",
"343 287 OFFCURVE",
"392 301 OFFCURVE",
"392 355 CURVE SMOOTH",
"392 419 OFFCURVE",
"300 439 OFFCURVE",
"234 439 CURVE SMOOTH",
"94 439 OFFCURVE",
"38 354 OFFCURVE",
"38 213 CURVE SMOOTH",
"38 47 OFFCURVE",
"119 -8 OFFCURVE",
"236 -8 CURVE SMOOTH"
);
}
);
userData = {
assembly = "PUSHB[ ]	/* 8 values pushed */
21 43 37 43 53 43 3 13 
PUSHW[ ]	/* 1 value pushed */
-24 
PUSHB[ ]	/* 4 values pushed */
9 12 72 13 
PUSHW[ ]	/* 1 value pushed */
-24 
NPUSHB[ ]	/* 33 values pushed */
9 12 72 20 15 15 41 87 47 127 47 159 47 175 47 3 47 64 10 14 72 30 5 86 46 25 20 10 16 38 33 0 22 
SVTCA[0]	/* SetFreedomAndProjectionVectorToAxis */
MIAP[1]	/* MoveIndirectAbsPt */
SHP[0]	/* ShiftPointByLastPoint */
SHP[0]	/* ShiftPointByLastPoint */
MIAP[1]	/* MoveIndirectAbsPt */
SHP[1]	/* ShiftPointByLastPoint */
SHP[1]	/* ShiftPointByLastPoint */
SVTCA[1]	/* SetFreedomAndProjectionVectorToAxis */
SRP0[ ]	/* SetRefPoint0 */
MIRP[00110]	/* MoveIndirectRelPt */
SHP[0]	/* ShiftPointByLastPoint */
CALL[ ]	/* CallFunction */
DELTAP1[ ]	/* DeltaExceptionP1 */
SRP0[ ]	/* SetRefPoint0 */
MIRP[00110]	/* MoveIndirectRelPt */
SHP[0]	/* ShiftPointByLastPoint */
MDAP[1]	/* MoveDirectAbsPt */
SHP[1]	/* ShiftPointByLastPoint */
IUP[1]	/* InterpolateUntPts */
IUP[0]	/* InterpolateUntPts */
SVTCA[0]	/* SetFreedomAndProjectionVectorToAxis */
CALL[ ]	/* CallFunction */
SVTCA[1]	/* SetFreedomAndProjectionVectorToAxis */
CALL[ ]	/* CallFunction */
DELTAP1[ ]	/* DeltaExceptionP1 */";
};
width = 422;
}
);
note = uni0063;
unicode = 0063;
},
{
color = 10;
glyphname = d;
lastChange = "2022-01-06 02:32:25 +0000";
layers = (
{
background = {
paths = (
{
closed = 1;
nodes = (
"269 -8 OFFCURVE",
"306 23 OFFCURVE",
"330 72 CURVE",
"333 72 LINE",
"342 0 LINE",
"477 0 LINE",
"477 34 LINE",
"470 34 LINE SMOOTH",
"435 34 OFFCURVE",
"405 40 OFFCURVE",
"405 88 CURVE SMOOTH",
"405 608 LINE",
"258 608 LINE",
"258 574 LINE",
"264 574 LINE SMOOTH",
"299 574 OFFCURVE",
"330 568 OFFCURVE",
"330 520 CURVE SMOOTH",
"330 454 LINE SMOOTH",
"330 450 OFFCURVE",
"330 442 OFFCURVE",
"330 433 CURVE SMOOTH",
"331 423 OFFCURVE",
"331 413 OFFCURVE",
"332 403 CURVE SMOOTH",
"334 366 LINE",
"330 366 LINE",
"308 406 OFFCURVE",
"271 437 OFFCURVE",
"207 437 CURVE SMOOTH",
"102 437 OFFCURVE",
"44 369 OFFCURVE",
"44 214 CURVE SMOOTH",
"44 61 OFFCURVE",
"102 -8 OFFCURVE",
"207 -8 CURVE SMOOTH"
);
},
{
closed = 1;
nodes = (
"150 43 OFFCURVE",
"122 99 OFFCURVE",
"122 213 CURVE SMOOTH",
"122 269 OFFCURVE",
"129 312 OFFCURVE",
"144 341 CURVE SMOOTH",
"160 370 OFFCURVE",
"185 386 OFFCURVE",
"220 386 CURVE SMOOTH",
"305 386 OFFCURVE",
"330 323 OFFCURVE",
"330 214 CURVE SMOOTH",
"330 156 OFFCURVE",
"323 114 OFFCURVE",
"306 85 CURVE SMOOTH",
"290 57 OFFCURVE",
"262 43 OFFCURVE",
"221 43 CURVE SMOOTH"
);
}
);
};
layerId = "4397B867-53E7-4964-BB9B-A578920F109C";
paths = (
{
closed = 1;
nodes = (
"269 -8 OFFCURVE",
"306 23 OFFCURVE",
"330 72 CURVE",
"333 72 LINE",
"342 0 LINE",
"477 0 LINE",
"477 34 LINE",
"470 34 LINE SMOOTH",
"435 34 OFFCURVE",
"405 40 OFFCURVE",
"405 88 CURVE SMOOTH",
"405 608 LINE",
"258 608 LINE",
"258 574 LINE",
"264 574 LINE SMOOTH",
"299 574 OFFCURVE",
"330 568 OFFCURVE",
"330 520 CURVE SMOOTH",
"330 454 LINE SMOOTH",
"330 442 OFFCURVE",
"330 422 OFFCURVE",
"332 403 CURVE SMOOTH",
"334 366 LINE",
"330 366 LINE",
"308 406 OFFCURVE",
"271 437 OFFCURVE",
"207 437 CURVE SMOOTH",
"102 437 OFFCURVE",
"44 369 OFFCURVE",
"44 214 CURVE SMOOTH",
"44 61 OFFCURVE",
"102 -8 OFFCURVE",
"207 -8 CURVE SMOOTH"
);
},
{
closed = 1;
nodes = (
"150 43 OFFCURVE",
"122 99 OFFCURVE",
"122 213 CURVE SMOOTH",
"122 269 OFFCURVE",
"129 312 OFFCURVE",
"144 341 CURVE SMOOTH",
"160 370 OFFCURVE",
"185 386 OFFCURVE",
"220 386 CURVE SMOOTH",
"305 386 OFFCURVE",
"330 323 OFFCURVE",
"330 214 CURVE SMOOTH",
"330 156 OFFCURVE",
"323 114 OFFCURVE",
"306 85 CURVE SMOOTH",
"290 57 OFFCURVE",
"262 43 OFFCURVE",
"221 43 CURVE SMOOTH"
);
}
);
userData = {
assembly = "NPUSHB[ ]	/* 37 values pushed */
51 9 36 71 0 85 65 239 65 1 80 65 1 63 65 1 61 72 20 86 64 43 77 44 0 30 56 80 25 16 10 46 80 15 22 8 21 
SVTCA[0]	/* SetFreedomAndProjectionVectorToAxis */
MIAP[1]	/* MoveIndirectAbsPt */
MIAP[1]	/* MoveIndirectAbsPt */
MIRP[00001]	/* MoveIndirectRelPt */
SHP[0]	/* ShiftPointByLastPoint */
MIAP[1]	/* MoveIndirectAbsPt */
MIRP[00001]	/* MoveIndirectRelPt */
SHP[0]	/* ShiftPointByLastPoint */
MIAP[1]	/* MoveIndirectAbsPt */
MIRP[00001]	/* MoveIndirectRelPt */
SVTCA[1]	/* SetFreedomAndProjectionVectorToAxis */
SRP0[ ]	/* SetRefPoint0 */
MIRP[10110]	/* MoveIndirectRelPt */
MIRP[00001]	/* MoveIndirectRelPt */
DELTAP1[ ]	/* DeltaExceptionP1 */
DELTAP1[ ]	/* DeltaExceptionP1 */
DELTAP1[ ]	/* DeltaExceptionP1 */
SRP0[ ]	/* SetRefPoint0 */
MIRP[10100]	/* MoveIndirectRelPt */
MIRP[00001]	/* MoveIndirectRelPt */
SHP[0]	/* ShiftPointByLastPoint */
SHP[0]	/* ShiftPointByLastPoint */
IUP[1]	/* InterpolateUntPts */
IUP[0]	/* InterpolateUntPts */";
};
width = 491;
},
{
background = {
paths = (
{
closed = 1;
nodes = (
"262 -8 OFFCURVE",
"299 19 OFFCURVE",
"323 62 CURVE",
"330 62 LINE",
"353 0 LINE",
"508 0 LINE",
"508 42 LINE",
"505 42 LINE SMOOTH",
"469 42 OFFCURVE",
"438 50 OFFCURVE",
"438 98 CURVE SMOOTH",
"438 608 LINE",
"246 608 LINE",
"246 566 LINE",
"252 566 LINE SMOOTH",
"288 566 OFFCURVE",
"317 560 OFFCURVE",
"317 516 CURVE SMOOTH",
"317 472 LINE SMOOTH",
"317 457 OFFCURVE",
"318 443 OFFCURVE",
"320 416 CURVE SMOOTH",
"323 374 LINE",
"318 374 LINE",
"296 412 OFFCURVE",
"257 438 OFFCURVE",
"198 438 CURVE SMOOTH",
"147 438 OFFCURVE",
"106 421 OFFCURVE",
"79 384 CURVE SMOOTH",
"51 347 OFFCURVE",
"37 290 OFFCURVE",
"37 214 CURVE SMOOTH",
"37 60 OFFCURVE",
"95 -8 OFFCURVE",
"200 -8 CURVE SMOOTH"
);
},
{
closed = 1;
nodes = (
"207 52 OFFCURVE",
"189 66 OFFCURVE",
"177 92 CURVE SMOOTH",
"166 119 OFFCURVE",
"160 160 OFFCURVE",
"160 214 CURVE SMOOTH",
"160 267 OFFCURVE",
"166 309 OFFCURVE",
"177 337 CURVE SMOOTH",
"189 365 OFFCURVE",
"208 379 OFFCURVE",
"234 379 CURVE SMOOTH",
"266 379 OFFCURVE",
"286 365 OFFCURVE",
"299 337 CURVE SMOOTH",
"312 309 OFFCURVE",
"317 268 OFFCURVE",
"317 215 CURVE SMOOTH",
"317 160 OFFCURVE",
"312 119 OFFCURVE",
"299 92 CURVE SMOOTH",
"286 65 OFFCURVE",
"266 52 OFFCURVE",
"234 52 CURVE SMOOTH"
);
}
);
};
layerId = "0ED38B93-C2B0-4B4A-9C6D-D7838A33C317";
paths = (
{
closed = 1;
nodes = (
"262 -8 OFFCURVE",
"299 19 OFFCURVE",
"323 62 CURVE",
"330 62 LINE",
"353 0 LINE",
"508 0 LINE",
"508 42 LINE",
"505 42 LINE SMOOTH",
"469 42 OFFCURVE",
"438 50 OFFCURVE",
"438 98 CURVE SMOOTH",
"438 608 LINE",
"246 608 LINE",
"246 566 LINE",
"252 566 LINE SMOOTH",
"288 566 OFFCURVE",
"317 560 OFFCURVE",
"317 516 CURVE SMOOTH",
"317 472 LINE SMOOTH",
"317 457 OFFCURVE",
"318 443 OFFCURVE",
"320 416 CURVE SMOOTH",
"323 374 LINE",
"318 374 LINE",
"296 412 OFFCURVE",
"257 438 OFFCURVE",
"198 438 CURVE SMOOTH",
"74 438 OFFCURVE",
"37 338 OFFCURVE",
"37 214 CURVE SMOOTH",
"37 60 OFFCURVE",
"95 -8 OFFCURVE",
"200 -8 CURVE SMOOTH"
);
},
{
closed = 1;
nodes = (
"165 52 OFFCURVE",
"160 146 OFFCURVE",
"160 214 CURVE SMOOTH",
"160 267 OFFCURVE",
"166 309 OFFCURVE",
"177 337 CURVE SMOOTH",
"189 365 OFFCURVE",
"208 379 OFFCURVE",
"234 379 CURVE SMOOTH",
"310 379 OFFCURVE",
"317 290 OFFCURVE",
"317 215 CURVE SMOOTH",
"317 160 OFFCURVE",
"312 119 OFFCURVE",
"299 92 CURVE SMOOTH",
"286 65 OFFCURVE",
"266 52 OFFCURVE",
"234 52 CURVE SMOOTH"
);
}
);
userData = {
assembly = "NPUSHB[ ]	/* 45 values pushed */
10 18 26 18 2 10 22 26 22 2 38 9 53 53 0 85 67 240 67 1 127 67 175 67 2 63 20 86 66 45 46 0 30 58 58 25 16 10 48 48 15 22 6 8 21 
SVTCA[0]	/* SetFreedomAndProjectionVectorToAxis */
MIAP[1]	/* MoveIndirectAbsPt */
SHP[1]	/* ShiftPointByLastPoint */
MIAP[1]	/* MoveIndirectAbsPt */
SHP[1]	/* ShiftPointByLastPoint */
SRP1[ ]	/* SetRefPoint1 */
SHP[1]	/* ShiftPointByLastPoint */
MIAP[1]	/* MoveIndirectAbsPt */
SHP[1]	/* ShiftPointByLastPoint */
SRP1[ ]	/* SetRefPoint1 */
SHP[1]	/* ShiftPointByLastPoint */
MIAP[1]	/* MoveIndirectAbsPt */
SHP[1]	/* ShiftPointByLastPoint */
SVTCA[1]	/* SetFreedomAndProjectionVectorToAxis */
SRP0[ ]	/* SetRefPoint0 */
MIRP[00110]	/* MoveIndirectRelPt */
SHP[0]	/* ShiftPointByLastPoint */
DELTAP1[ ]	/* DeltaExceptionP1 */
DELTAP1[ ]	/* DeltaExceptionP1 */
SRP0[ ]	/* SetRefPoint0 */
MIRP[00100]	/* MoveIndirectRelPt */
SHP[0]	/* ShiftPointByLastPoint */
SRP1[ ]	/* SetRefPoint1 */
SHP[1]	/* ShiftPointByLastPoint */
SHP[1]	/* ShiftPointByLastPoint */
IUP[1]	/* InterpolateUntPts */
IUP[0]	/* InterpolateUntPts */
DELTAP1[ ]	/* DeltaExceptionP1 */
DELTAP1[ ]	/* DeltaExceptionP1 */";
};
width = 519;
}
);
note = uni0064;
unicode = 0064;
},
{
color = 10;
glyphname = e;
lastChange = "2022-01-06 02:32:25 +0000";
layers = (
{
layerId = "4397B867-53E7-4964-BB9B-A578920F109C";
paths = (
{
closed = 1;
nodes = (
"326 -8 OFFCURVE",
"370 39 OFFCURVE",
"370 71 CURVE SMOOTH",
"370 85 OFFCURVE",
"362 95 OFFCURVE",
"355 98 CURVE",
"336 69 OFFCURVE",
"294 42 OFFCURVE",
"241 42 CURVE SMOOTH",
"165 42 OFFCURVE",
"123 92 OFFCURVE",
"122 209 CURVE",
"388 209 LINE",
"388 246 LINE SMOOTH",
"388 372 OFFCURVE",
"325 437 OFFCURVE",
"222 437 CURVE SMOOTH",
"108 437 OFFCURVE",
"44 361 OFFCURVE",
"44 211 CURVE SMOOTH",
"44 86 OFFCURVE",
"104 -8 OFFCURVE",
"230 -8 CURVE SMOOTH"
);
},
{
closed = 1;
nodes = (
"129 345 OFFCURVE",
"161 394 OFFCURVE",
"220 394 CURVE SMOOTH",
"252 394 OFFCURVE",
"274 380 OFFCURVE",
"287 354 CURVE SMOOTH",
"301 330 OFFCURVE",
"307 294 OFFCURVE",
"307 252 CURVE",
"123 252 LINE"
);
}
);
userData = {
assembly = "NPUSHB[ ]	/* 36 values pushed */
37 4 72 23 87 43 207 43 239 43 2 80 43 1 3 24 72 14 86 42 34 34 29 24 79 3 3 29 0 79 17 16 29 80 9 22 
SVTCA[0]	/* SetFreedomAndProjectionVectorToAxis */
MIAP[1]	/* MoveIndirectAbsPt */
MIRP[00001]	/* MoveIndirectRelPt */
MIAP[1]	/* MoveIndirectAbsPt */
MIRP[00001]	/* MoveIndirectRelPt */
SRP2[ ]	/* SetRefPoint2 */
IP[ ]	/* InterpolatePts */
MDAP[1]	/* MoveDirectAbsPt */
MIRP[00001]	/* MoveIndirectRelPt */
SRP1[ ]	/* SetRefPoint1 */
IP[ ]	/* InterpolatePts */
MDAP[1]	/* MoveDirectAbsPt */
SVTCA[1]	/* SetFreedomAndProjectionVectorToAxis */
SRP0[ ]	/* SetRefPoint0 */
MIRP[10110]	/* MoveIndirectRelPt */
MIRP[00001]	/* MoveIndirectRelPt */
SHP[0]	/* ShiftPointByLastPoint */
DELTAP1[ ]	/* DeltaExceptionP1 */
DELTAP1[ ]	/* DeltaExceptionP1 */
SRP0[ ]	/* SetRefPoint0 */
MIRP[10110]	/* MoveIndirectRelPt */
MIRP[00001]	/* MoveIndirectRelPt */
MDRP[00110]	/* MoveDirectRelPt */
IUP[1]	/* InterpolateUntPts */
IUP[0]	/* InterpolateUntPts */";
};
width = 428;
},
{
layerId = "0ED38B93-C2B0-4B4A-9C6D-D7838A33C317";
paths = (
{
closed = 1;
nodes = (
"354 -8 OFFCURVE",
"402 32 OFFCURVE",
"402 78 CURVE SMOOTH",
"402 96 OFFCURVE",
"395 109 OFFCURVE",
"381 117 CURVE",
"362 80 OFFCURVE",
"324 52 OFFCURVE",
"268 52 CURVE SMOOTH",
"202 52 OFFCURVE",
"164 99 OFFCURVE",
"161 206 CURVE",
"423 206 LINE",
"423 246 LINE SMOOTH",
"423 374 OFFCURVE",
"352 439 OFFCURVE",
"236 439 CURVE SMOOTH",
"110 439 OFFCURVE",
"38 363 OFFCURVE",
"38 212 CURVE SMOOTH",
"38 72 OFFCURVE",
"110 -8 OFFCURVE",
"245 -8 CURVE SMOOTH"
);
},
{
closed = 1;
nodes = (
"165 342 OFFCURVE",
"193 387 OFFCURVE",
"238 387 CURVE SMOOTH",
"261 387 OFFCURVE",
"276 374 OFFCURVE",
"286 352 CURVE SMOOTH",
"296 330 OFFCURVE",
"301 298 OFFCURVE",
"301 257 CURVE",
"162 257 LINE"
);
}
);
userData = {
assembly = "NPUSHB[ ]	/* 42 values pushed */
7 22 23 22 39 22 3 38 4 25 87 44 96 44 128 44 2 15 44 1 44 64 11 14 72 3 26 26 14 86 43 26 3 3 31 0 19 16 31 36 9 22 
SVTCA[0]	/* SetFreedomAndProjectionVectorToAxis */
MIAP[1]	/* MoveIndirectAbsPt */
SHP[1]	/* ShiftPointByLastPoint */
SHP[1]	/* ShiftPointByLastPoint */
MIAP[1]	/* MoveIndirectAbsPt */
SHP[1]	/* ShiftPointByLastPoint */
SRP2[ ]	/* SetRefPoint2 */
IP[ ]	/* InterpolatePts */
MDAP[1]	/* MoveDirectAbsPt */
SHP[1]	/* ShiftPointByLastPoint */
SVTCA[1]	/* SetFreedomAndProjectionVectorToAxis */
SRP0[ ]	/* SetRefPoint0 */
MIRP[00110]	/* MoveIndirectRelPt */
SHP[0]	/* ShiftPointByLastPoint */
SRP1[ ]	/* SetRefPoint1 */
SHP[1]	/* ShiftPointByLastPoint */
CALL[ ]	/* CallFunction */
DELTAP1[ ]	/* DeltaExceptionP1 */
DELTAP1[ ]	/* DeltaExceptionP1 */
SRP0[ ]	/* SetRefPoint0 */
MIRP[00110]	/* MoveIndirectRelPt */
SHP[0]	/* ShiftPointByLastPoint */
SHP[0]	/* ShiftPointByLastPoint */
IUP[1]	/* InterpolateUntPts */
IUP[0]	/* InterpolateUntPts */
DELTAP1[ ]	/* DeltaExceptionP1 */";
};
width = 457;
}
);
note = uni0065;
unicode = 0065;
},
{
color = 10;
glyphname = f;
lastChange = "2022-01-06 02:32:25 +0000";
layers = (
{
layerId = "4397B867-53E7-4964-BB9B-A578920F109C";
paths = (
{
closed = 1;
nodes = (
"269 0 LINE",
"269 34 LINE",
"238 34 LINE SMOOTH",
"203 34 OFFCURVE",
"173 41 OFFCURVE",
"173 91 CURVE SMOOTH",
"173 391 LINE",
"286 391 LINE",
"286 429 LINE",
"173 429 LINE",
"173 476 LINE SMOOTH",
"173 544 OFFCURVE",
"187 579 OFFCURVE",
"233 579 CURVE SMOOTH",
"274 579 OFFCURVE",
"286 548 OFFCURVE",
"286 515 CURVE",
"324 515 OFFCURVE",
"351 531 OFFCURVE",
"351 560 CURVE SMOOTH",
"351 577 OFFCURVE",
"344 590 OFFCURVE",
"326 600 CURVE SMOOTH",
"309 610 OFFCURVE",
"281 616 OFFCURVE",
"239 616 CURVE SMOOTH",
"152 616 OFFCURVE",
"98 565 OFFCURVE",
"98 469 CURVE SMOOTH",
"98 429 LINE",
"25 429 LINE",
"25 391 LINE",
"98 391 LINE",
"98 91 LINE SMOOTH",
"98 41 OFFCURVE",
"68 34 OFFCURVE",
"32 34 CURVE SMOOTH",
"22 34 LINE",
"22 0 LINE"
);
}
);
userData = {
assembly = "NPUSHB[ ]	/* 40 values pushed */
40 44 71 9 29 24 13 64 9 80 9 192 9 208 9 224 9 5 9 9 50 51 16 51 1 34 77 19 1 43 11 78 40 12 15 49 3 77 2 21 
SVTCA[0]	/* SetFreedomAndProjectionVectorToAxis */
MIAP[1]	/* MoveIndirectAbsPt */
MIRP[00001]	/* MoveIndirectRelPt */
SHP[0]	/* ShiftPointByLastPoint */
MIAP[1]	/* MoveIndirectAbsPt */
SHP[1]	/* ShiftPointByLastPoint */
MIRP[00001]	/* MoveIndirectRelPt */
SHP[0]	/* ShiftPointByLastPoint */
MIAP[1]	/* MoveIndirectAbsPt */
MIRP[00001]	/* MoveIndirectRelPt */
SVTCA[1]	/* SetFreedomAndProjectionVectorToAxis */
DELTAP1[ ]	/* DeltaExceptionP1 */
SRP1[ ]	/* SetRefPoint1 */
SRP2[ ]	/* SetRefPoint2 */
IP[ ]	/* InterpolatePts */
MDAP[1]	/* MoveDirectAbsPt */
DELTAP1[ ]	/* DeltaExceptionP1 */
SHP[1]	/* ShiftPointByLastPoint */
MDRP[10100]	/* MoveDirectRelPt */
MDRP[00001]	/* MoveDirectRelPt */
SRP0[ ]	/* SetRefPoint0 */
MIRP[00001]	/* MoveIndirectRelPt */
SHP[0]	/* ShiftPointByLastPoint */
IUP[1]	/* InterpolateUntPts */
IUP[0]	/* InterpolateUntPts */";
};
width = 295;
},
{
layerId = "0ED38B93-C2B0-4B4A-9C6D-D7838A33C317";
paths = (
{
closed = 1;
nodes = (
"306 0 LINE",
"306 42 LINE",
"268 42 LINE SMOOTH",
"244 42 OFFCURVE",
"211 50 OFFCURVE",
"211 94 CURVE SMOOTH",
"211 374 LINE",
"322 374 LINE",
"322 429 LINE",
"211 429 LINE",
"211 473 LINE SMOOTH",
"211 543 OFFCURVE",
"222 570 OFFCURVE",
"248 570 CURVE SMOOTH",
"278 570 OFFCURVE",
"288 532 OFFCURVE",
"288 505 CURVE",
"354 505 OFFCURVE",
"386 521 OFFCURVE",
"386 557 CURVE SMOOTH",
"386 574 OFFCURVE",
"378 587 OFFCURVE",
"358 598 CURVE SMOOTH",
"338 609 OFFCURVE",
"304 615 OFFCURVE",
"253 615 CURVE SMOOTH",
"138 615 OFFCURVE",
"90 557 OFFCURVE",
"90 458 CURVE SMOOTH",
"90 429 LINE",
"18 429 LINE",
"18 374 LINE",
"90 374 LINE",
"90 94 LINE SMOOTH",
"90 50 OFFCURVE",
"57 42 OFFCURVE",
"33 42 CURVE SMOOTH",
"15 42 LINE",
"15 0 LINE"
);
}
);
userData = {
assembly = "PUSHB[ ]	/* 4 values pushed */
69 20 1 20 
PUSHW[ ]	/* 1 value pushed */
-40 
NPUSHB[ ]	/* 80 values pushed */
13 20 72 5 15 37 15 2 14 24 9 12 72 38 39 58 25 1 25 48 22 176 22 208 22 224 22 4 22 31 49 255 49 2 49 64 15 18 72 36 39 39 11 0 8 224 8 2 8 184 30 1 70 25 1 26 25 42 25 58 25 3 9 25 1 30 25 17 1 39 9 9 36 10 15 45 1 1 0 21 
SVTCA[0]	/* SetFreedomAndProjectionVectorToAxis */
MIAP[1]	/* MoveIndirectAbsPt */
SHP[0]	/* ShiftPointByLastPoint */
SRP1[ ]	/* SetRefPoint1 */
SHP[1]	/* ShiftPointByLastPoint */
MIAP[1]	/* MoveIndirectAbsPt */
SHP[1]	/* ShiftPointByLastPoint */
SHP[1]	/* ShiftPointByLastPoint */
SRP1[ ]	/* SetRefPoint1 */
SHP[1]	/* ShiftPointByLastPoint */
MIAP[1]	/* MoveIndirectAbsPt */
SHP[1]	/* ShiftPointByLastPoint */
SHP[1]	/* ShiftPointByLastPoint */
DELTAP1[ ]	/* DeltaExceptionP1 */
DELTAP1[ ]	/* DeltaExceptionP1 */
DELTAP1[ ]	/* DeltaExceptionP1 */
DELTAP1[ ]	/* DeltaExceptionP1 */
SVTCA[1]	/* SetFreedomAndProjectionVectorToAxis */
MDAP[1]	/* MoveDirectAbsPt */
DELTAP1[ ]	/* DeltaExceptionP1 */
SHP[1]	/* ShiftPointByLastPoint */
SHP[1]	/* ShiftPointByLastPoint */
SRP1[ ]	/* SetRefPoint1 */
SHP[1]	/* ShiftPointByLastPoint */
CALL[ ]	/* CallFunction */
DELTAP1[ ]	/* DeltaExceptionP1 */
MDAP[1]	/* MoveDirectAbsPt */
DELTAP1[ ]	/* DeltaExceptionP1 */
SHP[1]	/* ShiftPointByLastPoint */
DELTAP1[ ]	/* DeltaExceptionP1 */
SRP2[ ]	/* SetRefPoint2 */
IP[ ]	/* InterpolatePts */
IUP[1]	/* InterpolateUntPts */
IUP[0]	/* InterpolateUntPts */
CALL[ ]	/* CallFunction */
SVTCA[0]	/* SetFreedomAndProjectionVectorToAxis */
DELTAP1[ ]	/* DeltaExceptionP1 */
SVTCA[1]	/* SetFreedomAndProjectionVectorToAxis */
CALL[ ]	/* CallFunction */
SVTCA[0]	/* SetFreedomAndProjectionVectorToAxis */
DELTAP1[ ]	/* DeltaExceptionP1 */";
};
width = 326;
}
);
note = uni0066;
unicode = 0066;
},
{
color = 10;
glyphname = g;
lastChange = "2022-01-06 02:32:25 +0000";
layers = (
{
layerId = "4397B867-53E7-4964-BB9B-A578920F109C";
paths = (
{
closed = 1;
nodes = (
"257 -192 OFFCURVE",
"310 -178 OFFCURVE",
"346 -152 CURVE SMOOTH",
"380 -126 OFFCURVE",
"397 -89 OFFCURVE",
"397 -42 CURVE SMOOTH",
"397 -8 OFFCURVE",
"388 22 OFFCURVE",
"366 43 CURVE SMOOTH",
"346 64 OFFCURVE",
"313 77 OFFCURVE",
"265 77 CURVE SMOOTH",
"174 77 LINE SMOOTH",
"146 77 OFFCURVE",
"125 81 OFFCURVE",
"125 107 CURVE SMOOTH",
"125 131 OFFCURVE",
"142 146 OFFCURVE",
"163 156 CURVE",
"176 154 OFFCURVE",
"188 154 OFFCURVE",
"205 154 CURVE SMOOTH",
"302 154 OFFCURVE",
"349 212 OFFCURVE",
"349 291 CURVE SMOOTH",
"349 337 OFFCURVE",
"336 366 OFFCURVE",
"318 388 CURVE",
"328 394 OFFCURVE",
"338 398 OFFCURVE",
"352 398 CURVE SMOOTH",
"374 398 OFFCURVE",
"378 382 OFFCURVE",
"378 370 CURVE",
"407 370 OFFCURVE",
"421 389 OFFCURVE",
"421 412 CURVE SMOOTH",
"421 434 OFFCURVE",
"405 454 OFFCURVE",
"374 454 CURVE SMOOTH",
"338 454 OFFCURVE",
"313 428 OFFCURVE",
"296 410 CURVE",
"280 425 OFFCURVE",
"242 437 OFFCURVE",
"205 437 CURVE SMOOTH",
"104 437 OFFCURVE",
"54 381 OFFCURVE",
"54 289 CURVE SMOOTH",
"54 236 OFFCURVE",
"81 186 OFFCURVE",
"126 168 CURVE",
"90 146 OFFCURVE",
"74 125 OFFCURVE",
"74 93 CURVE SMOOTH",
"74 59 OFFCURVE",
"97 37 OFFCURVE",
"118 27 CURVE",
"65 18 OFFCURVE",
"18 -14 OFFCURVE",
"18 -75 CURVE SMOOTH",
"18 -149 OFFCURVE",
"74 -192 OFFCURVE",
"185 -192 CURVE SMOOTH"
);
},
{
closed = 1;
nodes = (
"146 -153 OFFCURVE",
"120 -144 OFFCURVE",
"104 -130 CURVE SMOOTH",
"89 -114 OFFCURVE",
"83 -94 OFFCURVE",
"83 -70 CURVE SMOOTH",
"83 -7 OFFCURVE",
"126 6 OFFCURVE",
"171 6 CURVE SMOOTH",
"250 6 LINE SMOOTH",
"303 6 OFFCURVE",
"331 -7 OFFCURVE",
"331 -56 CURVE SMOOTH",
"331 -112 OFFCURVE",
"300 -153 OFFCURVE",
"186 -153 CURVE SMOOTH"
);
},
{
closed = 1;
nodes = (
"150 192 OFFCURVE",
"130 222 OFFCURVE",
"130 291 CURVE SMOOTH",
"130 363 OFFCURVE",
"150 398 OFFCURVE",
"202 398 CURVE SMOOTH",
"254 398 OFFCURVE",
"274 364 OFFCURVE",
"274 292 CURVE SMOOTH",
"274 223 OFFCURVE",
"255 192 OFFCURVE",
"202 192 CURVE SMOOTH"
);
}
);
userData = {
assembly = "NPUSHB[ ]	/* 103 values pushed */
31 71 56 60 60 50 98 71 42 13 77 73 22 26 63 6 68 117 71 0 240 16 1 16 15 42 31 42 47 42 3 42 124 15 124 31 124 63 124 79 124 111 124 5 109 71 0 68 16 68 2 68 88 71 208 50 224 50 240 50 3 15 50 31 50 2 50 10 120 78 73 5 83 73 55 104 80 36 112 78 21 78 13 63 26 4 21 73 64 21 96 21 2 36 21 36 21 73 16 93 78 47 27 
SVTCA[0]	/* SetFreedomAndProjectionVectorToAxis */
MIAP[1]	/* MoveIndirectAbsPt */
MIRP[00001]	/* MoveIndirectRelPt */
MIAP[1]	/* MoveIndirectAbsPt */
IP[ ]	/* InterpolatePts */
IP[ ]	/* InterpolatePts */
MDAP[1]	/* MoveDirectAbsPt */
MDAP[1]	/* MoveDirectAbsPt */
DELTAP1[ ]	/* DeltaExceptionP1 */
SRP1[ ]	/* SetRefPoint1 */
SRP2[ ]	/* SetRefPoint2 */
SLOOP[ ]	/* SetLoopVariable */
IP[ ]	/* InterpolatePts */
SRP0[ ]	/* SetRefPoint0 */
MIRP[00001]	/* MoveIndirectRelPt */
SRP0[ ]	/* SetRefPoint0 */
MIRP[00001]	/* MoveIndirectRelPt */
IP[ ]	/* InterpolatePts */
SRP0[ ]	/* SetRefPoint0 */
MDRP[10100]	/* MoveDirectRelPt */
MDRP[00100]	/* MoveDirectRelPt */
SRP0[ ]	/* SetRefPoint0 */
MIRP[00001]	/* MoveIndirectRelPt */
SHP[0]	/* ShiftPointByLastPoint */
SVTCA[1]	/* SetFreedomAndProjectionVectorToAxis */
MDAP[1]	/* MoveDirectAbsPt */
DELTAP1[ ]	/* DeltaExceptionP1 */
DELTAP1[ ]	/* DeltaExceptionP1 */
MIRP[00001]	/* MoveIndirectRelPt */
MDRP[11100]	/* MoveDirectRelPt */
DELTAP1[ ]	/* DeltaExceptionP1 */
MIRP[00001]	/* MoveIndirectRelPt */
DELTAP1[ ]	/* DeltaExceptionP1 */
SRP0[ ]	/* SetRefPoint0 */
MDRP[11110]	/* MoveDirectRelPt */
DELTAP1[ ]	/* DeltaExceptionP1 */
MDRP[10100]	/* MoveDirectRelPt */
DELTAP1[ ]	/* DeltaExceptionP1 */
MDRP[00100]	/* MoveDirectRelPt */
MIRP[00001]	/* MoveIndirectRelPt */
SRP2[ ]	/* SetRefPoint2 */
SLOOP[ ]	/* SetLoopVariable */
IP[ ]	/* InterpolatePts */
SRP0[ ]	/* SetRefPoint0 */
MIRP[00001]	/* MoveIndirectRelPt */
SRP1[ ]	/* SetRefPoint1 */
IP[ ]	/* InterpolatePts */
MDAP[1]	/* MoveDirectAbsPt */
IP[ ]	/* InterpolatePts */
MIRP[00001]	/* MoveIndirectRelPt */
IUP[1]	/* InterpolateUntPts */
IUP[0]	/* InterpolateUntPts */";
};
width = 430;
},
{
layerId = "0ED38B93-C2B0-4B4A-9C6D-D7838A33C317";
paths = (
{
closed = 1;
nodes = (
"271 -192 OFFCURVE",
"330 -176 OFFCURVE",
"369 -147 CURVE SMOOTH",
"404 -121 OFFCURVE",
"421 -82 OFFCURVE",
"421 -35 CURVE SMOOTH",
"421 3 OFFCURVE",
"409 34 OFFCURVE",
"384 54 CURVE SMOOTH",
"358 75 OFFCURVE",
"320 87 OFFCURVE",
"267 87 CURVE SMOOTH",
"170 87 LINE SMOOTH",
"148 87 OFFCURVE",
"133 95 OFFCURVE",
"133 113 CURVE SMOOTH",
"133 132 OFFCURVE",
"147 146 OFFCURVE",
"162 154 CURVE",
"174 152 OFFCURVE",
"193 151 OFFCURVE",
"208 151 CURVE SMOOTH",
"320 151 OFFCURVE",
"370 211 OFFCURVE",
"370 291 CURVE SMOOTH",
"370 331 OFFCURVE",
"352 370 OFFCURVE",
"330 393 CURVE",
"336 397 OFFCURVE",
"348 402 OFFCURVE",
"357 402 CURVE SMOOTH",
"372 402 OFFCURVE",
"387 390 OFFCURVE",
"387 368 CURVE",
"430 368 OFFCURVE",
"444 388 OFFCURVE",
"444 414 CURVE SMOOTH",
"444 439 OFFCURVE",
"423 459 OFFCURVE",
"386 459 CURVE SMOOTH",
"346 459 OFFCURVE",
"322 434 OFFCURVE",
"303 414 CURVE",
"279 428 OFFCURVE",
"246 439 OFFCURVE",
"208 439 CURVE SMOOTH",
"94 439 OFFCURVE",
"41 385 OFFCURVE",
"41 291 CURVE SMOOTH",
"41 227 OFFCURVE",
"75 184 OFFCURVE",
"122 167 CURVE",
"82 144 OFFCURVE",
"51 119 OFFCURVE",
"51 83 CURVE SMOOTH",
"51 44 OFFCURVE",
"81 23 OFFCURVE",
"110 12 CURVE",
"39 6 OFFCURVE",
"2 -23 OFFCURVE",
"2 -81 CURVE SMOOTH",
"2 -154 OFFCURVE",
"62 -192 OFFCURVE",
"189 -192 CURVE SMOOTH"
);
},
{
closed = 1;
nodes = (
"158 -144 OFFCURVE",
"133 -138 OFFCURVE",
"117 -126 CURVE SMOOTH",
"103 -115 OFFCURVE",
"96 -99 OFFCURVE",
"96 -79 CURVE SMOOTH",
"96 -28 OFFCURVE",
"134 -18 OFFCURVE",
"167 -18 CURVE SMOOTH",
"260 -18 LINE SMOOTH",
"303 -18 OFFCURVE",
"325 -30 OFFCURVE",
"325 -64 CURVE SMOOTH",
"325 -117 OFFCURVE",
"284 -144 OFFCURVE",
"190 -144 CURVE SMOOTH"
);
},
{
closed = 1;
nodes = (
"164 198 OFFCURVE",
"150 236 OFFCURVE",
"150 291 CURVE SMOOTH",
"150 350 OFFCURVE",
"163 391 OFFCURVE",
"205 391 CURVE SMOOTH",
"247 391 OFFCURVE",
"260 350 OFFCURVE",
"260 292 CURVE SMOOTH",
"260 233 OFFCURVE",
"248 198 OFFCURVE",
"206 198 CURVE SMOOTH"
);
}
);
userData = {
assembly = "PUSHW[ ]	/* 2 values pushed */
15 -40 
NPUSHB[ ]	/* 141 values pushed */
12 15 72 9 51 25 51 41 51 3 9 49 25 49 41 49 3 6 40 22 40 38 40 3 6 20 22 20 38 20 3 11 65 27 65 43 65 3 9 69 25 69 41 69 3 84 31 50 1 50 33 58 58 50 13 74 28 63 4 18 37 99 1 7 99 23 99 2 99 16 68 1 68 5 0 90 42 0 42 109 1 25 109 1 8 109 1 0 109 42 3 96 18 1 18 18 120 111 120 127 120 2 16 120 1 74 13 63 3 23 71 53 94 58 94 1 40 94 1 94 36 104 23 96 23 1 36 23 36 23 87 71 5 79 114 79 71 16 87 47 27 
SVTCA[0]	/* SetFreedomAndProjectionVectorToAxis */
MIAP[1]	/* MoveIndirectAbsPt */
SHP[1]	/* ShiftPointByLastPoint */
MIAP[1]	/* MoveIndirectAbsPt */
SHP[1]	/* ShiftPointByLastPoint */
SHP[1]	/* ShiftPointByLastPoint */
MDAP[1]	/* MoveDirectAbsPt */
SHP[1]	/* ShiftPointByLastPoint */
SRP1[ ]	/* SetRefPoint1 */
SRP2[ ]	/* SetRefPoint2 */
IP[ ]	/* InterpolatePts */
IP[ ]	/* InterpolatePts */
MDAP[1]	/* MoveDirectAbsPt */
MDAP[1]	/* MoveDirectAbsPt */
DELTAP1[ ]	/* DeltaExceptionP1 */
SRP1[ ]	/* SetRefPoint1 */
SHP[1]	/* ShiftPointByLastPoint */
SRP1[ ]	/* SetRefPoint1 */
SHP[1]	/* ShiftPointByLastPoint */
DELTAP1[ ]	/* DeltaExceptionP1 */
DELTAP1[ ]	/* DeltaExceptionP1 */
SRP2[ ]	/* SetRefPoint2 */
IP[ ]	/* InterpolatePts */
SRP1[ ]	/* SetRefPoint1 */
SRP2[ ]	/* SetRefPoint2 */
SLOOP[ ]	/* SetLoopVariable */
IP[ ]	/* InterpolatePts */
SVTCA[1]	/* SetFreedomAndProjectionVectorToAxis */
DELTAP1[ ]	/* DeltaExceptionP1 */
DELTAP1[ ]	/* DeltaExceptionP1 */
SRP1[ ]	/* SetRefPoint1 */
SHP[1]	/* ShiftPointByLastPoint */
MDAP[1]	/* MoveDirectAbsPt */
DELTAP1[ ]	/* DeltaExceptionP1 */
SLOOP[ ]	/* SetLoopVariable */
SHP[1]	/* ShiftPointByLastPoint */
DELTAP1[ ]	/* DeltaExceptionP1 */
DELTAP1[ ]	/* DeltaExceptionP1 */
DELTAP1[ ]	/* DeltaExceptionP1 */
MDAP[1]	/* MoveDirectAbsPt */
MDAP[1]	/* MoveDirectAbsPt */
SHP[1]	/* ShiftPointByLastPoint */
SRP1[ ]	/* SetRefPoint1 */
SHP[1]	/* ShiftPointByLastPoint */
MDAP[1]	/* MoveDirectAbsPt */
DELTAP1[ ]	/* DeltaExceptionP1 */
SHP[1]	/* ShiftPointByLastPoint */
DELTAP1[ ]	/* DeltaExceptionP1 */
DELTAP1[ ]	/* DeltaExceptionP1 */
SRP2[ ]	/* SetRefPoint2 */
SLOOP[ ]	/* SetLoopVariable */
IP[ ]	/* InterpolatePts */
SHP[1]	/* ShiftPointByLastPoint */
SHP[1]	/* ShiftPointByLastPoint */
MDAP[1]	/* MoveDirectAbsPt */
SHP[1]	/* ShiftPointByLastPoint */
MDAP[1]	/* MoveDirectAbsPt */
DELTAP1[ ]	/* DeltaExceptionP1 */
SHP[1]	/* ShiftPointByLastPoint */
IUP[1]	/* InterpolateUntPts */
IUP[0]	/* InterpolateUntPts */
DELTAP1[ ]	/* DeltaExceptionP1 */
DELTAP1[ ]	/* DeltaExceptionP1 */
DELTAP1[ ]	/* DeltaExceptionP1 */
DELTAP1[ ]	/* DeltaExceptionP1 */
DELTAP1[ ]	/* DeltaExceptionP1 */
DELTAP1[ ]	/* DeltaExceptionP1 */
CALL[ ]	/* CallFunction */";
};
width = 448;
}
);
note = uni0067;
unicode = 0067;
},
{
color = 10;
glyphname = h;
lastChange = "2022-01-06 02:32:25 +0000";
layers = (
{
layerId = "4397B867-53E7-4964-BB9B-A578920F109C";
paths = (
{
closed = 1;
nodes = (
"230 0 LINE",
"230 34 LINE",
"227 34 LINE SMOOTH",
"191 34 OFFCURVE",
"162 40 OFFCURVE",
"162 87 CURVE SMOOTH",
"162 256 LINE SMOOTH",
"162 335 OFFCURVE",
"192 386 OFFCURVE",
"258 386 CURVE SMOOTH",
"322 386 OFFCURVE",
"346 347 OFFCURVE",
"346 276 CURVE SMOOTH",
"346 0 LINE",
"486 0 LINE",
"486 34 LINE",
"483 34 LINE SMOOTH",
"448 34 OFFCURVE",
"422 42 OFFCURVE",
"422 91 CURVE SMOOTH",
"422 280 LINE SMOOTH",
"422 389 OFFCURVE",
"371 437 OFFCURVE",
"280 437 CURVE SMOOTH",
"226 437 OFFCURVE",
"186 413 OFFCURVE",
"162 364 CURVE",
"158 364 LINE",
"160 387 LINE SMOOTH",
"161 401 OFFCURVE",
"162 418 OFFCURVE",
"162 432 CURVE SMOOTH",
"162 608 LINE",
"14 608 LINE",
"14 574 LINE",
"21 574 LINE SMOOTH",
"56 574 OFFCURVE",
"86 568 OFFCURVE",
"86 520 CURVE SMOOTH",
"86 91 LINE SMOOTH",
"86 41 OFFCURVE",
"57 34 OFFCURVE",
"21 34 CURVE SMOOTH",
"14 34 LINE",
"14 0 LINE"
);
}
);
userData = {
assembly = "NPUSHB[ ]	/* 34 values pushed */
41 71 33 85 60 127 60 159 60 207 60 3 19 53 71 9 84 59 25 47 80 27 16 16 77 17 0 39 0 3 77 41 2 21 
SVTCA[0]	/* SetFreedomAndProjectionVectorToAxis */
MIAP[1]	/* MoveIndirectAbsPt */
SHP[1]	/* ShiftPointByLastPoint */
MIRP[00001]	/* MoveIndirectRelPt */
SHP[0]	/* ShiftPointByLastPoint */
SHP[0]	/* ShiftPointByLastPoint */
MIAP[1]	/* MoveIndirectAbsPt */
MIRP[00001]	/* MoveIndirectRelPt */
MIAP[1]	/* MoveIndirectAbsPt */
MIRP[00001]	/* MoveIndirectRelPt */
SHP[0]	/* ShiftPointByLastPoint */
SVTCA[1]	/* SetFreedomAndProjectionVectorToAxis */
SRP0[ ]	/* SetRefPoint0 */
MIRP[10100]	/* MoveIndirectRelPt */
MIRP[00001]	/* MoveIndirectRelPt */
SHP[0]	/* ShiftPointByLastPoint */
DELTAP1[ ]	/* DeltaExceptionP1 */
SRP0[ ]	/* SetRefPoint0 */
MIRP[10100]	/* MoveIndirectRelPt */
MIRP[00001]	/* MoveIndirectRelPt */
IUP[1]	/* InterpolateUntPts */
IUP[0]	/* InterpolateUntPts */";
};
width = 508;
},
{
layerId = "0ED38B93-C2B0-4B4A-9C6D-D7838A33C317";
paths = (
{
closed = 1;
nodes = (
"262 0 LINE",
"262 42 LINE",
"259 42 LINE SMOOTH",
"225 42 OFFCURVE",
"202 50 OFFCURVE",
"202 94 CURVE SMOOTH",
"202 247 LINE SMOOTH",
"202 312 OFFCURVE",
"218 371 OFFCURVE",
"271 371 CURVE SMOOTH",
"325 371 OFFCURVE",
"335 318 OFFCURVE",
"335 263 CURVE SMOOTH",
"335 0 LINE",
"513 0 LINE",
"513 42 LINE",
"510 42 LINE SMOOTH",
"474 42 OFFCURVE",
"457 50 OFFCURVE",
"457 99 CURVE SMOOTH",
"457 285 LINE SMOOTH",
"457 378 OFFCURVE",
"418 439 OFFCURVE",
"325 439 CURVE SMOOTH",
"274 439 OFFCURVE",
"234 434 OFFCURVE",
"202 374 CURVE",
"195 374 LINE",
"198 410 LINE SMOOTH",
"200 430 OFFCURVE",
"202 455 OFFCURVE",
"202 476 CURVE SMOOTH",
"202 608 LINE",
"14 608 LINE",
"14 566 LINE",
"23 566 LINE SMOOTH",
"46 566 OFFCURVE",
"80 560 OFFCURVE",
"80 517 CURVE SMOOTH",
"80 98 LINE SMOOTH",
"80 50 OFFCURVE",
"54 42 OFFCURVE",
"18 42 CURVE SMOOTH",
"16 42 LINE",
"16 0 LINE"
);
}
);
userData = {
assembly = "NPUSHB[ ]	/* 44 values pushed */
11 44 75 44 2 7 9 1 5 51 21 51 37 51 3 0 54 85 63 16 63 64 63 2 37 12 12 27 84 62 6 42 1 42 6 6 48 16 34 35 0 20 0 21 
SVTCA[0]	/* SetFreedomAndProjectionVectorToAxis */
MIAP[1]	/* MoveIndirectAbsPt */
SHP[0]	/* ShiftPointByLastPoint */
MIAP[1]	/* MoveIndirectAbsPt */
SHP[1]	/* ShiftPointByLastPoint */
MIAP[1]	/* MoveIndirectAbsPt */
SHP[1]	/* ShiftPointByLastPoint */
SRP1[ ]	/* SetRefPoint1 */
SHP[1]	/* ShiftPointByLastPoint */
DELTAP1[ ]	/* DeltaExceptionP1 */
SVTCA[1]	/* SetFreedomAndProjectionVectorToAxis */
SRP0[ ]	/* SetRefPoint0 */
MIRP[00100]	/* MoveIndirectRelPt */
SHP[0]	/* ShiftPointByLastPoint */
SRP1[ ]	/* SetRefPoint1 */
SHP[1]	/* ShiftPointByLastPoint */
DELTAP1[ ]	/* DeltaExceptionP1 */
SRP0[ ]	/* SetRefPoint0 */
MIRP[00100]	/* MoveIndirectRelPt */
SHP[0]	/* ShiftPointByLastPoint */
IUP[1]	/* InterpolateUntPts */
IUP[0]	/* InterpolateUntPts */
DELTAP1[ ]	/* DeltaExceptionP1 */
DELTAP1[ ]	/* DeltaExceptionP1 */
DELTAP1[ ]	/* DeltaExceptionP1 */";
};
width = 534;
}
);
note = uni0068;
unicode = 0068;
},
{
color = 10;
glyphname = i;
lastChange = "2022-01-06 02:32:25 +0000";
layers = (
{
layerId = "4397B867-53E7-4964-BB9B-A578920F109C";
paths = (
{
closed = 1;
nodes = (
"246 0 LINE",
"246 34 LINE",
"235 34 LINE SMOOTH",
"200 34 OFFCURVE",
"170 41 OFFCURVE",
"170 91 CURVE SMOOTH",
"170 429 LINE",
"26 429 LINE",
"26 395 LINE",
"29 395 LINE SMOOTH",
"64 395 OFFCURVE",
"94 387 OFFCURVE",
"94 341 CURVE SMOOTH",
"94 87 LINE SMOOTH",
"94 40 OFFCURVE",
"65 34 OFFCURVE",
"29 34 CURVE SMOOTH",
"18 34 LINE",
"18 0 LINE"
);
},
{
closed = 1;
nodes = (
"154 509 OFFCURVE",
"174 522 OFFCURVE",
"174 558 CURVE SMOOTH",
"174 598 OFFCURVE",
"154 608 OFFCURVE",
"129 608 CURVE SMOOTH",
"103 608 OFFCURVE",
"83 596 OFFCURVE",
"83 558 CURVE SMOOTH",
"83 522 OFFCURVE",
"103 509 OFFCURVE",
"129 509 CURVE SMOOTH"
);
}
);
userData = {
assembly = "NPUSHB[ ]	/* 35 values pushed */
35 74 25 15 71 192 5 208 5 224 5 3 5 5 46 45 255 46 1 32 46 1 40 83 30 0 20 24 77 23 21 12 77 13 15 
SVTCA[0]	/* SetFreedomAndProjectionVectorToAxis */
MIAP[1]	/* MoveIndirectAbsPt */
MIRP[00001]	/* MoveIndirectRelPt */
MIAP[1]	/* MoveIndirectAbsPt */
MIRP[00001]	/* MoveIndirectRelPt */
SHP[0]	/* ShiftPointByLastPoint */
MIAP[1]	/* MoveIndirectAbsPt */
MIRP[01101]	/* MoveIndirectRelPt */
SVTCA[1]	/* SetFreedomAndProjectionVectorToAxis */
DELTAP1[ ]	/* DeltaExceptionP1 */
DELTAP1[ ]	/* DeltaExceptionP1 */
SRP1[ ]	/* SetRefPoint1 */
SRP2[ ]	/* SetRefPoint2 */
IP[ ]	/* InterpolatePts */
MDAP[1]	/* MoveDirectAbsPt */
DELTAP1[ ]	/* DeltaExceptionP1 */
MIRP[00001]	/* MoveIndirectRelPt */
MDRP[10100]	/* MoveDirectRelPt */
MIRP[01101]	/* MoveIndirectRelPt */
IUP[1]	/* InterpolateUntPts */
IUP[0]	/* InterpolateUntPts */";
};
width = 256;
},
{
layerId = "0ED38B93-C2B0-4B4A-9C6D-D7838A33C317";
paths = (
{
closed = 1;
nodes = (
"268 0 LINE",
"268 42 LINE",
"258 42 LINE SMOOTH",
"234 42 OFFCURVE",
"202 50 OFFCURVE",
"202 94 CURVE SMOOTH",
"202 429 LINE",
"14 429 LINE",
"14 386 LINE",
"23 386 LINE SMOOTH",
"46 386 OFFCURVE",
"80 381 OFFCURVE",
"80 338 CURVE SMOOTH",
"80 94 LINE SMOOTH",
"80 50 OFFCURVE",
"47 42 OFFCURVE",
"23 42 CURVE SMOOTH",
"14 42 LINE",
"14 0 LINE"
);
},
{
closed = 1;
nodes = (
"173 501 OFFCURVE",
"206 519 OFFCURVE",
"206 558 CURVE SMOOTH",
"206 599 OFFCURVE",
"174 616 OFFCURVE",
"137 616 CURVE SMOOTH",
"98 616 OFFCURVE",
"69 598 OFFCURVE",
"69 558 CURVE SMOOTH",
"69 519 OFFCURVE",
"98 501 OFFCURVE",
"137 501 CURVE SMOOTH"
);
}
);
userData = {
assembly = "NPUSHB[ ]	/* 84 values pushed */
156 18 172 18 188 18 3 154 17 1 147 12 163 12 179 12 3 147 8 163 8 179 8 3 154 3 1 157 2 173 2 189 2 3 208 46 1 159 46 1 16 46 64 46 80 46 3 183 10 1 40 10 56 10 2 10 35 169 0 185 0 2 0 8 10 18 72 35 0 25 84 45 40 44 44 43 21 5 83 15 15 32 33 15 
SVTCA[0]	/* SetFreedomAndProjectionVectorToAxis */
MIAP[1]	/* MoveIndirectAbsPt */
SHP[1]	/* ShiftPointByLastPoint */
SHP[1]	/* ShiftPointByLastPoint */
MDAP[1]	/* MoveDirectAbsPt */
MIRP[01101]	/* MoveIndirectRelPt */
MIAP[1]	/* MoveIndirectAbsPt */
SHP[1]	/* ShiftPointByLastPoint */
SRP1[ ]	/* SetRefPoint1 */
SHP[1]	/* ShiftPointByLastPoint */
SVTCA[1]	/* SetFreedomAndProjectionVectorToAxis */
SRP0[ ]	/* SetRefPoint0 */
MIRP[00100]	/* MoveIndirectRelPt */
SHP[0]	/* ShiftPointByLastPoint */
SHP[0]	/* ShiftPointByLastPoint */
CALL[ ]	/* CallFunction */
DELTAP1[ ]	/* DeltaExceptionP1 */
SRP1[ ]	/* SetRefPoint1 */
SHP[1]	/* ShiftPointByLastPoint */
DELTAP1[ ]	/* DeltaExceptionP1 */
DELTAP1[ ]	/* DeltaExceptionP1 */
DELTAP1[ ]	/* DeltaExceptionP1 */
DELTAP1[ ]	/* DeltaExceptionP1 */
DELTAP1[ ]	/* DeltaExceptionP1 */
IUP[1]	/* InterpolateUntPts */
IUP[0]	/* InterpolateUntPts */
DELTAP1[ ]	/* DeltaExceptionP1 */
DELTAP1[ ]	/* DeltaExceptionP1 */
DELTAP1[ ]	/* DeltaExceptionP1 */
DELTAP1[ ]	/* DeltaExceptionP1 */
DELTAP1[ ]	/* DeltaExceptionP1 */
DELTAP1[ ]	/* DeltaExceptionP1 */";
};
width = 282;
}
);
note = uni0069;
unicode = 0069;
},
{
color = 10;
glyphname = j;
lastChange = "2022-01-06 02:32:25 +0000";
layers = (
{
layerId = "4397B867-53E7-4964-BB9B-A578920F109C";
paths = (
{
closed = 1;
nodes = (
"3 -192 LINE SMOOTH",
"119 -192 OFFCURVE",
"162 -122 OFFCURVE",
"162 -6 CURVE SMOOTH",
"162 429 LINE",
"18 429 LINE",
"18 395 LINE",
"21 395 LINE SMOOTH",
"56 395 OFFCURVE",
"86 387 OFFCURVE",
"86 341 CURVE SMOOTH",
"86 -7 LINE SMOOTH",
"86 -65 OFFCURVE",
"78 -102 OFFCURVE",
"62 -125 CURVE SMOOTH",
"46 -146 OFFCURVE",
"24 -154 OFFCURVE",
"-4 -154 CURVE SMOOTH",
"-10 -154 LINE",
"-10 -192 LINE"
);
},
{
closed = 1;
nodes = (
"146 509 OFFCURVE",
"166 522 OFFCURVE",
"166 558 CURVE SMOOTH",
"166 596 OFFCURVE",
"145 608 OFFCURVE",
"121 608 CURVE SMOOTH",
"95 608 OFFCURVE",
"75 596 OFFCURVE",
"75 558 CURVE SMOOTH",
"75 522 OFFCURVE",
"95 509 OFFCURVE",
"121 509 CURVE SMOOTH"
);
}
);
userData = {
assembly = "NPUSHB[ ]	/* 35 values pushed */
33 74 23 1 71 192 14 208 14 224 14 3 14 14 44 43 159 44 207 44 255 44 3 38 83 28 0 20 77 22 15 8 78 6 27 
SVTCA[0]	/* SetFreedomAndProjectionVectorToAxis */
MIAP[1]	/* MoveIndirectAbsPt */
MIRP[00001]	/* MoveIndirectRelPt */
MIAP[1]	/* MoveIndirectAbsPt */
MIRP[00001]	/* MoveIndirectRelPt */
MIAP[1]	/* MoveIndirectAbsPt */
MIRP[01101]	/* MoveIndirectRelPt */
SVTCA[1]	/* SetFreedomAndProjectionVectorToAxis */
DELTAP1[ ]	/* DeltaExceptionP1 */
SRP1[ ]	/* SetRefPoint1 */
SRP2[ ]	/* SetRefPoint2 */
IP[ ]	/* InterpolatePts */
MDAP[1]	/* MoveDirectAbsPt */
DELTAP1[ ]	/* DeltaExceptionP1 */
MIRP[00001]	/* MoveIndirectRelPt */
MDRP[10100]	/* MoveDirectRelPt */
MIRP[01101]	/* MoveIndirectRelPt */
IUP[1]	/* InterpolateUntPts */
IUP[0]	/* InterpolateUntPts */";
};
width = 240;
},
{
layerId = "0ED38B93-C2B0-4B4A-9C6D-D7838A33C317";
paths = (
{
closed = 1;
nodes = (
"0 -192 LINE SMOOTH",
"118 -192 OFFCURVE",
"202 -149 OFFCURVE",
"202 -6 CURVE SMOOTH",
"202 429 LINE",
"14 429 LINE",
"14 386 LINE",
"16 386 LINE SMOOTH",
"50 386 OFFCURVE",
"80 380 OFFCURVE",
"80 334 CURVE SMOOTH",
"80 0 LINE SMOOTH",
"80 -54 OFFCURVE",
"72 -90 OFFCURVE",
"57 -112 CURVE SMOOTH",
"42 -134 OFFCURVE",
"18 -142 OFFCURVE",
"-10 -142 CURVE SMOOTH",
"-16 -142 LINE",
"-16 -192 LINE"
);
},
{
closed = 1;
nodes = (
"174 501 OFFCURVE",
"206 519 OFFCURVE",
"206 558 CURVE SMOOTH",
"206 599 OFFCURVE",
"174 616 OFFCURVE",
"138 616 CURVE SMOOTH",
"98 616 OFFCURVE",
"70 598 OFFCURVE",
"70 558 CURVE SMOOTH",
"70 519 OFFCURVE",
"98 501 OFFCURVE",
"138 501 CURVE SMOOTH"
);
}
);
userData = {
assembly = "NPUSHB[ ]	/* 75 values pushed */
156 41 172 41 188 41 3 154 40 1 147 35 163 35 179 35 3 147 31 163 31 179 31 3 154 26 1 156 25 172 25 188 25 3 208 44 1 159 44 1 80 44 1 183 33 1 33 1 169 23 185 23 2 23 8 10 18 72 7 23 1 3 14 84 43 28 83 38 38 20 22 15 9 6 27 
SVTCA[0]	/* SetFreedomAndProjectionVectorToAxis */
MIAP[1]	/* MoveIndirectAbsPt */
SHP[1]	/* ShiftPointByLastPoint */
MIAP[1]	/* MoveIndirectAbsPt */
SHP[1]	/* ShiftPointByLastPoint */
SHP[1]	/* ShiftPointByLastPoint */
MDAP[1]	/* MoveDirectAbsPt */
MIRP[01101]	/* MoveIndirectRelPt */
SVTCA[1]	/* SetFreedomAndProjectionVectorToAxis */
SRP0[ ]	/* SetRefPoint0 */
MIRP[00110]	/* MoveIndirectRelPt */
SLOOP[ ]	/* SetLoopVariable */
SHP[0]	/* ShiftPointByLastPoint */
CALL[ ]	/* CallFunction */
DELTAP1[ ]	/* DeltaExceptionP1 */
SRP1[ ]	/* SetRefPoint1 */
SHP[1]	/* ShiftPointByLastPoint */
DELTAP1[ ]	/* DeltaExceptionP1 */
DELTAP1[ ]	/* DeltaExceptionP1 */
DELTAP1[ ]	/* DeltaExceptionP1 */
DELTAP1[ ]	/* DeltaExceptionP1 */
IUP[1]	/* InterpolateUntPts */
IUP[0]	/* InterpolateUntPts */
DELTAP1[ ]	/* DeltaExceptionP1 */
DELTAP1[ ]	/* DeltaExceptionP1 */
DELTAP1[ ]	/* DeltaExceptionP1 */
DELTAP1[ ]	/* DeltaExceptionP1 */
DELTAP1[ ]	/* DeltaExceptionP1 */
DELTAP1[ ]	/* DeltaExceptionP1 */";
};
width = 276;
}
);
note = uni006A;
unicode = 006A;
},
{
color = 10;
glyphname = k;
lastChange = "2022-01-06 02:32:25 +0000";
layers = (
{
background = {
paths = (
{
closed = 1;
nodes = (
"230 0 LINE",
"230 34 LINE",
"227 34 LINE SMOOTH",
"191 34 OFFCURVE",
"162 40 OFFCURVE",
"162 87 CURVE SMOOTH",
"162 159 LINE",
"221 203 LINE",
"301 78 LINE SMOOTH",
"346 7 OFFCURVE",
"366 0 OFFCURVE",
"458 0 CURVE SMOOTH",
"469 0 LINE",
"469 34 LINE",
"466 34 LINE SMOOTH",
"430 34 OFFCURVE",
"406 57 OFFCURVE",
"378 99 CURVE SMOOTH",
"271 258 LINE",
"327 321 LINE SMOOTH",
"369 368 OFFCURVE",
"403 395 OFFCURVE",
"440 395 CURVE",
"440 429 LINE",
"263 429 LINE",
"263 395 LINE",
"277 395 OFFCURVE",
"286 394 OFFCURVE",
"293 392 CURVE SMOOTH",
"299 390 OFFCURVE",
"302 386 OFFCURVE",
"302 379 CURVE SMOOTH",
"302 362 OFFCURVE",
"289 342 OFFCURVE",
"258 308 CURVE SMOOTH",
"158 198 LINE",
"160 238 LINE SMOOTH",
"161 260 OFFCURVE",
"162 285 OFFCURVE",
"162 299 CURVE SMOOTH",
"162 608 LINE",
"14 608 LINE",
"14 574 LINE",
"21 574 LINE SMOOTH",
"56 574 OFFCURVE",
"86 568 OFFCURVE",
"86 520 CURVE SMOOTH",
"86 91 LINE SMOOTH",
"86 41 OFFCURVE",
"57 34 OFFCURVE",
"21 34 CURVE SMOOTH",
"14 34 LINE",
"14 0 LINE"
);
}
);
};
layerId = "4397B867-53E7-4964-BB9B-A578920F109C";
paths = (
{
closed = 1;
nodes = (
"230 0 LINE",
"230 34 LINE",
"227 34 LINE SMOOTH",
"191 34 OFFCURVE",
"162 40 OFFCURVE",
"162 87 CURVE SMOOTH",
"162 159 LINE",
"221 203 LINE",
"301 78 LINE SMOOTH",
"324 42 OFFCURVE",
"340 22 OFFCURVE",
"363 11 CURVE SMOOTH",
"386 2 OFFCURVE",
"413 0 OFFCURVE",
"458 0 CURVE SMOOTH",
"469 0 LINE",
"469 34 LINE",
"466 34 LINE SMOOTH",
"430 34 OFFCURVE",
"406 57 OFFCURVE",
"378 99 CURVE SMOOTH",
"271 258 LINE",
"327 321 LINE SMOOTH",
"369 368 OFFCURVE",
"403 395 OFFCURVE",
"440 395 CURVE",
"440 429 LINE",
"263 429 LINE",
"263 395 LINE",
"295 395 OFFCURVE",
"302 390 OFFCURVE",
"302 379 CURVE SMOOTH",
"302 362 OFFCURVE",
"289 342 OFFCURVE",
"258 308 CURVE SMOOTH",
"158 198 LINE",
"161 252 OFFCURVE",
"162 277 OFFCURVE",
"162 299 CURVE SMOOTH",
"162 608 LINE",
"14 608 LINE",
"14 574 LINE",
"21 574 LINE SMOOTH",
"56 574 OFFCURVE",
"86 568 OFFCURVE",
"86 520 CURVE SMOOTH",
"86 91 LINE SMOOTH",
"86 41 OFFCURVE",
"57 34 OFFCURVE",
"21 34 CURVE SMOOTH",
"14 34 LINE",
"14 0 LINE"
);
}
);
userData = {
assembly = "PUSHB[ ]	/* 6 values pushed */
54 60 150 60 2 60 
PUSHW[ ]	/* 1 value pushed */
-16 
NPUSHB[ ]	/* 40 values pushed */
20 24 72 89 48 1 41 47 1 41 46 89 46 2 24 13 40 13 2 57 12 1 8 12 24 12 40 12 3 8 11 1 54 0 70 0 150 0 3 0 
PUSHW[ ]	/* 1 value pushed */
-16 
NPUSHB[ ]	/* 48 values pushed */
20 24 72 7 0 1 13 0 40 64 57 1 57 5 62 127 62 1 15 40 71 30 84 61 14 45 13 0 4 57 24 57 54 77 55 15 37 77 38 0 20 5 24 77 23 23 6 21 
SVTCA[0]	/* SetFreedomAndProjectionVectorToAxis */
MIAP[1]	/* MoveIndirectAbsPt */
SHP[1]	/* ShiftPointByLastPoint */
SRP0[ ]	/* SetRefPoint0 */
MIRP[00001]	/* MoveIndirectRelPt */
SHP[0]	/* ShiftPointByLastPoint */
SHP[0]	/* ShiftPointByLastPoint */
MIAP[1]	/* MoveIndirectAbsPt */
MIRP[00001]	/* MoveIndirectRelPt */
MIAP[1]	/* MoveIndirectAbsPt */
MIRP[00001]	/* MoveIndirectRelPt */
SHP[0]	/* ShiftPointByLastPoint */
SRP1[ ]	/* SetRefPoint1 */
SRP2[ ]	/* SetRefPoint2 */
SLOOP[ ]	/* SetLoopVariable */
IP[ ]	/* InterpolatePts */
SVTCA[1]	/* SetFreedomAndProjectionVectorToAxis */
SRP0[ ]	/* SetRefPoint0 */
MIRP[10100]	/* MoveIndirectRelPt */
MIRP[00001]	/* MoveIndirectRelPt */
SHP[0]	/* ShiftPointByLastPoint */
DELTAP1[ ]	/* DeltaExceptionP1 */
SRP0[ ]	/* SetRefPoint0 */
MDRP[10101]	/* MoveDirectRelPt */
MDRP[00110]	/* MoveDirectRelPt */
DELTAP1[ ]	/* DeltaExceptionP1 */
SRP1[ ]	/* SetRefPoint1 */
IP[ ]	/* InterpolatePts */
IP[ ]	/* InterpolatePts */
IUP[1]	/* InterpolateUntPts */
IUP[0]	/* InterpolateUntPts */
DELTAP1[ ]	/* DeltaExceptionP1 */
CALL[ ]	/* CallFunction */
DELTAP1[ ]	/* DeltaExceptionP1 */
DELTAP1[ ]	/* DeltaExceptionP1 */
DELTAP1[ ]	/* DeltaExceptionP1 */
DELTAP1[ ]	/* DeltaExceptionP1 */
DELTAP1[ ]	/* DeltaExceptionP1 */
DELTAP1[ ]	/* DeltaExceptionP1 */
DELTAP1[ ]	/* DeltaExceptionP1 */
DELTAP1[ ]	/* DeltaExceptionP1 */
CALL[ ]	/* CallFunction */
DELTAP1[ ]	/* DeltaExceptionP1 */";
};
width = 468;
},
{
background = {
paths = (
{
closed = 1;
nodes = (
"268 0 LINE",
"268 42 LINE",
"258 42 LINE SMOOTH",
"234 42 OFFCURVE",
"202 50 OFFCURVE",
"202 94 CURVE SMOOTH",
"202 159 LINE",
"234 183 LINE",
"305 71 LINE SMOOTH",
"326 38 OFFCURVE",
"345 20 OFFCURVE",
"373 11 CURVE SMOOTH",
"402 2 OFFCURVE",
"439 0 OFFCURVE",
"498 0 CURVE SMOOTH",
"509 0 LINE",
"509 42 LINE",
"506 42 LINE SMOOTH",
"481 42 OFFCURVE",
"451 62 OFFCURVE",
"423 105 CURVE SMOOTH",
"317 263 LINE",
"367 321 LINE SMOOTH",
"410 368 OFFCURVE",
"443 389 OFFCURVE",
"480 389 CURVE",
"480 429 LINE",
"278 429 LINE",
"278 389 LINE",
"305 389 OFFCURVE",
"320 381 OFFCURVE",
"320 367 CURVE SMOOTH",
"320 363 OFFCURVE",
"318 358 OFFCURVE",
"316 353 CURVE SMOOTH",
"313 346 OFFCURVE",
"307 339 OFFCURVE",
"298 329 CURVE SMOOTH",
"198 216 LINE",
"198 226 OFFCURVE",
"199 237 OFFCURVE",
"200 247 CURVE SMOOTH",
"201 264 OFFCURVE",
"202 285 OFFCURVE",
"202 299 CURVE SMOOTH",
"202 608 LINE",
"14 608 LINE",
"14 566 LINE",
"23 566 LINE SMOOTH",
"46 566 OFFCURVE",
"80 560 OFFCURVE",
"80 517 CURVE SMOOTH",
"80 94 LINE SMOOTH",
"80 50 OFFCURVE",
"47 42 OFFCURVE",
"23 42 CURVE SMOOTH",
"14 42 LINE",
"14 0 LINE"
);
}
);
};
layerId = "0ED38B93-C2B0-4B4A-9C6D-D7838A33C317";
paths = (
{
closed = 1;
nodes = (
"268 0 LINE",
"268 42 LINE",
"258 42 LINE SMOOTH",
"234 42 OFFCURVE",
"202 50 OFFCURVE",
"202 94 CURVE SMOOTH",
"202 159 LINE",
"234 183 LINE",
"305 71 LINE SMOOTH",
"326 38 OFFCURVE",
"345 20 OFFCURVE",
"373 11 CURVE SMOOTH",
"402 2 OFFCURVE",
"439 0 OFFCURVE",
"498 0 CURVE SMOOTH",
"509 0 LINE",
"509 42 LINE",
"506 42 LINE SMOOTH",
"481 42 OFFCURVE",
"451 62 OFFCURVE",
"423 105 CURVE SMOOTH",
"317 263 LINE",
"367 321 LINE SMOOTH",
"410 368 OFFCURVE",
"443 389 OFFCURVE",
"480 389 CURVE",
"480 429 LINE",
"278 429 LINE",
"278 389 LINE",
"305 389 OFFCURVE",
"320 381 OFFCURVE",
"320 367 CURVE SMOOTH",
"320 354 OFFCURVE",
"307 339 OFFCURVE",
"298 329 CURVE SMOOTH",
"198 216 LINE",
"200 246 OFFCURVE",
"202 269 OFFCURVE",
"202 299 CURVE SMOOTH",
"202 608 LINE",
"14 608 LINE",
"14 566 LINE",
"23 566 LINE SMOOTH",
"46 566 OFFCURVE",
"80 560 OFFCURVE",
"80 517 CURVE SMOOTH",
"80 94 LINE SMOOTH",
"80 50 OFFCURVE",
"47 42 OFFCURVE",
"23 42 CURVE SMOOTH",
"14 42 LINE",
"14 0 LINE"
);
}
);
userData = {
assembly = "NPUSHB[ ]	/* 77 values pushed */
88 4 120 4 2 4 55 55 58 120 7 1 89 7 1 7 53 5 53 21 53 85 53 3 52 53 48 8 48 58 58 60 159 60 1 34 8 8 24 84 59 49 46 46 7 16 12 17 72 12 7 28 7 44 7 3 43 52 53 39 7 54 6 7 17 47 15 31 32 0 58 14 18 18 1 17 21 
SVTCA[0]	/* SetFreedomAndProjectionVectorToAxis */
MIAP[1]	/* MoveIndirectAbsPt */
SHP[1]	/* ShiftPointByLastPoint */
SHP[1]	/* ShiftPointByLastPoint */
SRP1[ ]	/* SetRefPoint1 */
SHP[1]	/* ShiftPointByLastPoint */
SHP[1]	/* ShiftPointByLastPoint */
MIAP[1]	/* MoveIndirectAbsPt */
SHP[1]	/* ShiftPointByLastPoint */
MIAP[1]	/* MoveIndirectAbsPt */
SRP2[ ]	/* SetRefPoint2 */
SLOOP[ ]	/* SetLoopVariable */
IP[ ]	/* InterpolatePts */
DELTAP1[ ]	/* DeltaExceptionP1 */
CALL[ ]	/* CallFunction */
SHP[1]	/* ShiftPointByLastPoint */
SRP1[ ]	/* SetRefPoint1 */
SHP[1]	/* ShiftPointByLastPoint */
SVTCA[1]	/* SetFreedomAndProjectionVectorToAxis */
SRP0[ ]	/* SetRefPoint0 */
MIRP[00100]	/* MoveIndirectRelPt */
SHP[0]	/* ShiftPointByLastPoint */
SRP1[ ]	/* SetRefPoint1 */
SHP[1]	/* ShiftPointByLastPoint */
DELTAP1[ ]	/* DeltaExceptionP1 */
SRP1[ ]	/* SetRefPoint1 */
SHP[1]	/* ShiftPointByLastPoint */
SRP1[ ]	/* SetRefPoint1 */
SHP[1]	/* ShiftPointByLastPoint */
SRP1[ ]	/* SetRefPoint1 */
SRP2[ ]	/* SetRefPoint2 */
IP[ ]	/* InterpolatePts */
IP[ ]	/* InterpolatePts */
DELTAP1[ ]	/* DeltaExceptionP1 */
SRP1[ ]	/* SetRefPoint1 */
SHP[1]	/* ShiftPointByLastPoint */
DELTAP1[ ]	/* DeltaExceptionP1 */
DELTAP1[ ]	/* DeltaExceptionP1 */
SRP2[ ]	/* SetRefPoint2 */
IP[ ]	/* InterpolatePts */
SRP1[ ]	/* SetRefPoint1 */
SHP[1]	/* ShiftPointByLastPoint */
DELTAP1[ ]	/* DeltaExceptionP1 */
IUP[1]	/* InterpolateUntPts */
IUP[0]	/* InterpolateUntPts */";
};
width = 509;
}
);
note = uni006B;
unicode = 006B;
},
{
color = 10;
glyphname = l;
lastChange = "2022-01-06 02:32:25 +0000";
layers = (
{
layerId = "4397B867-53E7-4964-BB9B-A578920F109C";
paths = (
{
closed = 1;
nodes = (
"238 0 LINE",
"238 34 LINE",
"227 34 LINE SMOOTH",
"190 34 OFFCURVE",
"162 42 OFFCURVE",
"162 91 CURVE SMOOTH",
"162 608 LINE",
"10 608 LINE",
"10 574 LINE",
"21 574 LINE SMOOTH",
"56 574 OFFCURVE",
"86 568 OFFCURVE",
"86 520 CURVE SMOOTH",
"86 91 LINE SMOOTH",
"86 41 OFFCURVE",
"57 34 OFFCURVE",
"21 34 CURVE SMOOTH",
"10 34 LINE",
"10 0 LINE"
);
}
);
userData = {
assembly = "NPUSHB[ ]	/* 19 values pushed */
15 71 5 5 26 25 255 26 1 2 20 24 77 23 21 12 77 13 0 
SVTCA[0]	/* SetFreedomAndProjectionVectorToAxis */
MIAP[1]	/* MoveIndirectAbsPt */
MIRP[00001]	/* MoveIndirectRelPt */
MIAP[1]	/* MoveIndirectAbsPt */
MIRP[00001]	/* MoveIndirectRelPt */
SHP[0]	/* ShiftPointByLastPoint */
SVTCA[1]	/* SetFreedomAndProjectionVectorToAxis */
SDS[ ]	/* SetDeltaShiftInGState */
DELTAP1[ ]	/* DeltaExceptionP1 */
SRP1[ ]	/* SetRefPoint1 */
SRP2[ ]	/* SetRefPoint2 */
IP[ ]	/* InterpolatePts */
MDAP[1]	/* MoveDirectAbsPt */
MIRP[00001]	/* MoveIndirectRelPt */
IUP[1]	/* InterpolateUntPts */
IUP[0]	/* InterpolateUntPts */";
};
width = 248;
},
{
layerId = "0ED38B93-C2B0-4B4A-9C6D-D7838A33C317";
paths = (
{
closed = 1;
nodes = (
"268 0 LINE",
"268 42 LINE",
"258 42 LINE SMOOTH",
"234 42 OFFCURVE",
"202 50 OFFCURVE",
"202 94 CURVE SMOOTH",
"202 608 LINE",
"14 608 LINE",
"14 566 LINE",
"23 566 LINE SMOOTH",
"46 566 OFFCURVE",
"80 560 OFFCURVE",
"80 517 CURVE SMOOTH",
"80 94 LINE SMOOTH",
"80 50 OFFCURVE",
"47 42 OFFCURVE",
"23 42 CURVE SMOOTH",
"14 42 LINE",
"14 0 LINE"
);
}
);
userData = {
assembly = "NPUSHB[ ]	/* 23 values pushed */
208 26 1 159 26 1 16 26 64 26 2 15 5 84 25 20 24 24 23 21 12 13 0 
SVTCA[0]	/* SetFreedomAndProjectionVectorToAxis */
MIAP[1]	/* MoveIndirectAbsPt */
SHP[1]	/* ShiftPointByLastPoint */
MIAP[1]	/* MoveIndirectAbsPt */
SHP[1]	/* ShiftPointByLastPoint */
SRP1[ ]	/* SetRefPoint1 */
SHP[1]	/* ShiftPointByLastPoint */
SVTCA[1]	/* SetFreedomAndProjectionVectorToAxis */
SRP0[ ]	/* SetRefPoint0 */
MIRP[00100]	/* MoveIndirectRelPt */
SHP[0]	/* ShiftPointByLastPoint */
DELTAP1[ ]	/* DeltaExceptionP1 */
DELTAP1[ ]	/* DeltaExceptionP1 */
DELTAP1[ ]	/* DeltaExceptionP1 */
IUP[1]	/* InterpolateUntPts */
IUP[0]	/* InterpolateUntPts */";
};
width = 282;
}
);
note = uni006C;
unicode = 006C;
},
{
color = 10;
glyphname = m;
lastChange = "2022-01-06 02:32:25 +0000";
layers = (
{
layerId = "4397B867-53E7-4964-BB9B-A578920F109C";
paths = (
{
closed = 1;
nodes = (
"238 0 LINE",
"238 34 LINE",
"235 34 LINE SMOOTH",
"199 34 OFFCURVE",
"170 40 OFFCURVE",
"170 87 CURVE SMOOTH",
"170 256 LINE SMOOTH",
"170 326 OFFCURVE",
"194 386 OFFCURVE",
"262 386 CURVE SMOOTH",
"323 386 OFFCURVE",
"346 347 OFFCURVE",
"346 276 CURVE SMOOTH",
"346 0 LINE",
"486 0 LINE",
"486 34 LINE",
"483 34 LINE SMOOTH",
"448 34 OFFCURVE",
"422 42 OFFCURVE",
"422 91 CURVE SMOOTH",
"422 266 LINE SMOOTH",
"422 331 OFFCURVE",
"444 386 OFFCURVE",
"510 386 CURVE SMOOTH",
"571 386 OFFCURVE",
"594 347 OFFCURVE",
"594 276 CURVE SMOOTH",
"594 0 LINE",
"734 0 LINE",
"734 34 LINE",
"731 34 LINE SMOOTH",
"696 34 OFFCURVE",
"670 42 OFFCURVE",
"670 91 CURVE SMOOTH",
"670 280 LINE SMOOTH",
"670 334 OFFCURVE",
"657 374 OFFCURVE",
"634 399 CURVE SMOOTH",
"612 425 OFFCURVE",
"580 437 OFFCURVE",
"539 437 CURVE SMOOTH",
"489 437 OFFCURVE",
"446 424 OFFCURVE",
"414 364 CURVE",
"407 364 LINE",
"387 417 OFFCURVE",
"342 437 OFFCURVE",
"291 437 CURVE SMOOTH",
"240 437 OFFCURVE",
"202 423 OFFCURVE",
"170 364 CURVE",
"166 364 LINE",
"156 429 LINE",
"30 429 LINE",
"30 395 LINE",
"33 395 LINE SMOOTH",
"68 395 OFFCURVE",
"94 387 OFFCURVE",
"94 341 CURVE SMOOTH",
"94 91 LINE SMOOTH",
"94 42 OFFCURVE",
"70 34 OFFCURVE",
"33 34 CURVE SMOOTH",
"22 34 LINE",
"22 0 LINE"
);
}
);
userData = {
assembly = "NPUSHB[ ]	/* 68 values pushed */
30 62 71 118 70 1 71 70 87 70 103 70 3 70 70 9 50 71 42 85 89 47 89 63 89 95 89 111 89 159 89 191 89 207 89 239 89 8 19 19 82 71 9 84 88 56 80 36 16 30 19 3 76 80 25 16 16 77 17 15 68 48 3 77 70 50 2 21 
SVTCA[0]	/* SetFreedomAndProjectionVectorToAxis */
MIAP[1]	/* MoveIndirectAbsPt */
SHP[1]	/* ShiftPointByLastPoint */
SHP[1]	/* ShiftPointByLastPoint */
MIRP[00001]	/* MoveIndirectRelPt */
SHP[0]	/* ShiftPointByLastPoint */
SHP[0]	/* ShiftPointByLastPoint */
MIAP[1]	/* MoveIndirectAbsPt */
MIRP[00001]	/* MoveIndirectRelPt */
MIAP[1]	/* MoveIndirectAbsPt */
MIRP[00001]	/* MoveIndirectRelPt */
SRP2[ ]	/* SetRefPoint2 */
IP[ ]	/* InterpolatePts */
IP[ ]	/* InterpolatePts */
MIAP[1]	/* MoveIndirectAbsPt */
MIRP[00001]	/* MoveIndirectRelPt */
SVTCA[1]	/* SetFreedomAndProjectionVectorToAxis */
SRP0[ ]	/* SetRefPoint0 */
MIRP[10100]	/* MoveIndirectRelPt */
MIRP[10001]	/* MoveIndirectRelPt */
MDRP[00001]	/* MoveDirectRelPt */
MDAP[1]	/* MoveDirectAbsPt */
DELTAP1[ ]	/* DeltaExceptionP1 */
SRP0[ ]	/* SetRefPoint0 */
MIRP[10100]	/* MoveIndirectRelPt */
MIRP[00001]	/* MoveIndirectRelPt */
SRP2[ ]	/* SetRefPoint2 */
IP[ ]	/* InterpolatePts */
MDAP[1]	/* MoveDirectAbsPt */
DELTAP1[ ]	/* DeltaExceptionP1 */
DELTAP1[ ]	/* DeltaExceptionP1 */
MIRP[00001]	/* MoveIndirectRelPt */
IP[ ]	/* InterpolatePts */
IUP[1]	/* InterpolateUntPts */
IUP[0]	/* InterpolateUntPts */";
};
width = 756;
},
{
layerId = "0ED38B93-C2B0-4B4A-9C6D-D7838A33C317";
paths = (
{
closed = 1;
nodes = (
"262 0 LINE",
"262 42 LINE",
"259 42 LINE SMOOTH",
"225 42 OFFCURVE",
"202 50 OFFCURVE",
"202 94 CURVE SMOOTH",
"202 247 LINE SMOOTH",
"202 312 OFFCURVE",
"218 371 OFFCURVE",
"271 371 CURVE SMOOTH",
"325 371 OFFCURVE",
"335 318 OFFCURVE",
"335 263 CURVE SMOOTH",
"335 0 LINE",
"513 0 LINE",
"513 42 LINE",
"510 42 LINE SMOOTH",
"474 42 OFFCURVE",
"457 50 OFFCURVE",
"457 99 CURVE SMOOTH",
"457 257 LINE SMOOTH",
"457 318 OFFCURVE",
"477 371 OFFCURVE",
"526 371 CURVE SMOOTH",
"574 371 OFFCURVE",
"590 332 OFFCURVE",
"590 263 CURVE SMOOTH",
"590 0 LINE",
"768 0 LINE",
"768 42 LINE",
"766 42 LINE SMOOTH",
"730 42 OFFCURVE",
"712 50 OFFCURVE",
"712 99 CURVE SMOOTH",
"712 285 LINE SMOOTH",
"712 339 OFFCURVE",
"700 378 OFFCURVE",
"677 402 CURVE SMOOTH",
"654 427 OFFCURVE",
"622 439 OFFCURVE",
"580 439 CURVE SMOOTH",
"530 439 OFFCURVE",
"486 433 OFFCURVE",
"453 372 CURVE",
"446 372 LINE",
"426 419 OFFCURVE",
"383 439 OFFCURVE",
"325 439 CURVE SMOOTH",
"274 439 OFFCURVE",
"234 432 OFFCURVE",
"202 372 CURVE",
"198 372 LINE",
"188 429 LINE",
"20 429 LINE",
"20 389 LINE",
"22 389 LINE SMOOTH",
"58 389 OFFCURVE",
"80 382 OFFCURVE",
"80 337 CURVE SMOOTH",
"80 98 LINE SMOOTH",
"80 50 OFFCURVE",
"54 42 OFFCURVE",
"18 42 CURVE SMOOTH",
"16 42 LINE",
"16 0 LINE"
);
}
);
userData = {
assembly = "NPUSHB[ ]	/* 78 values pushed */
11 39 75 39 2 7 73 1 7 9 1 5 55 21 55 37 55 3 46 76 7 76 1 76 0 0 66 27 66 58 85 85 16 85 32 85 64 85 128 85 144 85 176 85 208 85 7 37 12 12 27 84 84 47 38 6 38 1 38 70 6 6 52 43 16 33 35 15 63 21 17 82 20 66 82 3 0 21 
SVTCA[0]	/* SetFreedomAndProjectionVectorToAxis */
MIAP[1]	/* MoveIndirectAbsPt */
SLOOP[ ]	/* SetLoopVariable */
SHP[0]	/* ShiftPointByLastPoint */
SRP1[ ]	/* SetRefPoint1 */
SHP[1]	/* ShiftPointByLastPoint */
SHP[1]	/* ShiftPointByLastPoint */
SHP[1]	/* ShiftPointByLastPoint */
MIAP[1]	/* MoveIndirectAbsPt */
SHP[1]	/* ShiftPointByLastPoint */
MIAP[1]	/* MoveIndirectAbsPt */
SHP[1]	/* ShiftPointByLastPoint */
SHP[1]	/* ShiftPointByLastPoint */
SRP1[ ]	/* SetRefPoint1 */
SHP[1]	/* ShiftPointByLastPoint */
SHP[1]	/* ShiftPointByLastPoint */
DELTAP1[ ]	/* DeltaExceptionP1 */
SRP1[ ]	/* SetRefPoint1 */
SHP[1]	/* ShiftPointByLastPoint */
SVTCA[1]	/* SetFreedomAndProjectionVectorToAxis */
SRP0[ ]	/* SetRefPoint0 */
MIRP[00100]	/* MoveIndirectRelPt */
SHP[0]	/* ShiftPointByLastPoint */
SRP1[ ]	/* SetRefPoint1 */
SHP[1]	/* ShiftPointByLastPoint */
DELTAP1[ ]	/* DeltaExceptionP1 */
SRP0[ ]	/* SetRefPoint0 */
MIRP[00100]	/* MoveIndirectRelPt */
SHP[0]	/* ShiftPointByLastPoint */
SRP1[ ]	/* SetRefPoint1 */
SRP2[ ]	/* SetRefPoint2 */
IP[ ]	/* InterpolatePts */
MDAP[1]	/* MoveDirectAbsPt */
SHP[1]	/* ShiftPointByLastPoint */
DELTAP1[ ]	/* DeltaExceptionP1 */
SRP1[ ]	/* SetRefPoint1 */
SHP[1]	/* ShiftPointByLastPoint */
IUP[1]	/* InterpolateUntPts */
IUP[0]	/* InterpolateUntPts */
DELTAP1[ ]	/* DeltaExceptionP1 */
DELTAP1[ ]	/* DeltaExceptionP1 */
DELTAP1[ ]	/* DeltaExceptionP1 */
DELTAP1[ ]	/* DeltaExceptionP1 */";
};
width = 789;
}
);
note = uni006D;
unicode = 006D;
},
{
color = 10;
glyphname = n;
lastChange = "2022-01-06 02:32:25 +0000";
layers = (
{
layerId = "4397B867-53E7-4964-BB9B-A578920F109C";
paths = (
{
closed = 1;
nodes = (
"238 0 LINE",
"238 34 LINE",
"235 34 LINE SMOOTH",
"199 34 OFFCURVE",
"170 40 OFFCURVE",
"170 87 CURVE SMOOTH",
"170 256 LINE SMOOTH",
"170 326 OFFCURVE",
"194 386 OFFCURVE",
"266 386 CURVE SMOOTH",
"330 386 OFFCURVE",
"354 347 OFFCURVE",
"354 276 CURVE SMOOTH",
"354 0 LINE",
"494 0 LINE",
"494 34 LINE",
"491 34 LINE SMOOTH",
"455 34 OFFCURVE",
"430 41 OFFCURVE",
"430 91 CURVE SMOOTH",
"430 280 LINE SMOOTH",
"430 334 OFFCURVE",
"417 374 OFFCURVE",
"394 399 CURVE SMOOTH",
"370 425 OFFCURVE",
"338 437 OFFCURVE",
"295 437 CURVE SMOOTH",
"243 437 OFFCURVE",
"204 423 OFFCURVE",
"170 364 CURVE",
"166 364 LINE",
"156 429 LINE",
"26 429 LINE",
"26 395 LINE",
"29 395 LINE SMOOTH",
"64 395 OFFCURVE",
"94 387 OFFCURVE",
"94 341 CURVE SMOOTH",
"94 91 LINE SMOOTH",
"94 41 OFFCURVE",
"65 34 OFFCURVE",
"29 34 CURVE SMOOTH",
"22 34 LINE",
"22 0 LINE"
);
}
);
userData = {
assembly = "NPUSHB[ ]	/* 30 values pushed */
39 71 31 85 58 127 58 1 19 51 71 9 84 57 20 45 80 25 16 16 77 17 15 37 0 3 77 39 2 21 
SVTCA[0]	/* SetFreedomAndProjectionVectorToAxis */
MIAP[1]	/* MoveIndirectAbsPt */
SHP[1]	/* ShiftPointByLastPoint */
MIRP[00001]	/* MoveIndirectRelPt */
SHP[0]	/* ShiftPointByLastPoint */
SHP[0]	/* ShiftPointByLastPoint */
MIAP[1]	/* MoveIndirectAbsPt */
MIRP[00001]	/* MoveIndirectRelPt */
MIAP[1]	/* MoveIndirectAbsPt */
MIRP[00001]	/* MoveIndirectRelPt */
SHP[0]	/* ShiftPointByLastPoint */
SVTCA[1]	/* SetFreedomAndProjectionVectorToAxis */
SRP0[ ]	/* SetRefPoint0 */
MIRP[10100]	/* MoveIndirectRelPt */
MIRP[00001]	/* MoveIndirectRelPt */
SHP[0]	/* ShiftPointByLastPoint */
DELTAP1[ ]	/* DeltaExceptionP1 */
SRP0[ ]	/* SetRefPoint0 */
MIRP[10100]	/* MoveIndirectRelPt */
MIRP[00001]	/* MoveIndirectRelPt */
IUP[1]	/* InterpolateUntPts */
IUP[0]	/* InterpolateUntPts */";
};
width = 516;
},
{
layerId = "0ED38B93-C2B0-4B4A-9C6D-D7838A33C317";
paths = (
{
closed = 1;
nodes = (
"262 0 LINE",
"262 42 LINE",
"259 42 LINE SMOOTH",
"225 42 OFFCURVE",
"202 50 OFFCURVE",
"202 94 CURVE SMOOTH",
"202 247 LINE SMOOTH",
"202 312 OFFCURVE",
"218 371 OFFCURVE",
"271 371 CURVE SMOOTH",
"325 371 OFFCURVE",
"335 318 OFFCURVE",
"335 263 CURVE SMOOTH",
"335 0 LINE",
"513 0 LINE",
"513 42 LINE",
"510 42 LINE SMOOTH",
"474 42 OFFCURVE",
"457 50 OFFCURVE",
"457 99 CURVE SMOOTH",
"457 285 LINE SMOOTH",
"457 339 OFFCURVE",
"444 378 OFFCURVE",
"422 402 CURVE SMOOTH",
"399 427 OFFCURVE",
"366 439 OFFCURVE",
"325 439 CURVE SMOOTH",
"274 439 OFFCURVE",
"234 432 OFFCURVE",
"202 372 CURVE",
"198 372 LINE",
"188 429 LINE",
"20 429 LINE",
"20 386 LINE",
"22 386 LINE SMOOTH",
"58 386 OFFCURVE",
"80 379 OFFCURVE",
"80 334 CURVE SMOOTH",
"80 98 LINE SMOOTH",
"80 50 OFFCURVE",
"54 42 OFFCURVE",
"18 42 CURVE SMOOTH",
"16 42 LINE",
"16 0 LINE"
);
}
);
userData = {
assembly = "NPUSHB[ ]	/* 49 values pushed */
9 39 73 39 2 7 9 1 5 46 21 46 37 46 3 0 49 85 58 16 58 64 58 2 37 12 12 27 84 57 6 37 1 37 6 6 43 16 33 35 15 55 18 21 21 20 20 0 21 
SVTCA[0]	/* SetFreedomAndProjectionVectorToAxis */
MIAP[1]	/* MoveIndirectAbsPt */
SHP[0]	/* ShiftPointByLastPoint */
SRP1[ ]	/* SetRefPoint1 */
SHP[1]	/* ShiftPointByLastPoint */
SRP1[ ]	/* SetRefPoint1 */
SHP[1]	/* ShiftPointByLastPoint */
SHP[1]	/* ShiftPointByLastPoint */
MIAP[1]	/* MoveIndirectAbsPt */
SHP[1]	/* ShiftPointByLastPoint */
MIAP[1]	/* MoveIndirectAbsPt */
SHP[1]	/* ShiftPointByLastPoint */
SRP1[ ]	/* SetRefPoint1 */
SHP[1]	/* ShiftPointByLastPoint */
DELTAP1[ ]	/* DeltaExceptionP1 */
SVTCA[1]	/* SetFreedomAndProjectionVectorToAxis */
SRP0[ ]	/* SetRefPoint0 */
MIRP[00100]	/* MoveIndirectRelPt */
SHP[0]	/* ShiftPointByLastPoint */
SRP1[ ]	/* SetRefPoint1 */
SHP[1]	/* ShiftPointByLastPoint */
DELTAP1[ ]	/* DeltaExceptionP1 */
SRP0[ ]	/* SetRefPoint0 */
MIRP[00100]	/* MoveIndirectRelPt */
SHP[0]	/* ShiftPointByLastPoint */
IUP[1]	/* InterpolateUntPts */
IUP[0]	/* InterpolateUntPts */
DELTAP1[ ]	/* DeltaExceptionP1 */
DELTAP1[ ]	/* DeltaExceptionP1 */
DELTAP1[ ]	/* DeltaExceptionP1 */";
};
width = 534;
}
);
note = uni006E;
unicode = 006E;
},
